<svg width="247" height="48" viewBox="0 0 247 48" fill="none" xmlns="http://www.w3.org/2000/svg">
<path d="M2.03015 18.8343C2.10521 18.8947 2.15477 18.9812 2.169 19.0766C2.18322 19.1719 2.16108 19.2691 2.10697 19.3489C1.88952 19.6434 1.71375 19.9665 1.58464 20.309C1.38018 20.8414 1.27098 21.4056 1.26203 21.9759V23.1357C1.26203 23.2356 1.30169 23.3313 1.37227 23.4019C1.44286 23.4725 1.53859 23.5121 1.63841 23.5121H3.48959C3.53966 23.5131 3.58943 23.5042 3.63598 23.4857C3.68254 23.4672 3.72494 23.4397 3.76071 23.4046C3.79648 23.3696 3.82489 23.3277 3.84428 23.2816C3.86368 23.2354 3.87366 23.1858 3.87365 23.1357V21.9375C3.84076 21.4177 4.00536 20.9047 4.33452 20.5011C4.50055 20.3341 4.69992 20.204 4.91963 20.1193C5.13935 20.0346 5.37445 19.9972 5.60961 20.0095C6.31143 20.0165 7.00959 19.9075 7.67586 19.6869C8.26775 19.4875 8.81364 19.1715 9.28123 18.7574C9.73978 18.3314 10.0945 17.8058 10.3182 17.2212C10.5802 16.5698 10.7082 15.8723 10.6946 15.1703C10.7068 14.4759 10.5788 13.7862 10.3182 13.1425C10.0926 12.5588 9.73814 12.0337 9.28123 11.6062C8.80825 11.2136 8.25901 10.9233 7.66818 10.7536C7.00191 10.5329 6.30375 10.4239 5.60193 10.431C4.91036 10.4267 4.22276 10.5357 3.5664 10.7536C2.97208 10.96 2.42404 11.281 1.95334 11.6984C1.49592 12.1286 1.13694 12.6527 0.901013 13.2346C0.63616 13.8539 0.497747 14.5198 0.493908 15.1933C0.480252 15.8953 0.608263 16.5929 0.870288 17.2442C1.12241 17.8604 1.52045 18.406 2.03015 18.8343ZM3.30524 14.1564C3.42235 13.8559 3.59425 13.5798 3.8122 13.3422C4.02612 13.1073 4.2881 12.9213 4.58032 12.7968C4.90622 12.6716 5.25282 12.609 5.60193 12.6125C5.95621 12.6067 6.30829 12.6693 6.63889 12.7968C6.92832 12.9123 7.19008 13.0877 7.40701 13.3114C7.62741 13.5458 7.79734 13.8229 7.90629 14.1257C8.03019 14.4677 8.09007 14.8296 8.08296 15.1933C8.08837 15.5513 8.03118 15.9074 7.91398 16.2457C7.80349 16.5517 7.63089 16.8315 7.40701 17.0676C7.19302 17.2985 6.93076 17.4795 6.63889 17.5976C6.31228 17.7304 5.96215 17.7957 5.60961 17.7896C5.26211 17.7949 4.91716 17.7296 4.59568 17.5976C4.30618 17.4751 4.04477 17.2948 3.82756 17.0676C3.60128 16.8319 3.42608 16.5521 3.31292 16.2457C3.18639 15.9095 3.12386 15.5526 3.12857 15.1933C3.12451 14.8392 3.18705 14.4874 3.31292 14.1564" fill="white"/>
<path d="M13.1986 16.5069H14.8655C14.9653 16.5069 15.061 16.4672 15.1316 16.3966C15.2022 16.326 15.2419 16.2303 15.2419 16.1305V9.67057C15.2419 9.57075 15.2022 9.47501 15.1316 9.40443C15.061 9.33384 14.9653 9.29419 14.8655 9.29419H13.1986C13.0988 9.29419 13.0031 9.33384 12.9325 9.40443C12.8619 9.47501 12.8223 9.57075 12.8223 9.67057V16.1305C12.8223 16.2303 12.8619 16.326 12.9325 16.3966C13.0031 16.4672 13.0988 16.5069 13.1986 16.5069Z" fill="white"/>
<path d="M28.9144 20.0097C29.0143 20.0097 29.11 19.9701 29.1806 19.8995C29.2512 19.8289 29.2908 19.7332 29.2908 19.6333V18.1662C29.2908 18.0664 29.2512 17.9707 29.1806 17.9001C29.11 17.8295 29.0143 17.7898 28.9144 17.7898H26.7099C26.3574 17.796 26.0073 17.7307 25.6806 17.5978C25.3888 17.4797 25.1265 17.2988 24.9125 17.0678C24.6901 16.832 24.52 16.5519 24.4132 16.2459C24.2893 15.9092 24.2294 15.5523 24.2366 15.1936C24.2289 14.8298 24.2888 14.4678 24.4132 14.1259C24.5191 13.8217 24.6894 13.544 24.9125 13.3117C25.1295 13.088 25.3912 12.9126 25.6806 12.797C25.8681 12.7217 26.0642 12.6701 26.2644 12.6434C26.3193 12.6332 26.3758 12.6352 26.4297 12.6495C26.4837 12.6638 26.5339 12.6898 26.5765 12.7259C26.6191 12.7619 26.6532 12.807 26.6763 12.8578C26.6994 12.9086 26.7109 12.964 26.7099 13.0198V13.9262C26.7099 13.9763 26.7199 14.0258 26.7393 14.072C26.7587 14.1182 26.7871 14.16 26.8229 14.1951C26.8586 14.2301 26.901 14.2577 26.9476 14.2762C26.9941 14.2946 27.0439 14.3036 27.094 14.3026H28.9144C29.0143 14.3026 29.11 14.2629 29.1806 14.1923C29.2512 14.1217 29.2908 14.026 29.2908 13.9262V11.184C29.2906 11.1101 29.2686 11.038 29.2276 10.9765C29.1866 10.915 29.1285 10.867 29.0604 10.8383C28.3125 10.5319 27.5103 10.3803 26.7022 10.3928C26.0003 10.3846 25.302 10.4937 24.636 10.7154C24.0408 10.9112 23.4938 11.2306 23.0306 11.6525C22.5699 12.0784 22.2126 12.6038 21.986 13.1888C21.7246 13.835 21.5965 14.5274 21.6096 15.2243C21.5872 16.132 21.8101 17.029 22.2548 17.8206H21.6173C21.3827 17.8323 21.1483 17.7938 20.9297 17.7077C20.7111 17.6216 20.5135 17.4899 20.3499 17.3213C20.0163 16.9231 19.851 16.4106 19.889 15.8926V8.56469C19.889 8.46487 19.8493 8.36913 19.7788 8.29855C19.7082 8.22796 19.6124 8.18831 19.5126 8.18831H17.6845C17.6344 8.18729 17.5846 8.19627 17.5381 8.21473C17.4915 8.23318 17.4491 8.26074 17.4134 8.2958C17.3776 8.33085 17.3492 8.37269 17.3298 8.41886C17.3104 8.46503 17.3004 8.51461 17.3004 8.56469V15.8619C17.3394 16.3811 17.1771 16.8954 16.8472 17.2982C16.6828 17.4678 16.4838 17.6001 16.2639 17.6863C16.0439 17.7724 15.808 17.8103 15.5721 17.7975H13.1986C13.0988 17.7975 13.0031 17.8372 12.9325 17.9078C12.8619 17.9784 12.8223 18.0741 12.8223 18.1739V19.6333C12.8223 19.7332 12.8619 19.8289 12.9325 19.8995C13.0031 19.9701 13.0988 20.0097 13.1986 20.0097H15.5721C16.193 20.0161 16.8099 19.9094 17.3926 19.6948C17.7356 19.5745 18.061 19.4092 18.3604 19.2032C18.429 19.1549 18.5108 19.129 18.5947 19.129C18.6786 19.129 18.7604 19.1549 18.829 19.2032C19.1226 19.4177 19.4427 19.5933 19.7815 19.7255C20.3587 19.9404 20.9706 20.0472 21.5865 20.0404C21.6657 20.0484 21.7455 20.0484 21.8247 20.0404C21.8705 20.0478 21.9171 20.0478 21.9629 20.0404L28.9144 20.0097Z" fill="white"/>
<path d="M31.887 21.6765C31.8245 21.8488 31.7933 22.0309 31.7949 22.2142C31.7897 22.4603 31.8479 22.7037 31.9638 22.9209H31.4338V23.5123H33.8534V22.9209H33.1621C33.0714 22.9239 32.9811 22.9085 32.8966 22.8754C32.812 22.8424 32.7351 22.7925 32.6705 22.7288C32.5508 22.5846 32.488 22.4016 32.4938 22.2142C32.4938 21.7533 32.7166 21.5229 33.1621 21.5229V21.9838H33.8534V21.0774C33.6404 20.9742 33.4065 20.9216 33.1698 20.9238C32.9032 20.9062 32.6376 20.9702 32.4085 21.1075C32.1793 21.2447 31.9974 21.4486 31.887 21.6919" fill="white"/>
<path d="M31.8102 16.5069H33.477C33.5769 16.5069 33.6726 16.4672 33.7432 16.3966C33.8138 16.326 33.8534 16.2303 33.8534 16.1305V9.67057C33.8534 9.57075 33.8138 9.47501 33.7432 9.40443C33.6726 9.33384 33.5769 9.29419 33.477 9.29419H31.8102C31.7104 9.29419 31.6147 9.33384 31.5441 9.40443C31.4735 9.47501 31.4338 9.57075 31.4338 9.67057V16.1305C31.4338 16.2303 31.4735 16.326 31.5441 16.3966C31.6147 16.4672 31.7104 16.5069 31.8102 16.5069Z" fill="white"/>
<path d="M44.1693 8.1805H42.3412C42.2918 8.1805 42.2428 8.19023 42.1971 8.20915C42.1515 8.22806 42.11 8.25579 42.075 8.29074C42.0401 8.32569 42.0124 8.36718 41.9935 8.41284C41.9745 8.45851 41.9648 8.50745 41.9648 8.55688V15.8617C42.0016 16.382 41.8366 16.8964 41.5039 17.2981C41.2514 17.567 40.9106 17.736 40.5438 17.7744C40.5037 17.7813 40.4648 17.7943 40.4286 17.8128H40.2288C39.9942 17.8245 39.7598 17.786 39.5413 17.6999C39.3227 17.6138 39.125 17.4821 38.9614 17.3135C38.6279 16.9153 38.4625 16.4028 38.5006 15.8848V8.56456C38.5006 8.46474 38.4609 8.369 38.3903 8.29842C38.3197 8.22783 38.224 8.18818 38.1242 8.18818H36.2961C36.246 8.18716 36.1962 8.19614 36.1497 8.2146C36.1031 8.23305 36.0607 8.26061 36.0249 8.29567C35.9892 8.33072 35.9608 8.37256 35.9414 8.41873C35.922 8.4649 35.912 8.51448 35.912 8.56456V15.8617C35.947 16.3805 35.7852 16.8934 35.4588 17.2981C35.2943 17.4677 35.0954 17.6 34.8754 17.6861C34.6555 17.7723 34.4196 17.8102 34.1837 17.7974H31.8102C31.7104 17.7974 31.6147 17.8371 31.5441 17.9076C31.4735 17.9782 31.4338 18.074 31.4338 18.1738V19.6332C31.4338 19.733 31.4735 19.8288 31.5441 19.8994C31.6147 19.9699 31.7104 20.0096 31.8102 20.0096H34.1837C34.8072 20.0169 35.4268 19.9102 36.0119 19.6947C36.3534 19.5768 36.6767 19.4113 36.972 19.2031C37.0406 19.1548 37.1224 19.1289 37.2063 19.1289C37.2901 19.1289 37.372 19.1548 37.4406 19.2031C37.7331 19.4192 38.0535 19.5949 38.393 19.7254C38.9703 19.9403 39.5822 20.0471 40.1981 20.0403C40.2848 20.052 40.3726 20.052 40.4593 20.0403C40.5047 20.0517 40.5522 20.0517 40.5975 20.0403C41.0936 20.0128 41.5829 19.9118 42.0493 19.7407C42.5647 19.5574 43.0325 19.2606 43.418 18.8725C43.8035 18.4843 44.097 18.0145 44.2769 17.4978C44.4674 16.9602 44.5636 16.3937 44.5611 15.8233V8.55688C44.5611 8.5068 44.5511 8.45722 44.5317 8.41105C44.5123 8.36488 44.4839 8.32304 44.4481 8.28798C44.4124 8.25293 44.3699 8.22537 44.3234 8.20691C44.2768 8.18846 44.2271 8.17948 44.177 8.1805" fill="white"/>
<path d="M56.8587 23.5122C57.1746 23.5209 57.4838 23.4205 57.7344 23.228C57.8575 23.1291 57.9552 23.0022 58.0193 22.8579C58.0834 22.7136 58.1122 22.556 58.1031 22.3984C58.1111 22.2415 58.0803 22.0851 58.0133 21.943C57.9463 21.801 57.8452 21.6777 57.719 21.5842C57.4615 21.3937 57.1482 21.2938 56.828 21.3C56.5132 21.2903 56.2045 21.3878 55.9523 21.5765C55.8261 21.6722 55.7246 21.7968 55.6565 21.9398C55.5883 22.0828 55.5554 22.2401 55.5606 22.3984C55.5573 22.5575 55.5909 22.7153 55.6589 22.8592C55.7269 23.0032 55.8273 23.1294 55.9523 23.228C56.2017 23.4228 56.5117 23.5235 56.828 23.5122" fill="white"/>
<path d="M53.9476 23.5123C54.2638 23.5236 54.5739 23.4229 54.8233 23.2281C54.9529 23.1328 55.0577 23.0076 55.1286 22.8632C55.1994 22.7188 55.2344 22.5593 55.2304 22.3985C55.2369 22.2411 55.2046 22.0844 55.1363 21.9424C55.0679 21.8004 54.9657 21.6774 54.8386 21.5843C54.5816 21.3928 54.268 21.2928 53.9476 21.3001C53.6353 21.2916 53.3294 21.389 53.0796 21.5766C52.9604 21.6763 52.8663 21.8026 52.8049 21.9454C52.7435 22.0882 52.7166 22.2434 52.7263 22.3985C52.723 22.5576 52.7567 22.7154 52.8246 22.8593C52.8926 23.0033 52.993 23.1295 53.118 23.2281C53.3653 23.4212 53.6724 23.5217 53.986 23.5123" fill="white"/>
<path d="M63.5721 19.6333V18.1738C63.5721 18.074 63.5324 17.9783 63.4618 17.9077C63.3912 17.8371 63.2955 17.7975 63.1957 17.7975H60.9912C60.6389 17.7998 60.2896 17.7346 59.9619 17.6054C59.6706 17.4827 59.4087 17.2994 59.1937 17.0677C58.9714 16.8319 58.8012 16.5519 58.6945 16.2459C58.5746 15.9081 58.5149 15.5519 58.5178 15.1935C58.5139 14.83 58.5736 14.4687 58.6945 14.1258C58.8003 13.8216 58.9706 13.5439 59.1937 13.3116C59.4099 13.087 59.6719 12.9115 59.9619 12.797C60.1493 12.7216 60.3454 12.67 60.5456 12.6434C60.6003 12.6345 60.6563 12.6376 60.7097 12.6524C60.7631 12.6672 60.8126 12.6933 60.855 12.7291C60.8973 12.7648 60.9314 12.8093 60.9549 12.8595C60.9784 12.9097 60.9908 12.9643 60.9912 13.0197V13.9261C60.9912 14.0259 61.0308 14.1217 61.1014 14.1923C61.172 14.2629 61.2677 14.3025 61.3675 14.3025H63.1957C63.2955 14.3025 63.3912 14.2629 63.4618 14.1923C63.5324 14.1217 63.5721 14.0259 63.5721 13.9261V11.1839C63.573 11.1098 63.5524 11.037 63.5129 10.9743C63.4734 10.9116 63.4166 10.8617 63.3493 10.8306C62.6001 10.5296 61.7985 10.3808 60.9912 10.3928C60.2868 10.3851 59.586 10.4941 58.9172 10.7154C58.3302 10.9141 57.7913 11.2333 57.3349 11.6525C56.8788 12.0807 56.5245 12.6056 56.2979 13.1887C56.0403 13.836 55.9124 14.5276 55.9215 15.2243C55.9081 15.9394 56.0387 16.6499 56.3056 17.3135C56.33 17.3702 56.3399 17.4321 56.3342 17.4935C56.3285 17.5549 56.3075 17.6139 56.2731 17.6651C56.2387 17.7163 56.192 17.7581 56.1373 17.7866C56.0826 17.8151 56.0216 17.8294 55.9599 17.8282H53.7401C53.5034 17.8394 53.2669 17.8023 53.045 17.7191C52.8231 17.6359 52.6206 17.5084 52.4496 17.3443C52.2651 17.1213 52.1267 16.8639 52.0423 16.587C51.9579 16.3101 51.9293 16.0192 51.958 15.7312V11.8906C51.958 11.7908 51.9184 11.695 51.8478 11.6245C51.7772 11.5539 51.6815 11.5142 51.5817 11.5142H49.7766C49.6767 11.5142 49.581 11.5539 49.5104 11.6245C49.4398 11.695 49.4002 11.7908 49.4002 11.8906V15.7312C49.3584 16.313 49.4386 16.897 49.6357 17.446C49.8327 17.9949 50.1424 18.4966 50.5447 18.9189C51.4233 19.6913 52.5725 20.0836 53.7401 20.0097H63.1957C63.2955 20.0097 63.3912 19.97 63.4618 19.8994C63.5324 19.8288 63.5721 19.7331 63.5721 19.6333Z" fill="white"/>
<path d="M71.8832 11.6447C71.4142 11.2416 70.868 10.9384 70.2778 10.7537C69.609 10.5324 68.9083 10.4234 68.2039 10.431H66.875C66.7752 10.431 66.6795 10.4707 66.6089 10.5413C66.5383 10.6119 66.4987 10.7076 66.4987 10.8074V12.2745C66.4987 12.3744 66.5383 12.4701 66.6089 12.5407C66.6795 12.6113 66.7752 12.6509 66.875 12.6509H68.2116C68.5632 12.6469 68.9125 12.7095 69.2409 12.8353C69.5304 12.9577 69.7918 13.1381 70.009 13.3653C70.2289 13.6029 70.3987 13.8825 70.5083 14.1872C70.6281 14.5249 70.6879 14.8811 70.6849 15.2395C70.6888 15.6055 70.629 15.9694 70.5083 16.3149C70.4005 16.6182 70.2304 16.8955 70.009 17.1291C69.7954 17.3568 69.5327 17.5329 69.2409 17.6437C68.9125 17.7695 68.5632 17.8321 68.2116 17.8281H65.1391C65.0393 17.8281 64.9435 17.8677 64.8729 17.9383C64.8023 18.0089 64.7627 18.1046 64.7627 18.2044V19.6716C64.7627 19.7714 64.8023 19.8671 64.8729 19.9377C64.9435 20.0083 65.0393 20.0479 65.1391 20.0479H68.2116C68.9159 20.0556 69.6167 19.9466 70.2855 19.7253C70.8793 19.5264 71.4257 19.2074 71.8909 18.7882C72.3459 18.3575 72.7023 17.8335 72.9355 17.252C73.1919 16.6045 73.3172 15.9127 73.3042 15.2164C73.3162 14.5153 73.191 13.8186 72.9355 13.1656C72.7072 12.5815 72.3502 12.0563 71.8909 11.6293" fill="white"/>
<path d="M111.288 19.203C111.575 19.4074 111.887 19.5727 112.217 19.6946C112.804 19.9131 113.427 20.0199 114.053 20.0095C114.135 20.0213 114.218 20.0213 114.299 20.0095C114.347 20.0243 114.397 20.0243 114.445 20.0095C114.944 19.9828 115.436 19.8818 115.904 19.7099C116.411 19.5114 116.869 19.2077 117.249 18.8189C117.619 18.445 117.902 17.9939 118.078 17.4978C118.273 16.9611 118.369 16.3939 118.362 15.8232V8.5568C118.362 8.45698 118.323 8.36124 118.252 8.29066C118.182 8.22007 118.086 8.18042 117.986 8.18042H116.158C116.058 8.18042 115.962 8.22007 115.892 8.29066C115.821 8.36124 115.782 8.45698 115.782 8.5568V15.8616C115.818 16.3819 115.653 16.8963 115.321 17.298C115.066 17.5685 114.722 17.7377 114.353 17.7743H114.261H114.046C113.81 17.7881 113.575 17.7513 113.355 17.6666C113.135 17.5818 112.936 17.4509 112.771 17.2827C112.444 16.878 112.282 16.365 112.317 15.8463V10.7536C112.317 10.6538 112.278 10.5581 112.207 10.4875C112.136 10.4169 112.041 10.3773 111.941 10.3773H110.128C110.028 10.3773 109.933 10.4169 109.862 10.4875C109.791 10.5581 109.752 10.6538 109.752 10.7536V15.7234C109.798 16.2803 109.621 16.8327 109.26 17.2596C109.097 17.4254 108.9 17.5549 108.683 17.6396C108.466 17.7243 108.233 17.7623 108 17.7512C107.762 17.7635 107.523 17.7261 107.3 17.6415C107.076 17.5569 106.873 17.4269 106.702 17.2596C106.353 16.8273 106.183 16.2775 106.226 15.7234V10.7536C106.226 10.6538 106.186 10.5581 106.116 10.4875C106.045 10.4169 105.95 10.3773 105.85 10.3773H104.037C103.937 10.3773 103.841 10.4169 103.771 10.4875C103.7 10.5581 103.661 10.6538 103.661 10.7536V15.7234C103.708 16.2793 103.535 16.8316 103.177 17.2596C103.012 17.4247 102.816 17.5536 102.599 17.6382C102.382 17.7229 102.15 17.7614 101.917 17.7512C101.678 17.7635 101.44 17.7261 101.216 17.6415C100.993 17.5569 100.789 17.4269 100.619 17.2596C100.269 16.8273 100.099 16.2775 100.143 15.7234V10.7536C100.143 10.6538 100.103 10.5581 100.032 10.4875C99.9618 10.4169 99.866 10.3773 99.7662 10.3773H97.9534C97.8536 10.3773 97.7579 10.4169 97.6873 10.4875C97.6167 10.5581 97.577 10.6538 97.577 10.7536V15.8309C97.6138 16.3512 97.4488 16.8656 97.1162 17.2673C96.8605 17.535 96.5169 17.7014 96.1483 17.7359C96.1047 17.7431 96.063 17.7587 96.0254 17.782H95.8334H91.5242C91.1696 17.7836 90.8178 17.7184 90.4873 17.5899C90.1954 17.4718 89.9331 17.2909 89.7191 17.0599C89.4968 16.8241 89.3266 16.5441 89.2199 16.238C89.1 15.9002 89.0403 15.5441 89.0432 15.1857C89.0393 14.8222 89.099 14.4609 89.2199 14.118C89.3257 13.8138 89.496 13.5361 89.7191 13.3038C89.9371 13.0794 90.1984 12.9016 90.4873 12.7815C90.6887 12.7087 90.8973 12.6572 91.1094 12.6279C91.1622 12.6212 91.2159 12.626 91.2666 12.642C91.3174 12.658 91.364 12.6848 91.4034 12.7206C91.4429 12.7564 91.4741 12.8002 91.4949 12.8492C91.5158 12.8981 91.5258 12.951 91.5242 13.0042V13.9183C91.5242 14.0181 91.5639 14.1139 91.6345 14.1844C91.7051 14.255 91.8008 14.2947 91.9006 14.2947H93.7287C93.8286 14.2947 93.9243 14.255 93.9949 14.1844C94.0655 14.1139 94.1051 14.0181 94.1051 13.9183V11.1838C94.1076 11.1103 94.0876 11.0379 94.0478 10.9761C94.008 10.9144 93.9503 10.8662 93.8824 10.8381C93.7857 10.7918 93.6856 10.7533 93.5828 10.7229C92.9208 10.4947 92.2244 10.383 91.5242 10.3926C90.8206 10.3863 90.1204 10.4926 89.4503 10.7075C88.8584 10.9093 88.3145 11.2309 87.8526 11.6523C87.3935 12.0795 87.0365 12.6046 86.808 13.1886C86.5465 13.8348 86.4185 14.5272 86.4316 15.2241C86.4179 15.9261 86.5459 16.6236 86.808 17.275C86.8836 17.4633 86.9735 17.6457 87.0768 17.8204H86.4316C86.1957 17.8332 85.9598 17.7952 85.7398 17.7091C85.5199 17.623 85.321 17.4907 85.1565 17.3211C84.8257 16.9217 84.6631 16.4094 84.7033 15.8924V15.2164C84.7139 14.519 84.5833 13.8265 84.3192 13.1809C84.0907 12.5988 83.7366 12.0743 83.2823 11.6447C82.817 11.2237 82.2708 10.9022 81.6769 10.6999C81.0094 10.485 80.3118 10.3787 79.6106 10.3849C78.9081 10.3761 78.2092 10.4878 77.5444 10.7152C76.9457 10.9119 76.3957 11.234 75.9313 11.66C75.4674 12.0847 75.1074 12.6103 74.879 13.1963C74.6254 13.8418 74.5001 14.5306 74.5103 15.2241C74.4983 15.9252 74.6235 16.6219 74.879 17.275C75.1023 17.8637 75.4631 18.3904 75.9313 18.8112C76.3982 19.2321 76.9475 19.5512 77.5444 19.7484C78.8883 20.1787 80.333 20.1787 81.6769 19.7484L82.107 19.5794C82.1069 20.0276 81.9461 20.4609 81.6539 20.8007C81.4014 21.0695 81.0605 21.2386 80.6937 21.2769C80.6042 21.2933 80.5235 21.3409 80.4658 21.4112C80.4081 21.4815 80.3773 21.57 80.3788 21.661V23.1588C80.3776 23.2109 80.3873 23.2626 80.4071 23.3108C80.427 23.3589 80.4566 23.4024 80.4942 23.4385C80.5317 23.4746 80.5764 23.5025 80.6252 23.5205C80.6741 23.5385 80.7262 23.5461 80.7782 23.5429C81.269 23.5133 81.7529 23.4124 82.2146 23.2433C82.7388 23.0262 83.2083 22.6957 83.5895 22.2755C83.96 21.9016 84.2433 21.4504 84.4191 20.9543C84.5176 20.6881 84.5897 20.4128 84.6342 20.1324C84.6442 20.0812 84.6644 20.0325 84.6935 19.9892C84.7226 19.9459 84.7601 19.9088 84.8038 19.8802C84.8474 19.8516 84.8964 19.8319 84.9477 19.8225C84.999 19.813 85.0517 19.814 85.1027 19.8252C85.5301 19.9296 85.9686 19.9812 86.4085 19.9788C86.4877 19.9867 86.5675 19.9867 86.6467 19.9788C86.6924 19.9868 86.7392 19.9868 86.7849 19.9788H95.8104C95.9023 19.9871 95.9949 19.9871 96.0869 19.9788H96.2021C96.6988 19.9504 97.1883 19.8468 97.6539 19.6715C97.9776 19.5491 98.2847 19.3866 98.5679 19.1876C98.6356 19.1371 98.7178 19.1098 98.8022 19.1098C98.8866 19.1098 98.9688 19.1371 99.0365 19.1876C99.3498 19.4168 99.6971 19.5957 100.066 19.7176C100.657 19.9016 101.274 19.9898 101.894 19.9788C102.507 19.9878 103.117 19.8944 103.699 19.7023C104.048 19.5832 104.377 19.4123 104.674 19.1953C104.74 19.1442 104.822 19.1165 104.905 19.1165C104.988 19.1165 105.069 19.1442 105.135 19.1953C105.445 19.418 105.787 19.5916 106.149 19.7099C106.758 19.8992 107.394 19.9874 108.031 19.9711C108.647 19.9802 109.259 19.8867 109.844 19.6946C110.202 19.5709 110.539 19.3921 110.843 19.1646C110.911 19.1163 110.993 19.0904 111.077 19.0904C111.161 19.0904 111.242 19.1163 111.311 19.1646M81.915 16.2457C81.8082 16.5517 81.6381 16.8318 81.4157 17.0676C81.2031 17.3001 80.9405 17.4813 80.6476 17.5976C80.3171 17.7261 79.9653 17.7912 79.6106 17.7896C79.266 17.7913 78.9242 17.7261 78.6044 17.5976C78.313 17.4786 78.0509 17.2978 77.8363 17.0676C77.6076 16.8324 77.4298 16.5526 77.314 16.2457C77.1874 15.9095 77.1249 15.5526 77.1296 15.1934C77.1255 14.8392 77.1881 14.4875 77.314 14.1564C77.4319 13.8523 77.6065 13.5734 77.8286 13.3345C78.0462 13.1058 78.3074 12.923 78.5967 12.7968C78.9225 12.6711 79.2692 12.6085 79.6183 12.6125C79.97 12.6085 80.3192 12.671 80.6476 12.7968C80.938 12.9105 81.2002 13.0861 81.4157 13.3115C81.6389 13.5437 81.8092 13.8215 81.915 14.1257C82.0358 14.4685 82.0956 14.8299 82.0917 15.1934C82.0946 15.5518 82.0348 15.9079 81.915 16.2457Z" fill="white"/>
<path d="M122.011 19.6256V8.54923C122.011 8.44941 121.971 8.35368 121.901 8.28309C121.83 8.21251 121.734 8.17285 121.635 8.17285H119.968C119.868 8.17285 119.772 8.21251 119.702 8.28309C119.631 8.35368 119.591 8.44941 119.591 8.54923V19.6256C119.591 19.7254 119.631 19.8211 119.702 19.8917C119.772 19.9623 119.868 20.0019 119.968 20.0019H121.635C121.734 20.0019 121.83 19.9623 121.901 19.8917C121.971 19.8211 122.011 19.7254 122.011 19.6256Z" fill="white"/>
<path d="M132.119 20.0097H141.575C141.675 20.0097 141.771 19.97 141.841 19.8994C141.912 19.8288 141.951 19.7331 141.951 19.6333V18.1738C141.951 18.074 141.912 17.9783 141.841 17.9077C141.771 17.8371 141.675 17.7975 141.575 17.7975H139.371C139.018 17.8036 138.668 17.7383 138.341 17.6054C138.05 17.4827 137.788 17.2994 137.573 17.0677C137.351 16.8319 137.181 16.5519 137.074 16.2459C136.954 15.9081 136.894 15.5519 136.897 15.1935C136.893 14.83 136.953 14.4687 137.074 14.1258C137.18 13.8216 137.35 13.5439 137.573 13.3116C137.789 13.087 138.051 12.9115 138.341 12.797C138.528 12.7204 138.725 12.6687 138.925 12.6434C138.98 12.6345 139.036 12.6376 139.089 12.6524C139.142 12.6672 139.192 12.6933 139.234 12.7291C139.277 12.7648 139.311 12.8093 139.334 12.8595C139.358 12.9097 139.37 12.9643 139.371 13.0197V13.9261C139.371 13.9756 139.38 14.0245 139.399 14.0702C139.418 14.1158 139.446 14.1573 139.481 14.1923C139.516 14.2272 139.557 14.2549 139.603 14.2739C139.649 14.2928 139.697 14.3025 139.747 14.3025H141.575C141.675 14.3025 141.771 14.2629 141.841 14.1923C141.912 14.1217 141.951 14.0259 141.951 13.9261V11.1839C141.952 11.1098 141.932 11.037 141.892 10.9743C141.853 10.9116 141.796 10.8617 141.729 10.8306C140.979 10.5296 140.178 10.3808 139.371 10.3928C138.666 10.3846 137.965 10.4936 137.297 10.7154C136.699 10.9102 136.149 11.2296 135.684 11.6525C135.227 12.0807 134.873 12.6056 134.647 13.1887C134.39 13.8365 134.26 14.5275 134.263 15.2243C134.252 15.9399 134.385 16.6505 134.654 17.3135C134.679 17.3702 134.689 17.4321 134.683 17.4935C134.677 17.5549 134.656 17.6139 134.622 17.6651C134.587 17.7163 134.541 17.7581 134.486 17.7866C134.431 17.8151 134.37 17.8294 134.309 17.8282H132.112C131.875 17.8394 131.639 17.8023 131.417 17.7191C131.195 17.6359 130.992 17.5084 130.821 17.3443C130.459 16.9004 130.285 16.3324 130.337 15.7619V11.9213C130.337 11.8719 130.328 11.823 130.309 11.7773C130.29 11.7316 130.262 11.6901 130.227 11.6552C130.192 11.6202 130.151 11.5925 130.105 11.5736C130.059 11.5547 130.01 11.5449 129.961 11.5449H128.156C128.056 11.5449 127.96 11.5846 127.89 11.6552C127.819 11.7258 127.78 11.8215 127.78 11.9213V15.7619C127.738 16.3437 127.818 16.9278 128.015 17.4767C128.212 18.0257 128.522 18.5274 128.924 18.9496C129.359 19.3328 129.865 19.6264 130.413 19.8136C130.961 20.0008 131.541 20.0779 132.119 20.0404" fill="white"/>
<path d="M157.083 10.1084C157.329 10.3039 157.637 10.4048 157.951 10.3926C158.173 10.3978 158.393 10.3496 158.592 10.252C158.791 10.1544 158.964 10.0103 159.096 9.83191C159.136 9.7824 159.165 9.72473 159.18 9.66292C159.252 9.45181 159.257 9.22376 159.196 9.00951C159.134 8.79526 159.008 8.60511 158.835 8.46465C158.578 8.27783 158.269 8.17821 157.951 8.18045C157.639 8.17192 157.333 8.26939 157.083 8.45697C156.955 8.55094 156.851 8.67498 156.781 8.81826C156.712 8.96153 156.678 9.11967 156.684 9.27886C156.678 9.43914 156.712 9.59836 156.781 9.74286C156.851 9.88735 156.955 10.0128 157.083 10.1084Z" fill="white"/>
<path d="M154.011 10.1086C154.255 10.3029 154.56 10.4037 154.871 10.3928C155.096 10.4003 155.32 10.3523 155.522 10.2532C155.724 10.1541 155.899 10.0068 156.031 9.82435C156.067 9.77632 156.093 9.72145 156.108 9.66304C156.18 9.45193 156.185 9.22388 156.123 9.00963C156.061 8.79538 155.935 8.60523 155.762 8.46477C155.504 8.27638 155.191 8.17668 154.871 8.18057C154.561 8.17318 154.258 8.27062 154.011 8.45709C153.882 8.55106 153.779 8.6751 153.709 8.81838C153.639 8.96165 153.606 9.11979 153.611 9.27898C153.606 9.43926 153.639 9.59848 153.709 9.74298C153.779 9.88747 153.882 10.0129 154.011 10.1086Z" fill="white"/>
<path d="M162.453 10.3927C162.68 10.3984 162.905 10.3482 163.109 10.2464C163.313 10.1446 163.488 9.9944 163.62 9.80897C163.655 9.75723 163.681 9.70014 163.697 9.63998C163.77 9.4288 163.774 9.19997 163.709 8.98615C163.645 8.77233 163.514 8.58447 163.336 8.44939C163.08 8.2557 162.766 8.15298 162.445 8.1575C162.133 8.15135 161.828 8.24858 161.577 8.43403C161.451 8.52973 161.349 8.65431 161.281 8.79731C161.213 8.94032 161.18 9.09758 161.185 9.25592C161.181 9.41525 161.214 9.57341 161.282 9.71754C161.35 9.86168 161.451 9.98774 161.577 10.0855C161.824 10.2786 162.131 10.3792 162.445 10.3697" fill="white"/>
<path d="M179.129 20.0095C179.215 20.0212 179.303 20.0212 179.39 20.0095C179.433 20.0213 179.478 20.0213 179.52 20.0095C180.017 19.9836 180.506 19.8826 180.972 19.7099C181.483 19.5198 181.947 19.221 182.332 18.8343C182.702 18.4604 182.986 18.0092 183.161 17.5131C183.356 16.9765 183.452 16.4093 183.446 15.8386V8.5568C183.446 8.45698 183.406 8.36124 183.335 8.29066C183.265 8.22007 183.169 8.18042 183.069 8.18042H181.241C181.141 8.18042 181.045 8.22007 180.975 8.29066C180.904 8.36124 180.865 8.45698 180.865 8.5568V15.8616C180.901 16.3819 180.736 16.8963 180.404 17.298C180.149 17.5685 179.805 17.7377 179.436 17.7743L179.328 17.8127H179.129C178.892 17.8251 178.655 17.787 178.434 17.7009C178.212 17.6149 178.012 17.4828 177.846 17.3134C177.512 16.9152 177.347 16.4027 177.385 15.8847V15.2087C177.395 14.5128 177.27 13.8215 177.016 13.1732C176.782 12.5923 176.426 12.0684 175.972 11.637C175.513 11.2337 174.973 10.9326 174.389 10.7536C173.725 10.5262 173.026 10.4145 172.323 10.4233C171.618 10.4119 170.916 10.5237 170.249 10.7536C169.65 10.9551 169.099 11.2766 168.628 11.6984C168.168 12.1248 167.811 12.6501 167.584 13.2347C167.32 13.8722 167.189 14.5571 167.2 15.2472V15.9231C167.237 16.4397 167.075 16.9509 166.747 17.3518C166.494 17.6207 166.153 17.7897 165.786 17.828C165.747 17.8362 165.708 17.8491 165.671 17.8664H165.471C165.237 17.8782 165.002 17.8397 164.784 17.7536C164.565 17.6675 164.368 17.5357 164.204 17.3672C163.87 16.969 163.705 16.4565 163.743 15.9385V11.8828C163.743 11.783 163.704 11.6872 163.633 11.6166C163.562 11.546 163.467 11.5064 163.367 11.5064H161.569C161.47 11.5064 161.374 11.546 161.303 11.6166C161.233 11.6872 161.193 11.783 161.193 11.8828V15.7234C161.239 16.2778 161.068 16.8284 160.717 17.2596C160.46 17.5209 160.121 17.6862 159.757 17.7282C159.707 17.7359 159.66 17.7542 159.618 17.782H159.457C159.222 17.7947 158.988 17.7566 158.769 17.6705C158.55 17.5843 158.353 17.4521 158.19 17.2827C157.856 16.8845 157.691 16.372 157.729 15.854V11.8828C157.729 11.8333 157.719 11.7844 157.7 11.7387C157.681 11.6931 157.653 11.6516 157.619 11.6166C157.584 11.5817 157.542 11.554 157.496 11.535C157.451 11.5161 157.402 11.5064 157.352 11.5064H155.54C155.44 11.5064 155.344 11.546 155.273 11.6166C155.203 11.6872 155.163 11.783 155.163 11.8828V15.7234C155.211 16.2793 155.037 16.8316 154.679 17.2596C154.425 17.5208 154.089 17.6863 153.727 17.7282C153.681 17.7353 153.637 17.751 153.596 17.7743H153.42C153.185 17.7875 152.951 17.7504 152.733 17.6656C152.514 17.5808 152.316 17.4503 152.152 17.2827C151.82 16.881 151.655 16.3665 151.691 15.8463V15.1857C151.705 14.4837 151.577 13.7862 151.315 13.1348C151.091 12.5487 150.733 12.0227 150.27 11.5986C149.806 11.1777 149.26 10.8585 148.665 10.6615C147.998 10.4459 147.3 10.3396 146.599 10.3465H145.27C145.22 10.3465 145.17 10.3565 145.124 10.3759C145.078 10.3953 145.036 10.4237 145.001 10.4595C144.966 10.4952 144.938 10.5376 144.92 10.5842C144.901 10.6307 144.892 10.6805 144.893 10.7306V12.19C144.893 12.2898 144.933 12.3856 145.004 12.4562C145.074 12.5267 145.17 12.5664 145.27 12.5664H146.606C146.958 12.5631 147.307 12.6256 147.636 12.7508C147.925 12.8743 148.186 13.0545 148.404 13.2808C148.624 13.5184 148.793 13.7979 148.903 14.1026C149.023 14.4404 149.083 14.7966 149.08 15.155C149.084 15.521 149.024 15.8848 148.903 16.2303C148.79 16.5172 148.62 16.7784 148.404 16.9985C148.191 17.2295 147.929 17.4082 147.636 17.5208C147.307 17.6459 146.958 17.7084 146.606 17.7051H143.534C143.434 17.7051 143.338 17.7448 143.268 17.8154C143.197 17.886 143.157 17.9817 143.157 18.0815V19.5486C143.157 19.6485 143.197 19.7442 143.268 19.8148C143.338 19.8854 143.434 19.925 143.534 19.925H146.568C147.27 19.9332 147.968 19.8242 148.634 19.6024C149.201 19.416 149.724 19.1153 150.17 18.7191C150.555 19.1058 151.019 19.4046 151.53 19.5947C152.11 19.8096 152.724 19.9163 153.343 19.9097C153.441 19.9092 153.539 19.8963 153.635 19.8713C153.668 19.8788 153.702 19.8788 153.735 19.8713C154.218 19.8524 154.697 19.7644 155.156 19.6101C155.511 19.4828 155.847 19.307 156.154 19.0878C156.221 19.0361 156.304 19.008 156.388 19.008C156.473 19.008 156.556 19.0361 156.623 19.0878C156.908 19.2962 157.221 19.4642 157.552 19.587C158.128 19.7976 158.736 19.9042 159.35 19.902H159.495C159.591 19.9011 159.687 19.8882 159.78 19.8636C159.812 19.8714 159.847 19.8714 159.88 19.8636C160.361 19.8447 160.837 19.7568 161.293 19.6024C161.649 19.4767 161.985 19.3009 162.291 19.0801C162.36 19.0278 162.443 18.9994 162.53 18.9994C162.616 18.9994 162.699 19.0278 162.768 19.0801C163.05 19.2885 163.36 19.4566 163.689 19.5794C164.268 19.7907 164.879 19.8973 165.494 19.8943H165.541C165.625 19.9056 165.71 19.9056 165.794 19.8943C165.837 19.9061 165.882 19.9061 165.925 19.8943C166.419 19.8726 166.907 19.7715 167.369 19.5947C167.865 19.4303 168.322 19.1663 168.713 18.8189C169.162 19.2097 169.684 19.5073 170.249 19.6946C170.912 19.9165 171.608 20.0256 172.308 20.0172C173.01 20.0248 173.708 19.9158 174.374 19.6946C174.941 19.5108 175.463 19.2128 175.91 18.8189C176.296 19.2074 176.763 19.5063 177.277 19.6946C177.86 19.9088 178.477 20.0155 179.098 20.0095M174.612 16.2457C174.505 16.5517 174.335 16.8318 174.113 17.0676C173.9 17.2993 173.637 17.4804 173.345 17.5976C173.017 17.7268 172.668 17.7919 172.315 17.7896C171.971 17.7913 171.629 17.7261 171.309 17.5976C171.019 17.4767 170.757 17.2962 170.541 17.0676C170.312 16.8324 170.135 16.5526 170.019 16.2457C169.892 15.9095 169.83 15.5526 169.834 15.1934C169.83 14.8392 169.893 14.4875 170.019 14.1564C170.136 13.8541 170.31 13.5775 170.533 13.3422C170.746 13.1057 171.008 12.9194 171.301 12.7968C171.625 12.671 171.969 12.6084 172.315 12.6125C172.667 12.6077 173.017 12.6703 173.345 12.7968C173.636 12.9086 173.899 13.0845 174.113 13.3115C174.336 13.5437 174.506 13.8215 174.612 14.1257C174.739 14.4672 174.801 14.8292 174.796 15.1934C174.799 15.5518 174.74 15.9079 174.62 16.2457" fill="white"/>
<path d="M186.733 8.17285H185.066C184.966 8.17285 184.871 8.21251 184.8 8.28309C184.729 8.35368 184.69 8.44941 184.69 8.54923V19.6256C184.69 19.7254 184.729 19.8211 184.8 19.8917C184.871 19.9623 184.966 20.0019 185.066 20.0019H186.733C186.833 20.0019 186.928 19.9623 186.999 19.8917C187.07 19.8211 187.109 19.7254 187.109 19.6256V8.54923C187.109 8.44941 187.07 8.35368 186.999 8.28309C186.928 8.21251 186.833 8.17285 186.733 8.17285Z" fill="white"/>
<path d="M5.51738 32.5146C4.95636 32.3392 4.4196 32.0941 3.91968 31.7849C3.79028 31.704 3.68451 31.5903 3.61303 31.4555C3.54156 31.3206 3.50691 31.1693 3.51258 31.0168C3.51258 30.3331 4.01186 29.9952 5.04882 29.9952C5.93771 30.0261 6.8152 30.2052 7.64508 30.5252C7.72 30.5519 7.80128 30.5552 7.87811 30.5346C7.95495 30.514 8.0237 30.4706 8.07523 30.41L8.89712 29.3346C8.92591 29.2984 8.94618 29.2563 8.95642 29.2112C8.96667 29.1662 8.96662 29.1194 8.95628 29.0744C8.94595 29.0294 8.92559 28.9872 8.89673 28.9512C8.86787 28.9151 8.83124 28.886 8.78958 28.866C7.6651 28.2305 6.39421 27.8996 5.10259 27.9059C4.01713 27.8359 2.93845 28.1217 2.0301 28.7201C1.65591 28.9751 1.35113 29.3193 1.14327 29.7216C0.935413 30.124 0.831016 30.5717 0.839508 31.0245C0.839508 32.6221 1.98145 33.7923 4.26534 34.5348C5.76318 35.0264 6.51594 35.541 6.51594 36.071C6.51594 36.9697 5.86303 37.4229 4.5649 37.4229C3.64979 37.456 2.73962 37.2745 1.9072 36.8929C1.83016 36.8531 1.74193 36.8406 1.65685 36.8573C1.57178 36.8741 1.49487 36.9191 1.43864 36.9851L0.632115 38.0374C0.603536 38.0747 0.583661 38.1179 0.573946 38.1639C0.564231 38.2098 0.564922 38.2574 0.57597 38.3031C0.587017 38.3487 0.60814 38.3913 0.637791 38.4278C0.667442 38.4642 0.704871 38.4935 0.747333 38.5136C2.02997 39.2631 3.47952 39.6803 4.96433 39.7273C6.01877 39.768 7.06229 39.5012 7.96769 38.9592C8.43785 38.6736 8.82273 38.2671 9.08215 37.782C9.34157 37.297 9.46601 36.7512 9.44248 36.2016C9.44404 35.8074 9.36201 35.4174 9.2018 35.0573C9.04159 34.6972 8.80685 34.3751 8.51306 34.1123C7.63445 33.3802 6.61482 32.8364 5.51738 32.5146Z" fill="white"/>
<path d="M17.6614 28.1286C17.6311 28.0608 17.5813 28.0034 17.5185 27.9638C17.4556 27.9241 17.3824 27.904 17.3081 27.9059H15.4338C15.3595 27.904 15.2863 27.9241 15.2234 27.9638C15.1606 28.0034 15.1108 28.0608 15.0805 28.1286L10.5255 39.2664C10.5061 39.3208 10.5006 39.3792 10.5095 39.4363C10.5185 39.4933 10.5416 39.5472 10.5767 39.5931C10.6119 39.6389 10.6579 39.6752 10.7107 39.6987C10.7635 39.7221 10.8213 39.7319 10.8789 39.7273H12.9528C13.0295 39.7313 13.1055 39.7112 13.1702 39.6699C13.2349 39.6286 13.2851 39.5681 13.3138 39.4969C13.5289 38.9054 13.7593 38.2525 14.0128 37.5612C14.0412 37.4892 14.0911 37.4277 14.1557 37.3851C14.2203 37.3425 14.2965 37.3208 14.3738 37.3231H18.3373C18.4167 37.3209 18.4947 37.3434 18.5607 37.3874C18.6267 37.4314 18.6775 37.4948 18.706 37.5689C18.9518 38.337 19.1669 38.9745 19.3666 39.4969C19.3949 39.5668 19.4439 39.6264 19.5071 39.6676C19.5703 39.7088 19.6446 39.7296 19.72 39.7273H21.863C21.9206 39.7319 21.9784 39.7221 22.0312 39.6987C22.084 39.6752 22.1301 39.6389 22.1652 39.5931C22.2003 39.5472 22.2234 39.4933 22.2324 39.4363C22.2413 39.3792 22.2358 39.3208 22.2164 39.2664L17.6614 28.1286ZM17.2697 35.1493H15.4723C15.4156 35.1534 15.3588 35.1435 15.3068 35.1205C15.2549 35.0974 15.2095 35.0619 15.1745 35.0171C15.1396 34.9723 15.1162 34.9195 15.1065 34.8635C15.0968 34.8076 15.1011 34.75 15.1189 34.6961C15.4799 33.7436 15.7795 32.9525 16.0253 32.3226C16.0563 32.2538 16.1065 32.1954 16.1698 32.1545C16.2332 32.1135 16.307 32.0917 16.3825 32.0917C16.4579 32.0917 16.5318 32.1135 16.5951 32.1545C16.6585 32.1954 16.7087 32.2538 16.7397 32.3226C16.9855 33.0062 17.285 33.7974 17.623 34.6884C17.6408 34.7424 17.6451 34.7999 17.6354 34.8559C17.6257 34.9118 17.6023 34.9646 17.5674 35.0094C17.5325 35.0542 17.487 35.0897 17.4351 35.1128C17.3831 35.1358 17.3263 35.1457 17.2697 35.1416" fill="white"/>
<path d="M33.1083 27.9058H31.0344C30.9877 27.9027 30.9409 27.909 30.8968 27.9245C30.8527 27.94 30.8122 27.9643 30.7777 27.9959C30.7432 28.0275 30.7155 28.0657 30.6963 28.1083C30.677 28.151 30.6666 28.197 30.6657 28.2438V34.9418C30.6657 36.6931 29.9334 37.5688 28.4689 37.5688C27.0555 37.5688 26.3412 36.6931 26.3412 34.9418V28.2438C26.3402 28.197 26.3298 28.151 26.3106 28.1083C26.2913 28.0657 26.2636 28.0275 26.2291 27.9959C26.1947 27.9643 26.1542 27.94 26.11 27.9245C26.0659 27.909 26.0191 27.9027 25.9725 27.9058H23.8371C23.79 27.9027 23.7429 27.909 23.6983 27.9244C23.6538 27.9398 23.6127 27.964 23.5777 27.9955C23.5426 28.027 23.5142 28.0652 23.4941 28.1078C23.474 28.1504 23.4626 28.1967 23.4607 28.2438V34.6346C23.4607 38.0297 25.1301 39.7272 28.4689 39.7272C31.8076 39.7272 33.4924 38.0297 33.5231 34.6346V28.2438C33.5212 28.1967 33.5098 28.1504 33.4897 28.1078C33.4696 28.0652 33.4412 28.027 33.4061 27.9955C33.3711 27.964 33.33 27.9398 33.2855 27.9244C33.2409 27.909 33.1938 27.9027 33.1467 27.9058" fill="white"/>
<path d="M40.1137 27.8982C39.5683 27.8982 38.8847 27.8982 38.0705 27.9827C37.5482 27.9827 37.1564 28.0518 36.903 28.0825C36.8187 28.0902 36.7405 28.1292 36.6836 28.1918C36.6267 28.2543 36.5954 28.336 36.5957 28.4205V39.2203C36.5986 39.3019 36.6303 39.3798 36.6851 39.4402C36.7399 39.5007 36.8144 39.5398 36.8953 39.5506C37.8834 39.6785 38.8793 39.7375 39.8756 39.7273C41.6642 39.8368 43.438 39.3447 44.9145 38.3293C45.5838 37.7713 46.1115 37.0629 46.4546 36.2619C46.7977 35.4608 46.9464 34.59 46.8886 33.7206C46.9195 32.9851 46.7992 32.2511 46.5349 31.564C46.2707 30.877 45.8682 30.2515 45.3523 29.7263C44.1387 28.5281 42.395 27.9212 40.1137 27.9212M40.2673 37.7763H40.1675C40.0165 37.7847 39.8652 37.7847 39.7143 37.7763C39.6293 37.7706 39.5493 37.7338 39.4897 37.6729C39.4302 37.6119 39.3953 37.5311 39.3917 37.446V30.2871C39.3954 30.2027 39.4306 30.1228 39.4903 30.0631C39.55 30.0034 39.6299 29.9682 39.7143 29.9644C39.8395 29.9545 39.9654 29.9545 40.0907 29.9644H40.2136C41.124 29.9224 42.0198 30.2056 42.7407 30.7633C43.1598 31.1439 43.4869 31.6148 43.6971 32.1405C43.9074 32.6661 43.9953 33.2327 43.9543 33.7974C43.9543 36.45 42.7253 37.7763 40.2673 37.7763Z" fill="white"/>
<path d="M51.8352 27.9059H49.7382C49.6437 27.9017 49.5513 27.9347 49.4809 27.9979C49.4105 28.0611 49.3678 28.1494 49.3618 28.2438V39.3893C49.3678 39.4837 49.4105 39.572 49.4809 39.6352C49.5513 39.6984 49.6437 39.7315 49.7382 39.7273H51.8352C51.9297 39.7315 52.0221 39.6984 52.0925 39.6352C52.1628 39.572 52.2056 39.4837 52.2116 39.3893V28.2438C52.2056 28.1494 52.1628 28.0611 52.0925 27.9979C52.0221 27.9347 51.9297 27.9017 51.8352 27.9059Z" fill="white"/>
<path d="M73.934 27.9059H70.3085C70.2309 27.9025 70.1542 27.9237 70.0894 27.9664C70.0246 28.0092 69.9749 28.0713 69.9475 28.144C68.9489 30.9092 68.0809 33.5209 67.3205 35.9558C67.3021 35.9987 67.2716 36.0352 67.2327 36.0609C67.1938 36.0866 67.1482 36.1002 67.1016 36.1002C67.055 36.1002 67.0094 36.0866 66.9704 36.0609C66.9315 36.0352 66.901 35.9987 66.8827 35.9558C66.1504 33.4056 65.2722 30.7991 64.248 28.1363C64.2197 28.0664 64.1707 28.0068 64.1075 27.9656C64.0444 27.9244 63.9701 27.9035 63.8947 27.9059H60.4074C60.3129 27.9017 60.2205 27.9347 60.1501 27.9979C60.0797 28.0611 60.037 28.1494 60.031 28.2438V39.3893C60.037 39.4837 60.0797 39.572 60.1501 39.6352C60.2205 39.6984 60.3129 39.7315 60.4074 39.7273H62.5044C62.5514 39.7304 62.5986 39.7241 62.6431 39.7087C62.6877 39.6933 62.7287 39.6691 62.7638 39.6376C62.7989 39.6061 62.8273 39.5679 62.8474 39.5253C62.8674 39.4826 62.8788 39.4364 62.8807 39.3893V32.0307C62.8877 31.9795 62.9116 31.9321 62.9488 31.8962C62.9859 31.8602 63.034 31.8378 63.0854 31.8325C63.1368 31.8271 63.1885 31.8393 63.2321 31.8668C63.2758 31.8944 63.309 31.9359 63.3263 31.9846C63.8383 33.8793 64.6679 36.3808 65.815 39.4892C65.8414 39.5625 65.8908 39.6253 65.9559 39.6683C66.0209 39.7112 66.0982 39.7319 66.176 39.7273H68.0886C68.1653 39.7312 68.2413 39.7112 68.306 39.6699C68.3707 39.6286 68.4209 39.5681 68.4496 39.4968C69.4738 36.6855 70.3085 34.1251 70.9537 31.8156C70.9679 31.7619 71.001 31.7151 71.0469 31.6839C71.0928 31.6526 71.1485 31.639 71.2037 31.6456C71.2588 31.6521 71.3098 31.6784 71.3471 31.7195C71.3845 31.7606 71.4057 31.8139 71.4069 31.8694V39.397C71.4128 39.4914 71.4556 39.5797 71.526 39.6429C71.5964 39.7061 71.6888 39.7392 71.7833 39.735H73.9417C74.0362 39.7392 74.1286 39.7061 74.199 39.6429C74.2694 39.5797 74.3121 39.4914 74.3181 39.397V28.2438C74.3121 28.1494 74.2694 28.0611 74.199 27.9979C74.1286 27.9347 74.0362 27.9017 73.9417 27.9059" fill="white"/>
<path d="M85.7556 37.4536H80.5554C80.5089 37.4567 80.4624 37.4506 80.4183 37.4357C80.3742 37.4208 80.3335 37.3973 80.2986 37.3666C80.2636 37.3359 80.235 37.2986 80.2145 37.2569C80.194 37.2151 80.1819 37.1697 80.179 37.1233V34.8957C80.1849 34.8013 80.2277 34.713 80.2981 34.6498C80.3685 34.5866 80.4609 34.5535 80.5554 34.5577H84.5342C84.5807 34.5609 84.6273 34.5548 84.6713 34.5399C84.7154 34.525 84.7561 34.5015 84.791 34.4708C84.826 34.4401 84.8546 34.4028 84.8751 34.361C84.8956 34.3193 84.9077 34.2739 84.9106 34.2275V32.8448C84.9087 32.7977 84.8973 32.7515 84.8772 32.7089C84.8572 32.6662 84.8287 32.628 84.7937 32.5965C84.7586 32.565 84.7176 32.5409 84.673 32.5255C84.6285 32.5101 84.5813 32.5037 84.5342 32.5069H80.5554C80.4609 32.5111 80.3685 32.478 80.2981 32.4148C80.2277 32.3516 80.1849 32.2633 80.179 32.1689V30.2947C80.1849 30.2002 80.2277 30.1119 80.2981 30.0487C80.3685 29.9855 80.4609 29.9525 80.5554 29.9567H85.4867C85.5338 29.9598 85.5809 29.9535 85.6255 29.9381C85.67 29.9227 85.7111 29.8985 85.7461 29.867C85.7812 29.8355 85.8096 29.7973 85.8297 29.7547C85.8498 29.712 85.8612 29.6658 85.8631 29.6187V28.2438C85.8612 28.1967 85.8498 28.1504 85.8297 28.1078C85.8096 28.0652 85.7812 28.027 85.7461 27.9955C85.7111 27.964 85.67 27.9398 85.6255 27.9244C85.5809 27.909 85.5338 27.9027 85.4867 27.9058H77.721C77.6746 27.9037 77.6282 27.9108 77.5846 27.9267C77.5409 27.9426 77.5008 27.9669 77.4666 27.9983C77.4323 28.0297 77.4046 28.0676 77.385 28.1097C77.3654 28.1518 77.3543 28.1974 77.3523 28.2438V39.1742C77.3582 39.2672 77.3999 39.3543 77.4686 39.4173C77.5374 39.4803 77.6278 39.5143 77.721 39.5121H85.7556C85.8488 39.5143 85.9392 39.4803 86.0079 39.4173C86.0766 39.3543 86.1183 39.2672 86.1243 39.1742V37.7915C86.1183 37.6985 86.0766 37.6114 86.0079 37.5484C85.9392 37.4854 85.8488 37.4514 85.7556 37.4536Z" fill="white"/>
<path d="M92.2617 27.906C91.724 27.906 91.0403 27.906 90.2261 27.9828C89.7038 27.9828 89.3121 28.0519 89.0586 28.0827C88.9743 28.0884 88.8952 28.1255 88.837 28.1866C88.7787 28.2478 88.7454 28.3285 88.7437 28.413V39.2205C88.7466 39.302 88.7782 39.3799 88.8331 39.4404C88.8879 39.5008 88.9623 39.5399 89.0432 39.5507C90.0313 39.6789 91.0272 39.738 92.0235 39.7274C93.8121 39.8369 95.5859 39.3448 97.0624 38.3294C97.7308 37.7706 98.2579 37.062 98.6009 36.2612C98.9439 35.4604 99.0931 34.59 99.0365 33.7207C99.0675 32.9852 98.9471 32.2512 98.6829 31.5642C98.4186 30.8771 98.0161 30.2516 97.5003 29.7265C96.2917 28.5282 94.5455 27.929 92.2617 27.929M92.423 37.7764H92.3231C92.1696 37.7845 92.0157 37.7845 91.8622 37.7764C91.7786 37.769 91.7005 37.7314 91.6425 37.6706C91.5846 37.6098 91.5507 37.53 91.5473 37.4461V30.2949C91.5483 30.2495 91.5582 30.2047 91.5765 30.1632C91.5948 30.1216 91.6211 30.0841 91.6539 30.0527C91.6868 30.0213 91.7254 29.9967 91.7678 29.9802C91.8101 29.9638 91.8552 29.9559 91.9006 29.9569H92.277H92.3922C93.3077 29.9229 94.2057 30.2141 94.927 30.7788C95.3385 31.1606 95.6585 31.6304 95.8633 32.153C96.0681 32.6757 96.1524 33.2378 96.11 33.7975C96.11 36.4501 94.881 37.7764 92.423 37.7764Z" fill="white"/>
<path d="M103.745 27.9058H101.656C101.561 27.9016 101.469 27.9346 101.398 27.9979C101.328 28.0611 101.285 28.1494 101.279 28.2438V39.3662C101.281 39.4133 101.293 39.4595 101.313 39.5022C101.333 39.5448 101.361 39.583 101.396 39.6145C101.431 39.646 101.472 39.6702 101.517 39.6856C101.561 39.701 101.609 39.7073 101.656 39.7042H103.745C103.792 39.7073 103.84 39.701 103.885 39.6857C103.93 39.6704 103.972 39.6464 104.007 39.615C104.043 39.5836 104.072 39.5454 104.093 39.5027C104.114 39.46 104.126 39.4136 104.129 39.3662V28.2438C104.126 28.1963 104.114 28.1499 104.093 28.1073C104.072 28.0646 104.043 28.0264 104.007 27.995C103.972 27.9636 103.93 27.9396 103.885 27.9243C103.84 27.909 103.792 27.9027 103.745 27.9058Z" fill="white"/>
<path d="M113.039 28.1287C113.008 28.0602 112.956 28.0026 112.892 27.963C112.828 27.9234 112.754 27.9035 112.678 27.906H110.812C110.737 27.904 110.664 27.9242 110.601 27.9638C110.538 28.0035 110.489 28.0608 110.458 28.1287L105.911 39.2511C105.893 39.3051 105.889 39.3626 105.899 39.4186C105.908 39.4746 105.932 39.5273 105.967 39.5721C106.002 39.6169 106.047 39.6524 106.099 39.6755C106.151 39.6986 106.208 39.7085 106.264 39.7043H108.338C108.415 39.7061 108.49 39.6851 108.554 39.6441C108.618 39.6031 108.669 39.5438 108.699 39.4739C108.914 38.8799 109.145 38.2347 109.391 37.5382C109.421 37.4675 109.471 37.4072 109.535 37.3648C109.599 37.3225 109.675 37.3 109.752 37.3001H113.715C113.794 37.2973 113.871 37.3196 113.936 37.3638C114.001 37.408 114.05 37.4718 114.076 37.5459C114.322 38.314 114.537 38.9516 114.737 39.4739C114.765 39.5438 114.814 39.6034 114.877 39.6446C114.94 39.6858 115.015 39.7067 115.09 39.7043H117.249C117.306 39.7098 117.364 39.7009 117.417 39.6785C117.47 39.656 117.516 39.6206 117.552 39.5756C117.588 39.5306 117.612 39.4774 117.622 39.4207C117.632 39.364 117.628 39.3057 117.61 39.2511L113.039 28.1287ZM112.64 35.1417H110.85C110.793 35.1458 110.737 35.1359 110.685 35.1128C110.633 35.0898 110.587 35.0543 110.552 35.0095C110.517 34.9647 110.494 34.9119 110.484 34.8559C110.475 34.8 110.479 34.7424 110.497 34.6885C110.858 33.736 111.157 32.9448 111.403 32.315C111.433 32.2457 111.482 32.1866 111.545 32.1451C111.607 32.1036 111.681 32.0814 111.756 32.0814C111.832 32.0814 111.905 32.1036 111.968 32.1451C112.031 32.1866 112.08 32.2457 112.11 32.315L113.001 34.6808C113.017 34.7353 113.02 34.793 113.009 34.8488C112.998 34.9046 112.974 34.957 112.938 35.0015C112.903 35.046 112.857 35.0813 112.805 35.1044C112.753 35.1274 112.697 35.1376 112.64 35.134" fill="white"/>
<path d="M132.242 27.9059H124.3C124.205 27.9017 124.113 27.9347 124.043 27.9979C123.972 28.0611 123.93 28.1494 123.924 28.2438V39.3893C123.93 39.4837 123.972 39.572 124.043 39.6352C124.113 39.6984 124.205 39.7315 124.3 39.7273H126.466C126.561 39.7315 126.653 39.6984 126.723 39.6352C126.794 39.572 126.837 39.4837 126.842 39.3893V35.0494C126.844 35.002 126.856 34.9554 126.876 34.9124C126.896 34.8693 126.924 34.8306 126.959 34.7985C126.994 34.7664 127.035 34.7415 127.079 34.7253C127.124 34.709 127.171 34.7017 127.219 34.7038H131.282C131.377 34.708 131.469 34.6749 131.539 34.6117C131.61 34.5485 131.653 34.4602 131.659 34.3658V32.9524C131.653 32.858 131.61 32.7697 131.539 32.7065C131.469 32.6433 131.377 32.6103 131.282 32.6145H127.234C127.187 32.6165 127.139 32.6092 127.095 32.593C127.05 32.5767 127.009 32.5518 126.974 32.5197C126.939 32.4876 126.911 32.4489 126.891 32.4059C126.871 32.3628 126.86 32.3162 126.858 32.2688V30.3408C126.86 30.2934 126.871 30.2468 126.891 30.2038C126.911 30.1607 126.939 30.1221 126.974 30.0899C127.009 30.0578 127.05 30.0329 127.095 30.0167C127.139 30.0004 127.187 29.9931 127.234 29.9952H132.265C132.36 29.9994 132.452 29.9663 132.523 29.9031C132.593 29.8399 132.636 29.7516 132.642 29.6572V28.2438C132.636 28.1494 132.593 28.0611 132.523 27.9979C132.452 27.9347 132.36 27.9017 132.265 27.9059" fill="white"/>
<path d="M140.192 27.9059C139.421 27.8713 138.651 28.0005 137.934 28.2852C137.216 28.5699 136.567 29.0035 136.029 29.5573C134.927 30.7575 134.347 32.3462 134.416 33.9741C134.367 35.3595 134.804 36.7184 135.653 37.8147C136.208 38.4663 136.907 38.9793 137.695 39.3127C138.483 39.6461 139.338 39.7907 140.192 39.735C140.945 39.7743 141.697 39.6627 142.405 39.4068C143.114 39.1509 143.764 38.7558 144.317 38.2448C144.867 37.6839 145.295 37.016 145.575 36.2826C145.855 35.5492 145.981 34.766 145.946 33.9817C145.988 32.5606 145.556 31.1659 144.717 30.0182C144.189 29.3279 143.501 28.7758 142.714 28.4093C141.926 28.0428 141.061 27.8727 140.192 27.9136M140.192 37.615C138.277 37.615 137.322 36.4039 137.327 33.9817C137.272 32.9645 137.541 31.956 138.095 31.1013C138.339 30.7889 138.648 30.5345 139.002 30.3566C139.355 30.1788 139.744 30.082 140.14 30.0731C140.536 30.0643 140.928 30.1437 141.289 30.3056C141.651 30.4675 141.971 30.7078 142.228 31.0091C142.825 31.8806 143.112 32.9276 143.042 33.9817C143.042 36.4039 142.1 37.615 140.216 37.615" fill="white"/>
<path d="M155.332 35.111C155.301 35.0469 155.292 34.9739 155.307 34.9042C155.322 34.8344 155.361 34.7719 155.417 34.7269C155.883 34.341 156.259 33.8562 156.515 33.3076C156.771 32.759 156.903 32.1602 156.899 31.5546C156.899 29.1196 155.248 27.906 151.929 27.906C151.448 27.906 150.749 27.9367 149.832 27.9982C149.264 27.9982 148.842 28.0673 148.565 28.098C148.479 28.1019 148.398 28.1382 148.339 28.1995C148.279 28.2608 148.244 28.3426 148.242 28.4283V39.3971C148.244 39.4432 148.256 39.4884 148.275 39.5302C148.295 39.5719 148.323 39.6092 148.357 39.64C148.392 39.6708 148.432 39.6944 148.475 39.7094C148.519 39.7244 148.565 39.7305 148.611 39.7274H150.731C150.824 39.7316 150.914 39.6994 150.983 39.6376C151.052 39.5759 151.094 39.4895 151.1 39.3971V35.9329C151.104 35.8822 151.118 35.8329 151.141 35.7879C151.165 35.7429 151.198 35.7034 151.237 35.6716C151.277 35.6399 151.323 35.6167 151.372 35.6035C151.421 35.5903 151.472 35.5874 151.522 35.5949C151.69 35.62 151.86 35.6354 152.029 35.641H152.175H152.459C152.535 35.6321 152.612 35.6456 152.68 35.6797C152.748 35.7138 152.805 35.7671 152.843 35.833L154.733 39.5507C154.767 39.6099 154.817 39.6589 154.876 39.6927C154.935 39.7264 155.003 39.7437 155.071 39.7428H157.13C157.188 39.7481 157.248 39.7378 157.301 39.7131C157.355 39.6883 157.401 39.6499 157.435 39.6018C157.47 39.5536 157.491 39.4973 157.496 39.4384C157.502 39.3796 157.492 39.3204 157.468 39.2665L155.332 35.111ZM152.36 33.5748H152.237C151.956 33.5769 151.675 33.5512 151.399 33.4979C151.319 33.4857 151.246 33.4462 151.191 33.386C151.136 33.3259 151.104 33.2487 151.1 33.1676V30.3486C151.103 30.2627 151.138 30.1809 151.197 30.1187C151.257 30.0565 151.337 30.0181 151.422 30.0107C151.714 29.9955 152.006 29.9955 152.298 30.0107C152.51 29.9788 152.726 29.996 152.93 30.0609C153.134 30.1259 153.321 30.2369 153.475 30.3853C153.63 30.5338 153.748 30.7158 153.821 30.9172C153.894 31.1186 153.919 31.334 153.896 31.5469C153.896 32.8681 153.381 33.5287 152.36 33.544" fill="white"/>
<path d="M169.389 27.9058H167.315C167.268 27.9027 167.221 27.909 167.176 27.9244C167.132 27.9398 167.091 27.964 167.055 27.9955C167.02 28.027 166.992 28.0652 166.972 28.1078C166.952 28.1504 166.94 28.1967 166.939 28.2438V34.9418C166.939 36.6931 166.209 37.5688 164.749 37.5688C163.29 37.5688 162.581 36.6931 162.622 34.9418V28.2438C162.62 28.1967 162.608 28.1504 162.588 28.1078C162.568 28.0652 162.54 28.027 162.505 27.9955C162.47 27.964 162.429 27.9398 162.384 27.9244C162.34 27.909 162.292 27.9027 162.245 27.9058H160.11C160.063 27.9027 160.016 27.909 159.972 27.9245C159.928 27.94 159.888 27.9643 159.853 27.9959C159.819 28.0275 159.791 28.0657 159.772 28.1083C159.753 28.151 159.742 28.197 159.741 28.2438V34.6346C159.741 38.0297 161.411 39.7272 164.749 39.7272C168.088 39.7272 169.758 38.0297 169.758 34.6346V28.2438C169.757 28.197 169.746 28.151 169.727 28.1083C169.708 28.0657 169.68 28.0275 169.646 27.9959C169.611 27.9643 169.571 27.94 169.526 27.9245C169.482 27.909 169.435 27.9027 169.389 27.9058Z" fill="white"/>
<path d="M186.733 27.9059H183.115C183.038 27.9036 182.962 27.9253 182.897 27.9679C182.832 28.0105 182.782 28.072 182.754 28.144C181.763 30.9016 180.887 33.5209 180.135 35.9328C180.118 35.9762 180.089 36.0136 180.05 36.04C180.012 36.0664 179.966 36.0805 179.92 36.0805C179.873 36.0805 179.828 36.0664 179.789 36.04C179.751 36.0136 179.721 35.9762 179.705 35.9328C178.952 33.3723 178.061 30.7735 177.032 28.1363C177.003 28.0664 176.954 28.0068 176.891 27.9656C176.828 27.9244 176.754 27.9035 176.678 27.9059H173.237C173.142 27.9017 173.05 27.9347 172.98 27.9979C172.909 28.0611 172.867 28.1494 172.861 28.2438V39.3586C172.863 39.406 172.874 39.4526 172.894 39.4956C172.914 39.5387 172.942 39.5774 172.977 39.6095C173.012 39.6416 173.053 39.6665 173.098 39.6827C173.142 39.699 173.19 39.7063 173.237 39.7042H175.326C175.374 39.7074 175.423 39.7008 175.468 39.685C175.513 39.6693 175.555 39.6445 175.591 39.6123C175.627 39.5801 175.656 39.5411 175.676 39.4975C175.697 39.4539 175.708 39.4067 175.71 39.3586V32.023C175.717 31.9718 175.741 31.9244 175.778 31.8885C175.815 31.8525 175.864 31.8301 175.915 31.8248C175.966 31.8195 176.018 31.8316 176.062 31.8592C176.105 31.8868 176.139 31.9282 176.156 31.9769C176.668 33.8716 177.492 36.368 178.629 39.4661C178.659 39.5369 178.71 39.5972 178.774 39.6395C178.838 39.6819 178.913 39.7044 178.99 39.7042H180.895C180.972 39.7054 181.048 39.6833 181.112 39.6408C181.177 39.5984 181.227 39.5375 181.256 39.4661C182.28 36.6702 183.112 34.1097 183.753 31.7849C183.77 31.7361 183.804 31.6947 183.849 31.6675C183.893 31.6403 183.945 31.6289 183.997 31.6351C184.048 31.6414 184.096 31.6649 184.133 31.7018C184.169 31.7388 184.192 31.787 184.198 31.8387V39.3432C184.2 39.3913 184.212 39.4386 184.232 39.4821C184.253 39.5257 184.282 39.5648 184.317 39.597C184.353 39.6292 184.395 39.6539 184.44 39.6697C184.486 39.6855 184.534 39.692 184.582 39.6889H186.733C186.78 39.6909 186.828 39.6836 186.872 39.6674C186.917 39.6511 186.958 39.6262 186.993 39.5941C187.028 39.562 187.056 39.5233 187.076 39.4803C187.096 39.4372 187.107 39.3906 187.109 39.3432V28.2438C187.103 28.1494 187.061 28.0611 186.99 27.9979C186.92 27.9347 186.827 27.9017 186.733 27.9059Z" fill="white"/>
<path d="M229.917 30.1949H228.227C228.147 30.1959 228.067 30.181 227.992 30.151C227.918 30.1209 227.85 30.0764 227.793 30.0199C227.736 29.9635 227.69 29.8962 227.659 29.8221C227.629 29.748 227.613 29.6684 227.613 29.5881V27.8906C227.613 27.8102 227.629 27.7307 227.659 27.6565C227.69 27.5824 227.736 27.5152 227.793 27.4587C227.85 27.4023 227.918 27.3577 227.992 27.3277C228.067 27.2977 228.147 27.2827 228.227 27.2837H229.917C229.997 27.2827 230.077 27.2977 230.151 27.3277C230.226 27.3577 230.294 27.4023 230.351 27.4587C230.408 27.5152 230.454 27.5824 230.485 27.6565C230.515 27.7307 230.531 27.8102 230.531 27.8906V29.5881C230.531 29.6684 230.515 29.748 230.485 29.8221C230.454 29.8962 230.408 29.9635 230.351 30.0199C230.294 30.0764 230.226 30.1209 230.151 30.151C230.077 30.181 229.997 30.1959 229.917 30.1949Z" fill="white"/>
<path d="M224.84 19.8943H223.142C223.062 19.8943 222.983 19.8786 222.91 19.8481C222.836 19.8177 222.769 19.773 222.713 19.7166C222.657 19.6603 222.612 19.5934 222.581 19.5197C222.551 19.4461 222.535 19.3672 222.535 19.2875V17.59C222.537 17.4297 222.602 17.2765 222.715 17.1631C222.828 17.0497 222.982 16.9851 223.142 16.9832H224.84C225.001 16.9831 225.156 17.0468 225.271 17.1604C225.386 17.274 225.452 17.4283 225.454 17.59V19.2875C225.454 19.3679 225.438 19.4474 225.407 19.5215C225.376 19.5957 225.331 19.6629 225.274 19.7193C225.216 19.7758 225.149 19.8203 225.074 19.8504C225 19.8804 224.92 19.8954 224.84 19.8943Z" fill="white"/>
<path d="M204.354 30.9708H202.664C202.503 30.9708 202.349 30.9069 202.235 30.7931C202.121 30.6793 202.057 30.5249 202.057 30.364V28.6664C202.057 28.5055 202.121 28.3512 202.235 28.2374C202.349 28.1236 202.503 28.0596 202.664 28.0596H204.354C204.434 28.0586 204.514 28.0735 204.588 28.1036C204.663 28.1336 204.731 28.1782 204.788 28.2346C204.845 28.2911 204.89 28.3583 204.921 28.4324C204.952 28.5066 204.968 28.5861 204.968 28.6664V30.364C204.966 30.5256 204.901 30.68 204.786 30.7935C204.671 30.9071 204.515 30.9708 204.354 30.9708Z" fill="white"/>
<path d="M222.305 33.8974H220.607C220.527 33.8974 220.447 33.8814 220.373 33.8505C220.299 33.8195 220.232 33.7741 220.175 33.7169C220.119 33.6598 220.074 33.592 220.044 33.5175C220.014 33.4429 219.999 33.3632 220 33.2829V31.593C219.999 31.5127 220.014 31.4329 220.044 31.3584C220.074 31.2839 220.119 31.2161 220.175 31.159C220.232 31.1018 220.299 31.0564 220.373 31.0254C220.447 30.9945 220.527 30.9785 220.607 30.9785H222.305C222.466 30.9805 222.621 31.0462 222.734 31.1612C222.848 31.2762 222.911 31.4314 222.911 31.593V33.2829C222.911 33.4445 222.848 33.5997 222.734 33.7147C222.621 33.8297 222.466 33.8954 222.305 33.8974Z" fill="white"/>
<path d="M213.733 22.9976H212.035C211.874 22.9976 211.72 22.9337 211.606 22.8199C211.492 22.7061 211.428 22.5517 211.428 22.3908V20.6932C211.428 20.5323 211.492 20.378 211.606 20.2642C211.72 20.1504 211.874 20.0864 212.035 20.0864H213.733C213.812 20.0864 213.891 20.1021 213.965 20.1326C214.038 20.1631 214.105 20.2078 214.162 20.2642C214.218 20.3205 214.263 20.3874 214.293 20.461C214.324 20.5346 214.339 20.6136 214.339 20.6932V22.3908C214.339 22.4705 214.324 22.5494 214.293 22.623C214.263 22.6966 214.218 22.7635 214.162 22.8199C214.105 22.8762 214.038 22.9209 213.965 22.9514C213.891 22.9819 213.812 22.9976 213.733 22.9976Z" fill="white"/>
<path d="M203.079 15.9692H201.028C200.837 15.9599 200.657 15.88 200.522 15.7451C200.387 15.6102 200.307 15.43 200.298 15.2395V13.1963C200.307 13.0057 200.387 12.8255 200.522 12.6906C200.657 12.5557 200.837 12.4759 201.028 12.4666H203.079C203.269 12.4759 203.449 12.5557 203.584 12.6906C203.719 12.8255 203.799 13.0057 203.808 13.1963V15.2395C203.799 15.43 203.719 15.6102 203.584 15.7451C203.449 15.88 203.269 15.9599 203.079 15.9692Z" fill="white"/>
<path d="M222.812 41.4173H220.769C220.572 41.4074 220.386 41.3222 220.25 41.1792C220.114 41.0362 220.039 40.8464 220.039 40.6492V38.6367C220.048 38.4462 220.128 38.2659 220.263 38.131C220.398 37.9962 220.578 37.9163 220.769 37.907H222.812C223.009 37.9067 223.199 37.9824 223.342 38.1182C223.485 38.2541 223.57 38.4397 223.58 38.6367V40.7106C223.58 40.9144 223.499 41.1097 223.355 41.2538C223.211 41.3978 223.015 41.4788 222.812 41.4788" fill="white"/>
<path d="M213.763 7.23583H211.275C211.158 7.23583 211.042 7.21279 210.934 7.16801C210.825 7.12323 210.727 7.0576 210.645 6.97486C210.562 6.89212 210.496 6.79389 210.451 6.68579C210.407 6.57769 210.384 6.46182 210.384 6.34481V3.84073C210.384 3.72372 210.407 3.60785 210.451 3.49975C210.496 3.39165 210.562 3.29342 210.645 3.21068C210.727 3.12794 210.825 3.06231 210.934 3.01753C211.042 2.97275 211.158 2.94971 211.275 2.94971H213.763C213.88 2.94971 213.996 2.97275 214.104 3.01753C214.212 3.06231 214.311 3.12794 214.393 3.21068C214.476 3.29342 214.542 3.39165 214.586 3.49975C214.631 3.60785 214.654 3.72372 214.654 3.84073V6.34481C214.654 6.46182 214.631 6.57769 214.586 6.68579C214.542 6.79389 214.476 6.89212 214.393 6.97486C214.311 7.0576 214.212 7.12323 214.104 7.16801C213.996 7.21279 213.88 7.23583 213.763 7.23583Z" fill="white"/>
<path d="M224.824 4.26308H222.343C222.226 4.26308 222.11 4.24004 222.002 4.19526C221.894 4.15048 221.796 4.08485 221.713 4.00211C221.63 3.91937 221.565 3.82114 221.52 3.71304C221.475 3.60494 221.452 3.48907 221.452 3.37206V0.891023C221.452 0.774012 221.475 0.658147 221.52 0.550043C221.565 0.441939 221.63 0.343714 221.713 0.260974C221.796 0.178235 221.894 0.112603 222.002 0.067825C222.11 0.023047 222.226 0 222.343 0L224.824 0C224.941 0 225.057 0.023047 225.165 0.067825C225.273 0.112603 225.372 0.178235 225.454 0.260974C225.537 0.343714 225.603 0.441939 225.647 0.550043C225.692 0.658147 225.715 0.774012 225.715 0.891023V3.37206C225.715 3.48907 225.692 3.60494 225.647 3.71304C225.603 3.82114 225.537 3.91937 225.454 4.00211C225.372 4.08485 225.273 4.15048 225.165 4.19526C225.057 4.24004 224.941 4.26308 224.824 4.26308Z" fill="white"/>
<path d="M231.384 22.7057H229.341C229.144 22.7059 228.954 22.6303 228.811 22.4945C228.668 22.3586 228.583 22.173 228.573 21.976V19.9712C228.583 19.7742 228.668 19.5885 228.811 19.4527C228.954 19.3168 229.144 19.2412 229.341 19.2415H231.384C231.581 19.2412 231.771 19.3168 231.914 19.4527C232.057 19.5885 232.142 19.7742 232.152 19.9712V22.0144C232.142 22.2114 232.057 22.397 231.914 22.5329C231.771 22.6687 231.581 22.7443 231.384 22.7441" fill="white"/>
<path d="M210.668 17.2291H208.655C208.465 17.2198 208.284 17.1399 208.15 17.005C208.015 16.8701 207.935 16.6899 207.926 16.4994V14.4485C207.935 14.2579 208.015 14.0777 208.15 13.9428C208.284 13.8079 208.465 13.7281 208.655 13.7188H210.698C210.889 13.7281 211.069 13.8079 211.204 13.9428C211.339 14.0777 211.419 14.2579 211.428 14.4485V16.4994C211.419 16.6899 211.339 16.8701 211.204 17.005C211.069 17.1399 210.889 17.2198 210.698 17.2291" fill="white"/>
<path d="M233.604 16.2842H231.561C231.464 16.2852 231.369 16.267 231.28 16.2307C231.191 16.1944 231.11 16.1407 231.042 16.0727C230.974 16.0048 230.921 15.9239 230.884 15.8349C230.848 15.7459 230.83 15.6506 230.831 15.5545V13.5113C230.83 13.4151 230.848 13.3198 230.884 13.2308C230.921 13.1418 230.974 13.0609 231.042 12.993C231.11 12.925 231.191 12.8713 231.28 12.835C231.369 12.7987 231.464 12.7805 231.561 12.7815H233.604C233.7 12.7805 233.795 12.7987 233.884 12.835C233.973 12.8713 234.054 12.925 234.122 12.993C234.19 13.0609 234.244 13.1418 234.28 13.2308C234.316 13.3198 234.335 13.4151 234.333 13.5113V15.5545C234.335 15.6506 234.316 15.7459 234.28 15.8349C234.244 15.9239 234.19 16.0048 234.122 16.0727C234.054 16.1407 233.973 16.1944 233.884 16.2307C233.795 16.267 233.7 16.2852 233.604 16.2842Z" fill="white"/>
<path d="M201.32 24.5798H199.276C199.177 24.5862 199.078 24.572 198.984 24.538C198.891 24.5041 198.805 24.4513 198.733 24.3827C198.661 24.3142 198.604 24.2316 198.565 24.1399C198.526 24.0482 198.507 23.9496 198.508 23.8501V21.7762C198.508 21.5725 198.589 21.3771 198.733 21.233C198.877 21.089 199.073 21.0081 199.276 21.0081H201.32C201.523 21.0081 201.719 21.089 201.863 21.233C202.007 21.3771 202.088 21.5725 202.088 21.7762V23.8117C202.078 24.0087 201.993 24.1943 201.85 24.3302C201.707 24.466 201.517 24.5417 201.32 24.5414" fill="white"/>
<path d="M237.176 27.998H234.71C234.477 27.996 234.254 27.902 234.09 27.7366C233.926 27.5711 233.834 27.3476 233.834 27.1146V24.649C233.834 24.416 233.926 24.1925 234.09 24.027C234.254 23.8616 234.477 23.7677 234.71 23.7656H237.176C237.409 23.7676 237.633 23.8613 237.798 24.0266C237.963 24.1918 238.057 24.4153 238.059 24.649V27.1146C238.057 27.3483 237.963 27.5718 237.798 27.737C237.633 27.9023 237.409 27.996 237.176 27.998Z" fill="white"/>
<path d="M230.032 37.8838H227.566C227.333 37.8818 227.109 37.7881 226.944 37.6229C226.779 37.4576 226.685 37.2341 226.683 37.0005V34.5655C226.685 34.3318 226.779 34.1083 226.944 33.9431C227.109 33.7779 227.333 33.6842 227.566 33.6822H230.032C230.149 33.6811 230.265 33.7032 230.374 33.747C230.482 33.7909 230.581 33.8557 230.664 33.9377C230.748 34.0197 230.814 34.1174 230.86 34.2251C230.906 34.3328 230.93 34.4485 230.931 34.5655V37.0312C230.929 37.2648 230.835 37.4884 230.67 37.6536C230.505 37.8188 230.281 37.9125 230.047 37.9145" fill="white"/>
<path d="M207.119 39.6734H204.661C204.545 39.6745 204.429 39.6523 204.322 39.6083C204.214 39.5643 204.116 39.4992 204.034 39.417C203.952 39.3348 203.887 39.237 203.843 39.1293C203.799 39.0217 203.777 38.9064 203.778 38.7901V36.3321C203.777 36.2158 203.799 36.1005 203.843 35.9929C203.887 35.8852 203.952 35.7874 204.034 35.7052C204.116 35.623 204.214 35.5579 204.322 35.5139C204.429 35.4699 204.545 35.4477 204.661 35.4488H207.119C207.235 35.4477 207.351 35.4699 207.458 35.5139C207.566 35.5579 207.664 35.623 207.746 35.7052C207.828 35.7874 207.893 35.8852 207.937 35.9929C207.981 36.1005 208.003 36.2158 208.002 36.3321V38.7901C208.003 38.9064 207.981 39.0217 207.937 39.1293C207.893 39.237 207.828 39.3348 207.746 39.417C207.664 39.4992 207.566 39.5643 207.458 39.6083C207.351 39.6523 207.235 39.6745 207.119 39.6734Z" fill="white"/>
<path d="M233.466 10.8765H229.156C228.749 10.8765 228.358 10.7147 228.07 10.4266C227.782 10.1385 227.62 9.74773 227.62 9.34029V5.03112C227.62 4.62368 227.782 4.23293 228.07 3.94483C228.358 3.65673 228.749 3.49487 229.156 3.49487H233.466C233.873 3.49487 234.264 3.65673 234.552 3.94483C234.84 4.23293 235.002 4.62368 235.002 5.03112V9.33261C235.002 9.74004 234.84 10.1308 234.552 10.4189C234.264 10.707 233.873 10.8689 233.466 10.8689" fill="white"/>
<path d="M241.608 16.1306H237.298C236.891 16.1306 236.5 15.9688 236.212 15.6807C235.924 15.3926 235.762 15.0018 235.762 14.5944V10.2391C235.762 9.83169 235.924 9.44094 236.212 9.15284C236.5 8.86474 236.891 8.70288 237.298 8.70288H241.608C242.015 8.70288 242.406 8.86474 242.694 9.15284C242.982 9.44094 243.144 9.83169 243.144 10.2391V14.5483C243.144 14.9557 242.982 15.3465 242.694 15.6346C242.406 15.9227 242.015 16.0845 241.608 16.0845" fill="white"/>
<path d="M216.144 46.4023H211.835C211.428 46.4023 211.037 46.2404 210.749 45.9523C210.461 45.6642 210.299 45.2735 210.299 44.866V40.5492C210.299 40.1417 210.461 39.751 210.749 39.4629C211.037 39.1748 211.428 39.0129 211.835 39.0129H216.144C216.552 39.0129 216.943 39.1748 217.231 39.4629C217.519 39.751 217.681 40.1417 217.681 40.5492V44.8584C217.681 45.2658 217.519 45.6565 217.231 45.9446C216.943 46.2327 216.552 46.3946 216.144 46.3946" fill="white"/>
<path d="M245.456 25.8321H241.147C240.739 25.8321 240.349 25.6702 240.061 25.3821C239.772 25.094 239.611 24.7033 239.611 24.2958V19.9713C239.611 19.5639 239.772 19.1731 240.061 18.885C240.349 18.5969 240.739 18.4351 241.147 18.4351H245.456C245.863 18.4351 246.254 18.5969 246.542 18.885C246.83 19.1731 246.992 19.5639 246.992 19.9713V24.2728C246.992 24.6802 246.83 25.071 246.542 25.3591C246.254 25.6472 245.863 25.809 245.456 25.809" fill="white"/>
<path d="M244.196 35.6562H239.895C239.487 35.6562 239.097 35.4943 238.809 35.2062C238.52 34.9181 238.359 34.5274 238.359 34.1199V29.8031C238.359 29.3957 238.52 29.0049 238.809 28.7168C239.097 28.4287 239.487 28.2668 239.895 28.2668H244.196C244.604 28.2668 244.995 28.4287 245.283 28.7168C245.571 29.0049 245.733 29.3957 245.733 29.8031V34.1123C245.733 34.5197 245.571 34.9105 245.283 35.1986C244.995 35.4867 244.604 35.6485 244.196 35.6485" fill="white"/>
<path d="M222.005 15.4777H217.696C217.288 15.4777 216.898 15.3159 216.61 15.0278C216.322 14.7397 216.16 14.3489 216.16 13.9415V9.62462C216.16 9.21719 216.322 8.82644 216.61 8.53834C216.898 8.25023 217.288 8.08838 217.696 8.08838H222.005C222.413 8.08838 222.803 8.25023 223.091 8.53834C223.379 8.82644 223.541 9.21719 223.541 9.62462V13.9338C223.541 14.3412 223.379 14.732 223.091 15.0201C222.803 15.3082 222.413 15.47 222.005 15.47" fill="white"/>
<path d="M238.827 43.7292H234.526C234.118 43.7292 233.727 43.5673 233.439 43.2792C233.151 42.9911 232.989 42.6004 232.989 42.1929V37.8761C232.989 37.4687 233.151 37.0779 233.439 36.7898C233.727 36.5017 234.118 36.3398 234.526 36.3398H238.827C239.234 36.3398 239.625 36.5017 239.913 36.7898C240.201 37.0779 240.363 37.4687 240.363 37.8761V42.1853C240.363 42.5927 240.201 42.9834 239.913 43.2715C239.625 43.5596 239.234 43.7215 238.827 43.7215" fill="white"/>
<path d="M230.462 48H226.153C225.746 48 225.355 47.8381 225.067 47.55C224.779 47.2619 224.617 46.8712 224.617 46.4637V42.1622C224.617 41.7548 224.779 41.364 225.067 41.0759C225.355 40.7878 225.746 40.626 226.153 40.626H230.462C230.87 40.626 231.26 40.7878 231.548 41.0759C231.836 41.364 231.998 41.7548 231.998 42.1622V46.4637C231.998 46.8712 231.836 47.2619 231.548 47.55C231.26 47.8381 230.87 48 230.462 48Z" fill="white"/>
<path d="M215.822 35.7407H211.513C211.105 35.7407 210.714 35.5788 210.426 35.2907C210.138 35.0026 209.976 34.6119 209.976 34.2044V29.8876C209.976 29.4801 210.138 29.0894 210.426 28.8013C210.714 28.5132 211.105 28.3513 211.513 28.3513H215.822C216.229 28.3513 216.62 28.5132 216.908 28.8013C217.196 29.0894 217.358 29.4801 217.358 29.8876V34.1967C217.358 34.6042 217.196 34.9949 216.908 35.283C216.62 35.5711 216.229 35.733 215.822 35.733" fill="white"/>
<path d="M224.386 29.2731H219.194C218.701 29.2731 218.228 29.0773 217.879 28.7287C217.531 28.3801 217.335 27.9073 217.335 27.4143V22.2295C217.335 21.7365 217.531 21.2637 217.879 20.9151C218.228 20.5664 218.701 20.3706 219.194 20.3706H224.386C224.879 20.3706 225.352 20.5664 225.701 20.9151C226.049 21.2637 226.245 21.7365 226.245 22.2295V27.4143C226.245 27.9073 226.049 28.3801 225.701 28.7287C225.352 29.0773 224.879 29.2731 224.386 29.2731Z" fill="white"/>
</svg>
