<svg width="550" height="241" viewBox="0 0 550 241" fill="none" xmlns="http://www.w3.org/2000/svg">
<path d="M314.6 30.9V30.4H234.9V104.6C238.6 104.6 246.4 103.8 252.3 104.4C260.4 105.2 272.6 104.9 278 104.9C281 104.9 283.2 103.5 285.9 103.9C288.9 104.4 297.2 104.8 300.3 104.8C305.3 104.8 314 104.6 314.6 104.8C314.6 104.6 314.6 104 314.6 104V30.9ZM307 72.8C300.9 70.8 288.5 72.8 281.4 77.6C280.4 78.3 279.4 79 278.4 79.7C280.6 81.6 282.8 83.6 284.7 85.5L286.9 84.8L286.3 87C287.9 88.5 289.2 89.8 290.2 90.7C290.4 90.7 290.6 90.7 290.8 90.7C292.1 90.7 293.1 91.7 293.1 93C293.1 94.3 292.1 95.2 290.8 95.2C289.5 95.2 290.6 95.2 290.5 95.2C289.5 95.2 288.6 95.2 285.4 92.1C284.9 91.6 284.1 90.8 283.1 89.8L281.2 90.4L281.7 88.4C279.9 86.6 277.7 84.5 275.3 82.4C273.1 84.3 271.1 86.2 269.4 87.9L270 90.1L268 89.4C266.8 90.6 265.9 91.6 265.3 92.1C262.1 95.1 261.2 95.2 260.2 95.2C260.1 95.2 260 95.2 259.9 95.2C258.9 95.2 258.1 94.5 257.7 93.6C257.4 92.8 257.7 91.9 258.5 91.3C259.4 90.6 259.9 90.6 260.4 90.7C261.5 89.7 263.1 88.2 264.9 86.4L264.4 84.6L266.2 85.2C268 83.4 270.1 81.5 272.1 79.8C271.1 79.1 270.1 78.3 269.1 77.7C261.9 73 249.5 70.9 243.5 72.9C243.8 72.4 246 69.5 254.3 69.5C262.6 69.5 266.3 71.6 272.1 75.1C272.6 73.9 274.1 61.2 273.3 52.2C272.7 52.6 267.5 56.5 266.8 61.6C266.6 60.2 266 53.2 269.4 49.9C268.4 50.1 261.8 51.7 259.2 59.4C258.9 57.6 258.7 46.6 268.3 44.8C267.8 44.5 264.6 42.7 260.6 45.3C261.1 44.4 264.4 39.4 271.2 41.8C271 41.4 270.1 39.5 268.4 39.3C269.2 39.1 272.3 38.6 273.9 40.9L275.3 37.1L276.7 40.9C278.3 38.7 281.5 39.2 282.2 39.3C280.5 39.6 279.6 41.4 279.4 41.8C286.1 39.4 289.5 44.5 290 45.3C286 42.7 282.8 44.5 282.3 44.8C292 46.6 291.7 57.6 291.4 59.4C288.9 51.8 282.2 50.1 281.2 49.9C284.7 53.2 284 60.2 283.8 61.6C283.1 56.5 277.9 52.6 277.3 52.2C276.6 61.6 278 74.1 278.5 75.1C284.4 71.6 291.4 69.5 296.4 69.5C304.8 69.5 306.9 72.4 307.2 72.9L307 72.8Z" fill="#BA9863"/>
<path d="M314.8 0.599998H234.8V6.4H303.5V2.8H314.7V0.599998H314.8Z" fill="#BA9863"/>
<path d="M234.9 10.4V16.2H289.4V12.6H314.8V10.4H234.8H234.9Z" fill="#BA9863"/>
<path d="M234.9 20.4V26.2H274.7V22.6H314.8V20.4H234.8H234.9Z" fill="#BA9863"/>
<path d="M314.7 111.2V109.8H302.1C301.9 109.6 301.6 109.6 301.4 109.6H293.6C293.2 109.6 292.8 109.6 292.3 109.6L283.9 108.4C283.4 108.4 283 108.4 282.5 108.4L272.9 108.6C272.3 108.8 271.9 109 271.3 109.3L271.1 109.5C269.8 110.7 264.4 112 260.9 112.6H235.1V112.8V114.8H314.8V111.4L314.7 111.2Z" fill="#BA9863"/>
<path d="M300.9 129.9C300.7 129.9 300.4 129.9 300.2 129.9H285.8C285.5 129.9 285.3 130.1 285 130.2L283.6 131.9C283 132.1 282.5 132.3 281.9 132.5L264.5 129.8C264.4 129.8 264.2 129.8 264.1 129.8L243.2 129L241.8 129.5C239.4 130.5 237.2 131.3 234.8 132.3H234.9V135.1H314.6V131.7V130.3L300.9 130V129.9Z" fill="#BA9863"/>
<path d="M234.9 124.9H314.6V121.5V120.1H301C301 120.2 284.9 119.5 284.9 119.5C284.4 119.5 283.8 119.5 283.3 119.5L274.2 122C273.9 122 273.5 122 273.2 122L260.3 118.9C259.6 119.1 259 119.3 258.3 119.6L256.7 121.1C256.2 121.6 255.5 122.4 254.8 122.8H234.9V123V125V124.9Z" fill="#BA9863"/>
<path d="M15.9 173.8C15.7 179.3 14 182.7 11.5 185.2C10.3 178.2 7.7 171.7 4.1 166.9H3.2L1.9 168.8C1 170.1 0.199997 171.3 1.2 172.7L2.8 175.1L3.8 174.5C6.5 177.2 9.50001 180.8 10.6 185.9C7.70001 188.3 3.8 189.7 0 191.4V192.1L10.1 193.4C13.2 189.8 14.8 184.7 15.6 179.6H15.9V192.6H65.9C68.3 192.6 71 191.1 73 189.5C76.3 192.5 77.6 192.6 82.2 192.6H93.8L95.8 186.1V173.4L98.2 171.3C97.6 170.6 96.5 169.6 95.8 168.6V166C95.8 165.9 95.2 165.5 95.2 165.5L91.3 168.9C91 169.2 90.9 169.6 91.1 169.9L93.4 173V186.5H75.4C77.2 185.7 81.5 183.8 82 180.2C82.5 176.9 79.8 173.8 74.3 173.8C68.8 173.8 69.2 174.7 67.3 175.4L65 179.4V180C67 182.4 68.7 184.7 70.2 186.5H18.2V165.5H17.8L15.8 170.3V173.8H15.9ZM66.7 179.6C67.9 179.1 70.5 178.7 72.7 178.7C75.7 178.7 78.7 179.5 78.5 181.8C78.3 184.3 74.5 185.9 73.6 186.5C71.1 186 69 182.7 66.7 179.7V179.6Z" fill="#BA9863"/>
<path d="M104 186.5V165.6H103.6L101.5 170.3V194.2H102L104 186.5Z" fill="#BA9863"/>
<path d="M122.1 169C122.1 169 122.1 169 122.2 168.9L124.8 171.5L127.3 169C127.5 168.8 127.5 168.5 127.3 168.3L124.8 165.8L122.2 168.4C122.2 168.4 122.167 168.367 122.1 168.3L119.6 165.8L116.7 168.7L119.6 171.6L122.1 169.1V169Z" fill="#BA9863"/>
<path d="M194.3 169.2C194.6 169 194.6 168.7 194.3 168.4L191.7 165.8L188.7 168.8L191.7 171.8L194.3 169.2Z" fill="#BA9863"/>
<path d="M135 192.7H200.7L201.2 190.8C202.1 192 203.5 192.7 205.3 192.7H205.6H223.3L225.3 184.5C225.3 180.9 224.7 170.5 218.3 170.5C211.9 170.5 212.4 174.2 211.7 176.9C210.1 182.6 213.9 184.9 216.9 184.9C219.9 184.9 221.8 182.8 222.7 181.4C223.6 183.5 224.1 185.5 224.2 186.6H202.2C204.1 180.1 200.2 175.3 195.3 174.9C194.8 174.9 194.2 174.9 193.7 175.2C189.8 177 185.9 180.1 182.9 183.1L182.7 182.9L184 179.7V173.4L186.4 171.3C185.8 170.6 184.7 169.6 184 168.6V165.9L183.4 165.5L179.5 168.9C179.2 169.2 179.1 169.6 179.3 169.9L181.6 173V184.4C180.8 185.2 180.1 186 179.5 186.7H130.5V171.8H130.1L128 174.7V176L120.6 181C119.2 182 118.3 182.5 117.8 183.5L117.1 188.1C117.3 189 118.4 189.7 119.6 190C120.8 190.4 124.7 191.3 126 191.6L126.8 191.3L127.9 188.1V192.8H134.8L135 192.7ZM219 180.4C216.4 180.4 213.1 179.3 212.1 177.6C213.3 175.6 215.7 174.9 217 174.9C219.2 174.9 221 177.2 222.3 179.8C221.3 180.1 220.2 180.3 219 180.3V180.4ZM128.1 185.7C125.3 185 121.7 184.4 119 183.3L125.3 180C126.2 179.5 127.1 178.7 127.6 177.8L128.2 176.8V185.6L128.1 185.7ZM180.7 186.5C184.4 183.4 189.2 181.1 194.2 179.9C199.6 179.9 201.9 183.6 201.9 186.5H180.7Z" fill="#BA9863"/>
<path d="M220.7 165.6C221 165.4 221 165.1 220.7 164.8L218.1 162.2L215.1 165.2L218.1 168.2L220.7 165.6Z" fill="#BA9863"/>
<path d="M252.8 190C254.1 187.7 255.9 186.3 258.3 185.7V186.3C258.3 190.2 260.6 192.7 264.4 192.7H264.8C268.5 192.6 271.4 190.8 272.3 190.8C273.2 190.8 273 191 273.2 191.1L279.3 194.1H280L281.8 189L277.2 186.2C276.4 185.6 276.1 184.9 276.1 183.6V173.5L278.5 171.4C277.8 170.7 276.8 169.7 276.1 168.6V165.9L275.5 165.5L271.6 168.9C271.3 169.2 271.2 169.6 271.4 169.9L273.7 173V182.1C273.7 183.1 274 184.1 274.4 185C271.9 186.2 267.6 186.6 264.4 186.6H262C261.1 186.6 260.5 186.2 260.1 185.5C260.3 185.5 260.5 185.5 260.6 185.5H262L262.9 181.5L262.5 180.7H261.5C255.2 180.4 247.8 174.9 243.8 174.9C239.8 174.9 240.5 176 239.7 178.2L238.8 180.7L239.1 180.9C239.5 180.3 240.2 179.1 241.7 179.1C244.3 179.1 251.8 183.3 257.3 185C255.2 186 251.9 186.7 247.3 186.7H232.3V165.7H231.9L229.9 170.5V192.8H248.5C250.2 192.8 251.9 191.8 252.9 190.1L252.8 190Z" fill="#BA9863"/>
<path d="M296.2 169C296.2 169 296.2 169 296.3 168.9L298.9 171.5L301.4 169C301.6 168.8 301.6 168.5 301.4 168.3L298.9 165.8L296.3 168.4C296.3 168.4 296.267 168.367 296.2 168.3L293.7 165.8L290.8 168.7L293.7 171.6L296.2 169.1V169Z" fill="#BA9863"/>
<path d="M355 196.5L352.4 199.1C352.4 199.1 352.367 199.067 352.3 199L349.8 196.5L346.9 199.3L349.8 202.2L352.3 199.7C352.3 199.7 352.3 199.7 352.4 199.6L355 202.2L357.5 199.7C357.7 199.5 357.7 199.2 357.5 199L355 196.5Z" fill="#BA9863"/>
<path d="M309 192.7H352.9L355 188.7C355.5 191.1 357.1 192.7 359.4 192.7H368L370.3 188.3L374.3 192.7H383.7L385.8 188.7C386.3 191.1 387.9 192.7 390.2 192.7H391C394.8 192.7 397.8 190.8 398.7 190.8C399.6 190.8 399.4 191 399.6 191.1L405.7 194.1H406.4L408.2 189L403.6 186.2C402.8 185.6 402.5 184.9 402.5 183.6V173.5L404.9 171.4C404.2 170.7 403.2 169.7 402.5 168.6V165.9L401.9 165.5L398 168.9C397.7 169.2 397.6 169.6 397.8 169.9L400 173V182.1C400 183.1 400.3 184.1 400.7 185C398.2 186.2 393.9 186.6 390.7 186.6H390.4C388.4 186.6 387.7 185.9 387.6 184.1V173.5L390 171.4C389.4 170.7 388.3 169.7 387.6 168.7V166L387 165.6L383.1 169C382.8 169.3 382.7 169.7 382.9 170L385.2 173.1V186.6H374.9L363.8 175.2L378.8 170.2V166L378.3 165.5L363.7 171.6L362.1 179.7L368.4 186.6H359.7H359.4C357.3 186.6 356.6 185.7 356.6 183.6V179.3H356C355.4 181.3 354.6 184.3 354.5 186.7H304.3V171.8H303.9L301.8 174.7V176L294.4 181C293 182 292.1 182.5 291.6 183.5L290.9 188.1C291.1 189 292.2 189.7 293.4 190C294.6 190.4 298.5 191.3 299.8 191.6L300.6 191.3L301.7 188.1V192.8H308.6L309 192.7ZM302.1 185.7C299.3 185 295.7 184.4 293 183.3L299.3 180C300.2 179.5 301.1 178.7 301.5 177.8L302.1 176.8V185.6V185.7Z" fill="#BA9863"/>
<path d="M412.7 165.6H412.3L410.3 170.3V194.2H410.7L412.7 186.5V165.6Z" fill="#BA9863"/>
<path d="M430.8 169C430.8 169 430.8 169 430.9 168.9L433.5 171.5L436 169C436.2 168.8 436.2 168.5 436 168.3L433.5 165.8L430.9 168.4H430.8C430.8 168.3 428.3 165.8 428.3 165.8L425.4 168.7L428.3 171.6L430.8 169.1V169Z" fill="#BA9863"/>
<path d="M489.8 176.5H491.8L492.9 174L492.6 173.5H490.3C490 173.5 489.7 173.5 489.3 173.5C488.1 173.2 487 172.5 486.7 171.6C487.2 171.1 488 170.9 488.7 170.9C489.4 170.9 490.6 171.2 491.1 171.6H491.5L492.1 170.5C491.9 169.7 491.2 168.8 489.9 168.8C488.6 168.8 487.2 169.9 486.7 171.4C486.3 172.5 486.4 173.5 487 174.3C486.5 174.6 485.9 175 485.4 175.5L484.9 177.6L485.2 177.9C487.2 176.8 488 176.6 489.8 176.6V176.5Z" fill="#BA9863"/>
<path d="M503.3 196.5L500.7 199.1C500.7 199.1 500.667 199.067 500.6 199L498.1 196.5L495.2 199.3L498.1 202.2L500.6 199.7C500.6 199.7 500.6 199.7 500.7 199.6L503.3 202.2L505.8 199.7C506 199.5 506 199.2 505.8 199L503.3 196.5Z" fill="#BA9863"/>
<path d="M439.3 186.5V171.6H438.9L436.8 174.5V175.8L429.4 180.8C428 181.8 427.1 182.3 426.6 183.3L425.9 187.9C426.1 188.8 427.2 189.5 428.4 189.8C429.6 190.2 433.5 191.1 434.8 191.4L435.6 191.1L436.7 187.9V192.6H487.5L489.6 188.6C490.1 191 491.7 192.6 494 192.6H501.1L503.2 188.6C503.7 191 505.3 192.6 507.6 192.6H512.9C513.5 192.6 514.1 192.6 514.7 192.5C516.1 196.4 519.1 199.3 523.7 199.3C528.3 199.3 527.7 198.7 529.2 197.3C529.4 196.5 529.9 194.4 530.2 192.7H539.3L541.3 186.2V173.5L543.7 171.4C543.1 170.7 542 169.7 541.3 168.7V166.5V166L540.7 165.6L536.8 169C536.5 169.3 536.4 169.7 536.6 170L538.9 173.1V186.6H530.2H526.5C527.2 185.3 527.7 183.8 527.7 182.1C527.7 178.5 525.8 175.9 522.3 175C518.8 174.1 521.6 175 521.3 175C521 175 520.7 175.2 520.4 175.3C517.5 177.2 514.1 181.5 513.9 186.6C513.5 186.6 513.2 186.6 513 186.6H508.2H507.9C506.4 186.6 505.1 185.4 505.1 183.8V179.2H504.5C503.9 181.2 503.1 184.2 503 186.6H494.5H494.2C492.7 186.6 491.4 185.4 491.4 183.8V179.2H490.8C490.2 181.2 489.4 184.2 489.3 186.6H439.1L439.3 186.5ZM529.7 193.3C528.6 194 526 194.2 523.8 194C521.8 193.8 519.7 193.1 518 192.1C518.8 191.9 519.5 191.7 520.3 191.4C525.2 191.2 527.6 192.1 529.7 193.3ZM522 179.5C523.9 179.5 527.3 180.6 527.3 182.3C527.3 185 519 186.3 514.6 186.5C515.2 182.9 520.3 179.9 522.1 179.5H522ZM436.8 185.7C434 185 430.4 184.4 427.7 183.3L434 180C434.9 179.5 435.8 178.7 436.2 177.8L436.8 176.8V185.6V185.7Z" fill="#BA9863"/>
<path d="M549.7 186.5V165.6H549.3L547.3 170.3V194.2H547.7L549.7 186.5Z" fill="#BA9863"/>
<path d="M13.3 230.4C14.6 229.7 15.7 228.8 16.5 227.6C17.3 226.4 17.6 225.1 17.6 223.5C17.6 221.9 17.2 220.6 16.5 219.5C15.8 218.3 14.8 217.4 13.5 216.8C12.2 216.1 10.7 215.8 8.99998 215.8H0.299988V240.5H4.39999V231.4H8.69998L14 240.5H18.6L12.8 230.6C13 230.6 13.2 230.5 13.4 230.4H13.3ZM4.39999 219.5H8.89998C10.2 219.5 11.3 219.9 12.2 220.6C13 221.4 13.5 222.3 13.5 223.5C13.5 224.7 13.3 225 12.9 225.6C12.5 226.2 12 226.7 11.4 227C10.8 227.4 10.1 227.5 9.29999 227.5H4.49998V219.4L4.39999 219.5Z" fill="#BA9863"/>
<path d="M40.1 217C38.2 215.9 36.1 215.4 33.6 215.4C31.1 215.4 29 215.9 27.2 217C25.3 218.1 23.9 219.6 22.8 221.5C21.7 223.4 21.2 225.6 21.2 228.1C21.2 230.6 21.7 232.8 22.8 234.7C23.9 236.6 25.3 238.1 27.2 239.2C29.1 240.3 31.2 240.8 33.7 240.8C36.2 240.8 38.3 240.3 40.1 239.2C41.9 238.1 43.4 236.6 44.4 234.7C45.4 232.8 46 230.6 46 228.1C46 225.6 45.5 223.4 44.4 221.5C43.4 219.6 41.9 218.1 40 217H40.1ZM40.8 232.8C40.1 234.2 39.1 235.2 37.9 236C36.7 236.8 35.3 237.2 33.7 237.2C32.1 237.2 30.6 236.8 29.4 236C28.1 235.2 27.2 234.2 26.4 232.8C25.7 231.4 25.3 229.9 25.3 228.1C25.3 226.3 25.7 224.8 26.4 223.4C27.1 222 28.1 221 29.3 220.2C30.5 219.4 32 219.1 33.6 219.1C35.2 219.1 36.7 219.5 37.9 220.2C39.1 221 40.1 222 40.8 223.4C41.5 224.8 41.9 226.3 41.9 228.1C41.9 229.9 41.6 231.4 40.9 232.8H40.8Z" fill="#BA9863"/>
<path d="M64 215.8L57.8 226L51.7 215.8H47L55.8 230.1V240.5H59.9V230.1L68.7 215.8H64Z" fill="#BA9863"/>
<path d="M83.2 215.8H79.1L69.3 240.5H73.6L76 234.4H86.6L89 240.5H93.3L83.4 215.8H83.2ZM77.4 230.8L81.3 220.8L85.2 230.8H77.4Z" fill="#BA9863"/>
<path d="M100.6 215.8H96.5V240.5H111.8V236.7H100.6V215.8Z" fill="#BA9863"/>
<path d="M139.8 234.9C139.1 235.6 138.3 236.2 137.4 236.6C136.5 237 135.5 237.2 134.5 237.2C132.9 237.2 131.5 236.8 130.3 236C129.1 235.2 128.1 234.2 127.4 232.8C126.7 231.4 126.4 229.9 126.4 228.1C126.4 226.3 126.7 224.8 127.4 223.4C128.1 222 129 221 130.3 220.2C131.5 219.4 132.9 219 134.4 219C135.9 219 136.4 219.2 137.3 219.6C138.2 220 139 220.5 139.8 221.2C140.5 221.9 141.1 222.7 141.5 223.6L145.2 222.1C144.6 220.8 143.8 219.6 142.7 218.6C141.6 217.6 140.4 216.8 138.9 216.2C137.5 215.6 136 215.3 134.4 215.3C132 215.3 129.9 215.8 128.1 216.9C126.3 218 124.8 219.5 123.8 221.4C122.8 223.3 122.2 225.5 122.2 228C122.2 230.5 122.7 232.7 123.8 234.6C124.8 236.5 126.3 238 128.1 239.1C129.9 240.2 132.1 240.7 134.4 240.7C136.7 240.7 137.6 240.4 139 239.8C140.4 239.2 141.7 238.4 142.8 237.3C143.9 236.2 144.7 235 145.3 233.6L141.6 232.1C141.2 233.1 140.6 233.9 139.9 234.6L139.8 234.9Z" fill="#BA9863"/>
<path d="M166.6 217C164.7 215.9 162.6 215.4 160.1 215.4C157.6 215.4 155.5 215.9 153.7 217C151.8 218.1 150.4 219.6 149.3 221.5C148.2 223.4 147.7 225.6 147.7 228.1C147.7 230.6 148.2 232.8 149.3 234.7C150.4 236.6 151.8 238.1 153.7 239.2C155.6 240.3 157.7 240.8 160.2 240.8C162.7 240.8 164.8 240.3 166.6 239.2C168.4 238.1 169.9 236.6 170.9 234.7C171.9 232.8 172.5 230.6 172.5 228.1C172.5 225.6 172 223.4 170.9 221.5C169.9 219.6 168.4 218.1 166.5 217H166.6ZM167.3 232.8C166.6 234.2 165.6 235.2 164.4 236C163.2 236.8 161.8 237.2 160.2 237.2C158.6 237.2 157.1 236.8 155.9 236C154.6 235.2 153.7 234.2 152.9 232.8C152.2 231.4 151.8 229.9 151.8 228.1C151.8 226.3 152.2 224.8 152.9 223.4C153.6 222 154.6 221 155.8 220.2C157 219.4 158.5 219.1 160.1 219.1C161.7 219.1 163.2 219.5 164.4 220.2C165.6 221 166.6 222 167.3 223.4C168 224.8 168.4 226.3 168.4 228.1C168.4 229.9 168.1 231.4 167.4 232.8H167.3Z" fill="#BA9863"/>
<path d="M189 227.2L181.2 215.8H176.8V240.5H180.9V222.3L188.9 234.1L197 222.2V240.5H201.1V215.8H196.7L189 227.2Z" fill="#BA9863"/>
<path d="M219.1 227.2L211.3 215.8H206.9V240.5H211V222.3L219 234.1L227.1 222.2V240.5H231.2V215.8H226.8L219.1 227.2Z" fill="#BA9863"/>
<path d="M241.1 215.8H237V240.5H241.1V215.8Z" fill="#BA9863"/>
<path d="M257 226.5L254 225.8C253 225.5 252.1 225.2 251.5 224.7C250.9 224.2 250.6 223.5 250.6 222.6C250.6 221.7 251 220.6 251.7 220C252.5 219.4 253.5 219 254.9 219C256.3 219 257.3 219.3 258.1 219.9C259 220.5 259.6 221.3 259.9 222.2L263.9 220.9C263.5 219.8 262.9 218.9 262.2 218.1C261.4 217.3 260.4 216.6 259.3 216.1C258.1 215.6 256.7 215.4 255.2 215.4C252.4 215.4 250.2 216 248.7 217.3C247.2 218.6 246.4 220.4 246.4 222.7C246.4 225 246.7 225 247.2 225.9C247.7 226.8 248.5 227.5 249.4 228.1C250.3 228.7 251.4 229.1 252.5 229.4L255.5 230.2C256.8 230.5 257.8 231 258.5 231.6C259.3 232.2 259.6 233 259.6 233.9C259.6 234.8 259.2 235.8 258.3 236.4C257.4 237 256.2 237.4 254.7 237.4C253.4 237.4 252.3 237 251.4 236.4C250.5 235.7 249.9 235 249.6 234.1L245.6 235.3C245.8 236 246.2 236.7 246.7 237.4C247.2 238.1 247.9 238.7 248.7 239.2C249.5 239.7 250.5 240.2 251.5 240.5C252.6 240.8 253.8 241 255 241C256.9 241 258.5 240.7 259.9 240.1C261.2 239.5 262.2 238.6 262.9 237.6C263.6 236.5 263.9 235.3 263.9 233.9C263.9 232.5 263.3 230.8 262.1 229.5C260.9 228.2 259.2 227.3 256.9 226.7L257 226.5Z" fill="#BA9863"/>
<path d="M278.5 226.5L275.5 225.8C274.5 225.5 273.6 225.2 273 224.7C272.4 224.2 272.1 223.5 272.1 222.6C272.1 221.7 272.5 220.6 273.2 220C274 219.4 275 219 276.4 219C277.8 219 278.8 219.3 279.6 219.9C280.5 220.5 281.1 221.3 281.4 222.2L285.4 220.9C285 219.8 284.4 218.9 283.7 218.1C282.9 217.3 281.9 216.6 280.8 216.1C279.6 215.6 278.2 215.4 276.7 215.4C273.9 215.4 271.7 216 270.2 217.3C268.7 218.6 267.9 220.4 267.9 222.7C267.9 225 268.2 225 268.7 225.9C269.2 226.8 270 227.5 270.9 228.1C271.8 228.7 272.9 229.1 274 229.4L277 230.2C278.3 230.5 279.3 231 280 231.6C280.8 232.2 281.1 233 281.1 233.9C281.1 234.8 280.7 235.8 279.8 236.4C278.9 237 277.7 237.4 276.2 237.4C274.9 237.4 273.8 237 272.9 236.4C272 235.7 271.4 235 271.1 234.1L267.1 235.3C267.3 236 267.7 236.7 268.2 237.4C268.7 238.1 269.4 238.7 270.2 239.2C271 239.7 272 240.2 273 240.5C274.1 240.8 275.3 241 276.5 241C278.4 241 280 240.7 281.4 240.1C282.7 239.5 283.7 238.6 284.4 237.6C285.1 236.5 285.4 235.3 285.4 233.9C285.4 232.5 284.8 230.8 283.6 229.5C282.4 228.2 280.7 227.3 278.4 226.7L278.5 226.5Z" fill="#BA9863"/>
<path d="M294.1 215.8H290V240.5H294.1V215.8Z" fill="#BA9863"/>
<path d="M317.3 217C315.4 215.9 313.3 215.4 310.8 215.4C308.3 215.4 306.2 215.9 304.4 217C302.5 218.1 301.1 219.6 300 221.5C298.9 223.4 298.4 225.6 298.4 228.1C298.4 230.6 298.9 232.8 300 234.7C301.1 236.6 302.5 238.1 304.4 239.2C306.3 240.3 308.4 240.8 310.9 240.8C313.4 240.8 315.5 240.3 317.3 239.2C319.1 238.1 320.6 236.6 321.6 234.7C322.6 232.8 323.2 230.6 323.2 228.1C323.2 225.6 322.7 223.4 321.6 221.5C320.6 219.6 319.1 218.1 317.2 217H317.3ZM318 232.8C317.3 234.2 316.3 235.2 315.1 236C313.9 236.8 312.5 237.2 310.9 237.2C309.3 237.2 307.8 236.8 306.6 236C305.3 235.2 304.4 234.2 303.6 232.8C302.9 231.4 302.5 229.9 302.5 228.1C302.5 226.3 302.9 224.8 303.6 223.4C304.3 222 305.3 221 306.5 220.2C307.7 219.4 309.2 219.1 310.8 219.1C312.4 219.1 313.9 219.5 315.1 220.2C316.3 221 317.3 222 318 223.4C318.7 224.8 319.1 226.3 319.1 228.1C319.1 229.9 318.8 231.4 318.1 232.8H318Z" fill="#BA9863"/>
<path d="M344.9 233.6L331.8 215.8H327.6V240.5H331.7V222.4L344.9 240.5H349V215.8H344.9V233.6Z" fill="#BA9863"/>
<path d="M363.4 240.5H367.5V230.2H377.1V226.4H367.5V219.5H378.7V215.8H363.4V240.5Z" fill="#BA9863"/>
<path d="M400.1 217C398.2 215.9 396.1 215.4 393.6 215.4C391.1 215.4 389 215.9 387.2 217C385.3 218.1 383.9 219.6 382.8 221.5C381.7 223.4 381.2 225.6 381.2 228.1C381.2 230.6 381.7 232.8 382.8 234.7C383.9 236.6 385.3 238.1 387.2 239.2C389.1 240.3 391.2 240.8 393.7 240.8C396.2 240.8 398.3 240.3 400.1 239.2C401.9 238.1 403.4 236.6 404.4 234.7C405.4 232.8 406 230.6 406 228.1C406 225.6 405.5 223.4 404.4 221.5C403.4 219.6 401.9 218.1 400 217H400.1ZM400.9 232.8C400.2 234.2 399.2 235.2 398 236C396.8 236.8 395.4 237.2 393.8 237.2C392.2 237.2 390.7 236.8 389.5 236C388.2 235.2 387.3 234.2 386.5 232.8C385.8 231.4 385.4 229.9 385.4 228.1C385.4 226.3 385.8 224.8 386.5 223.4C387.2 222 388.2 221 389.4 220.2C390.6 219.4 392.1 219.1 393.7 219.1C395.3 219.1 396.8 219.5 398 220.2C399.2 221 400.2 222 400.9 223.4C401.6 224.8 402 226.3 402 228.1C402 229.9 401.7 231.4 401 232.8H400.9Z" fill="#BA9863"/>
<path d="M423.4 230.4C424.7 229.7 425.8 228.8 426.6 227.6C427.4 226.4 427.7 225.1 427.7 223.5C427.7 221.9 427.3 220.6 426.6 219.5C425.9 218.3 424.9 217.4 423.6 216.8C422.3 216.1 420.8 215.8 419.1 215.8H410.4V240.5H414.5V231.4H418.8L424.1 240.5H428.7L422.9 230.6C423.1 230.6 423.3 230.5 423.5 230.4H423.4ZM414.5 219.5H419C420.3 219.5 421.4 219.9 422.3 220.6C423.1 221.4 423.6 222.3 423.6 223.5C423.6 224.7 423.4 225 423 225.6C422.6 226.2 422.1 226.7 421.5 227C420.9 227.4 420.2 227.5 419.4 227.5H414.6V219.4L414.5 219.5Z" fill="#BA9863"/>
<path d="M452.7 215.8H448.6L438.8 240.5H443.1L445.5 234.4H456.1L458.5 240.5H462.8L452.9 215.8H452.7ZM446.9 230.8L450.8 220.8L454.7 230.8H446.9Z" fill="#BA9863"/>
<path d="M470.1 215.8H466V240.5H481.3V236.7H470.1V215.8Z" fill="#BA9863"/>
<path d="M500 231.5C500 232.7 499.8 233.7 499.3 234.5C498.8 235.4 498.2 236 497.3 236.5C496.4 237 495.4 237.2 494.2 237.2C493 237.2 492.1 237 491.2 236.5C490.3 236 489.7 235.3 489.2 234.5C488.7 233.6 488.5 232.6 488.5 231.5V215.8H484.4V231.5C484.4 233.4 484.8 235.1 485.6 236.5C486.4 237.9 487.6 239 489 239.8C490.5 240.6 492.2 241 494.1 241C496 241 497.9 240.6 499.4 239.8C500.9 239 502 237.9 502.9 236.5C503.7 235.1 504.1 233.4 504.1 231.5V215.8H500V231.5Z" fill="#BA9863"/>
<path d="M513.7 215.8H509.6V240.5H524.9V236.7H513.7V215.8Z" fill="#BA9863"/>
<path d="M539.6 215.8H535.5L525.7 240.5H530L532.4 234.4H543L545.4 240.5H549.7L539.8 215.8H539.6ZM533.8 230.8L537.7 220.8L541.6 230.8H533.8Z" fill="#BA9863"/>
</svg>
