<svg width="411" height="231" viewBox="0 0 411 231" fill="none" xmlns="http://www.w3.org/2000/svg">
<path d="M2.16101 -1L0.300964 0.860001L12.791 13.33C13.3207 13.8528 13.7413 14.4756 14.0284 15.1623C14.3155 15.8489 14.4633 16.5857 14.4633 17.33C14.4633 18.0743 14.3155 18.8111 14.0284 19.4978C13.7413 20.1844 13.3207 20.8072 12.791 21.33L0.291016 33.87L2.151 35.73L19.211 18.66C19.38 18.4935 19.5142 18.295 19.6058 18.0761C19.6974 17.8572 19.7446 17.6223 19.7446 17.385C19.7446 17.1477 19.6974 16.9128 19.6058 16.6939C19.5142 16.475 19.38 16.2765 19.211 16.11L2.16101 -1Z" fill="#28AA3A"/>
<path d="M64.1302 -1L65.9902 0.860001L53.5002 13.33C52.9705 13.8528 52.5499 14.4756 52.2628 15.1623C51.9757 15.8489 51.8279 16.5857 51.8279 17.33C51.8279 18.0743 51.9757 18.8111 52.2628 19.4978C52.5499 20.1844 52.9705 20.8072 53.5002 21.33L65.9902 33.87L64.1302 35.73L47.0702 18.66C46.7337 18.321 46.5449 17.8627 46.5449 17.385C46.5449 16.9073 46.7337 16.449 47.0702 16.11L64.1302 -1Z" fill="#28AA3A"/>
<path d="M94.6415 -1L92.7815 0.860001L105.271 13.33C105.801 13.8528 106.222 14.4756 106.509 15.1623C106.796 15.8489 106.944 16.5857 106.944 17.33C106.944 18.0743 106.796 18.8111 106.509 19.4978C106.222 20.1844 105.801 20.8072 105.271 21.33L92.7715 33.87L94.6316 35.73L111.692 18.66C111.861 18.4935 111.995 18.295 112.086 18.0761C112.178 17.8572 112.225 17.6223 112.225 17.385C112.225 17.1477 112.178 16.9128 112.086 16.6939C111.995 16.475 111.861 16.2765 111.692 16.11L94.6415 -1Z" fill="#28AA3A"/>
<path d="M156.611 -1L158.471 0.860001L145.991 13.33C145.46 13.8521 145.038 14.4747 144.75 15.1614C144.462 15.8482 144.314 16.5854 144.314 17.33C144.314 18.0746 144.462 18.8118 144.75 19.4986C145.038 20.1853 145.46 20.8079 145.991 21.33L158.451 33.82L156.591 35.68L139.551 18.61C139.214 18.271 139.025 17.8127 139.025 17.335C139.025 16.8573 139.214 16.399 139.551 16.06L156.611 -1Z" fill="#28AA3A"/>
<path d="M187.12 -1L185.26 0.860001L197.75 13.33C198.28 13.8528 198.7 14.4756 198.987 15.1623C199.274 15.8489 199.422 16.5857 199.422 17.33C199.422 18.0743 199.274 18.8111 198.987 19.4978C198.7 20.1844 198.28 20.8072 197.75 21.33L185.25 33.87L187.11 35.73L204.17 18.66C204.339 18.4935 204.473 18.295 204.565 18.0761C204.656 17.8572 204.704 17.6223 204.704 17.385C204.704 17.1477 204.656 16.9128 204.565 16.6939C204.473 16.475 204.339 16.2765 204.17 16.11L187.12 -1Z" fill="#28AA3A"/>
<path d="M249.091 -1L250.951 0.860001L238.451 13.33C237.92 13.8521 237.499 14.4747 237.211 15.1614C236.923 15.8482 236.775 16.5854 236.775 17.33C236.775 18.0746 236.923 18.8118 237.211 19.4986C237.499 20.1853 237.92 20.8079 238.451 21.33L250.941 33.87L249.081 35.73L232.021 18.66C231.685 18.321 231.496 17.8627 231.496 17.385C231.496 16.9073 231.685 16.449 232.021 16.11L249.091 -1Z" fill="#28AA3A"/>
<path d="M279.6 -1L277.74 0.860001L290.23 13.33C290.76 13.8528 291.181 14.4756 291.468 15.1623C291.755 15.8489 291.903 16.5857 291.903 17.33C291.903 18.0743 291.755 18.8111 291.468 19.4978C291.181 20.1844 290.76 20.8072 290.23 21.33L277.73 33.87L279.59 35.73L296.65 18.66C296.819 18.4935 296.954 18.295 297.045 18.0761C297.137 17.8572 297.184 17.6223 297.184 17.385C297.184 17.1477 297.137 16.9128 297.045 16.6939C296.954 16.475 296.819 16.2765 296.65 16.11L279.6 -1Z" fill="#28AA3A"/>
<path d="M341.571 -1L343.431 0.860001L330.951 13.33C330.421 13.8528 330.001 14.4756 329.714 15.1623C329.427 15.8489 329.279 16.5857 329.279 17.33C329.279 18.0743 329.427 18.8111 329.714 19.4978C330.001 20.1844 330.421 20.8072 330.951 21.33L343.451 33.82L341.591 35.68L324.531 18.61C324.195 18.271 324.006 17.8127 324.006 17.335C324.006 16.8573 324.195 16.399 324.531 16.06L341.571 -1Z" fill="#28AA3A"/>
<path d="M372.081 -1L370.221 0.860001L382.711 13.33C383.241 13.8528 383.661 14.4756 383.948 15.1623C384.235 15.8489 384.383 16.5857 384.383 17.33C384.383 18.0743 384.235 18.8111 383.948 19.4978C383.661 20.1844 383.241 20.8072 382.711 21.33L370.211 33.87L372.071 35.73L389.141 18.66C389.477 18.321 389.666 17.8627 389.666 17.385C389.666 16.9073 389.477 16.449 389.141 16.11L372.081 -1Z" fill="#28AA3A"/>
<path d="M17.89 62.47L19.7499 64.32C15.5899 68.48 11.4266 72.6367 7.25995 76.79C6.73144 77.3135 6.31194 77.9365 6.02563 78.6231C5.73933 79.3096 5.59186 80.0461 5.59186 80.79C5.59186 81.5339 5.73933 82.2704 6.02563 82.9569C6.31194 83.6435 6.73144 84.2665 7.25995 84.79L19.7499 97.32L17.89 99.18L0.829956 82.08C0.49348 81.741 0.304688 81.2827 0.304688 80.805C0.304688 80.3273 0.49348 79.869 0.829956 79.53L17.89 62.47Z" fill="#28AA3A"/>
<path d="M48.4501 62.47L46.5901 64.32L59.0801 76.79C59.6086 77.3135 60.0281 77.9365 60.3145 78.6231C60.6008 79.3096 60.7482 80.0461 60.7482 80.79C60.7482 81.5339 60.6008 82.2704 60.3145 82.9569C60.0281 83.6435 59.6086 84.2665 59.0801 84.79L46.5801 97.32L48.4501 99.18L65.4501 82.08C65.6191 81.9135 65.7534 81.715 65.845 81.4961C65.9366 81.2772 65.9836 81.0423 65.9836 80.805C65.9836 80.5677 65.9366 80.3328 65.845 80.1139C65.7534 79.895 65.6191 79.6965 65.4501 79.53L48.4501 62.47Z" fill="#28AA3A"/>
<path d="M110.37 62.47L112.23 64.32C108.07 68.48 103.907 72.6367 99.7405 76.79C99.212 77.3135 98.7924 77.9365 98.5061 78.6231C98.2198 79.3096 98.0724 80.0461 98.0724 80.79C98.0724 81.5339 98.2198 82.2704 98.5061 82.9569C98.7924 83.6435 99.212 84.2665 99.7405 84.79L112.23 97.32L110.37 99.18L93.3104 82.08C92.9739 81.741 92.7852 81.2827 92.7852 80.805C92.7852 80.3273 92.9739 79.869 93.3104 79.53L110.37 62.47Z" fill="#28AA3A"/>
<path d="M140.882 62.47L139.022 64.32L151.512 76.79C152.04 77.3135 152.46 77.9365 152.746 78.6231C153.032 79.3096 153.18 80.0461 153.18 80.79C153.18 81.5339 153.032 82.2704 152.746 82.9569C152.46 83.6435 152.04 84.2665 151.512 84.79L139.012 97.32L140.872 99.18L157.932 82.12C158.101 81.9535 158.235 81.755 158.327 81.5361C158.418 81.3172 158.465 81.0823 158.465 80.845C158.465 80.6077 158.418 80.3728 158.327 80.1539C158.235 79.935 158.101 79.7365 157.932 79.57L140.882 62.47Z" fill="#28AA3A"/>
<path d="M202.851 62.47L204.711 64.32L192.231 76.79C191.702 77.3135 191.283 77.9365 190.997 78.6231C190.71 79.3096 190.563 80.0461 190.563 80.79C190.563 81.5339 190.71 82.2704 190.997 82.9569C191.283 83.6435 191.702 84.2665 192.231 84.79L204.721 97.32L202.851 99.18L185.791 82.08C185.454 81.741 185.266 81.2827 185.266 80.805C185.266 80.3273 185.454 79.869 185.791 79.53L202.851 62.47Z" fill="#28AA3A"/>
<path d="M233.36 62.47L231.5 64.32L243.99 76.79C244.519 77.3135 244.938 77.9365 245.224 78.6231C245.511 79.3096 245.658 80.0461 245.658 80.79C245.658 81.5339 245.511 82.2704 245.224 82.9569C244.938 83.6435 244.519 84.2665 243.99 84.79L231.49 97.32L233.35 99.18L250.45 82.08C250.619 81.9135 250.753 81.715 250.845 81.4961C250.937 81.2772 250.984 81.0423 250.984 80.805C250.984 80.5677 250.937 80.3328 250.845 80.1139C250.753 79.895 250.619 79.6965 250.45 79.53L233.36 62.47Z" fill="#28AA3A"/>
<path d="M295.331 62.47L297.191 64.32L284.711 76.79C284.183 77.3135 283.763 77.9365 283.477 78.6231C283.191 79.3096 283.043 80.0461 283.043 80.79C283.043 81.5339 283.191 82.2704 283.477 82.9569C283.763 83.6435 284.183 84.2665 284.711 84.79L297.201 97.32L295.341 99.18L278.271 82.08C277.935 81.741 277.746 81.2827 277.746 80.805C277.746 80.3273 277.935 79.869 278.271 79.53L295.331 62.47Z" fill="#28AA3A"/>
<path d="M325.841 62.47L323.981 64.32L336.451 76.79C336.98 77.3135 337.399 77.9365 337.686 78.6231C337.972 79.3096 338.119 80.0461 338.119 80.79C338.119 81.5339 337.972 82.2704 337.686 82.9569C337.399 83.6435 336.98 84.2665 336.451 84.79L323.951 97.32L325.811 99.18L342.871 82.12C343.04 81.9535 343.174 81.755 343.266 81.5361C343.358 81.3172 343.405 81.0823 343.405 80.845C343.405 80.6077 343.358 80.3728 343.266 80.1539C343.174 79.935 343.04 79.7365 342.871 79.57L325.841 62.47Z" fill="#28AA3A"/>
<path d="M387.812 62.47L389.672 64.32L377.192 76.79C376.663 77.3135 376.244 77.9365 375.958 78.6231C375.671 79.3096 375.524 80.0461 375.524 80.79C375.524 81.5339 375.671 82.2704 375.958 82.9569C376.244 83.6435 376.663 84.2665 377.192 84.79L389.682 97.32L387.822 99.18L370.752 82.08C370.415 81.741 370.227 81.2827 370.227 80.805C370.227 80.3273 370.415 79.869 370.752 79.53L387.812 62.47Z" fill="#28AA3A"/>
<path d="M2.16101 125.93L0.300964 127.79L12.791 140.26C13.3132 140.782 13.7274 141.402 14.01 142.084C14.2926 142.766 14.4381 143.497 14.4381 144.235C14.4381 144.973 14.2926 145.704 14.01 146.386C13.7274 147.068 13.3132 147.688 12.791 148.21L0.291016 160.75L2.151 162.61L19.211 145.54C19.38 145.373 19.5142 145.175 19.6058 144.956C19.6974 144.737 19.7446 144.502 19.7446 144.265C19.7446 144.028 19.6974 143.793 19.6058 143.574C19.5142 143.355 19.38 143.157 19.211 142.99L2.16101 125.93Z" fill="#28AA3A"/>
<path d="M64.1302 125.93L65.9902 127.79L53.5002 140.26C52.9781 140.782 52.5637 141.402 52.2811 142.084C51.9985 142.766 51.853 143.497 51.853 144.235C51.853 144.973 51.9985 145.704 52.2811 146.386C52.5637 147.068 52.9781 147.688 53.5002 148.21L65.9902 160.75L64.1302 162.61L47.0702 145.54C46.7337 145.201 46.5449 144.743 46.5449 144.265C46.5449 143.787 46.7337 143.329 47.0702 142.99L64.1302 125.93Z" fill="#28AA3A"/>
<path d="M94.6415 125.93L92.7815 127.79L105.271 140.26C105.794 140.782 106.208 141.402 106.491 142.084C106.773 142.766 106.919 143.497 106.919 144.235C106.919 144.973 106.773 145.704 106.491 146.386C106.208 147.068 105.794 147.688 105.271 148.21L92.7715 160.75L94.6316 162.61L111.692 145.54C111.861 145.373 111.995 145.175 112.086 144.956C112.178 144.737 112.225 144.502 112.225 144.265C112.225 144.028 112.178 143.793 112.086 143.574C111.995 143.355 111.861 143.157 111.692 142.99L94.6415 125.93Z" fill="#28AA3A"/>
<path d="M156.611 125.93L158.471 127.79L145.991 140.26C145.468 140.781 145.053 141.401 144.769 142.083C144.486 142.765 144.34 143.496 144.34 144.235C144.34 144.974 144.486 145.705 144.769 146.387C145.053 147.069 145.468 147.689 145.991 148.21L158.451 160.75L156.591 162.61L139.531 145.54C139.195 145.201 139.006 144.743 139.006 144.265C139.006 143.787 139.195 143.329 139.531 142.99L156.611 125.93Z" fill="#28AA3A"/>
<path d="M187.12 125.93L185.26 127.79L197.75 140.26C198.272 140.782 198.686 141.402 198.969 142.084C199.252 142.766 199.397 143.497 199.397 144.235C199.397 144.973 199.252 145.704 198.969 146.386C198.686 147.068 198.272 147.688 197.75 148.21L185.25 160.75L187.11 162.61L204.17 145.54C204.339 145.373 204.473 145.175 204.565 144.956C204.656 144.737 204.704 144.502 204.704 144.265C204.704 144.028 204.656 143.793 204.565 143.574C204.473 143.355 204.339 143.157 204.17 142.99L187.12 125.93Z" fill="#28AA3A"/>
<path d="M249.091 125.93L250.951 127.79L238.451 140.26C237.928 140.781 237.513 141.401 237.229 142.083C236.946 142.765 236.8 143.496 236.8 144.235C236.8 144.974 236.946 145.705 237.229 146.387C237.513 147.069 237.928 147.689 238.451 148.21L250.941 160.75L249.081 162.61L232.021 145.54C231.685 145.201 231.496 144.743 231.496 144.265C231.496 143.787 231.685 143.329 232.021 142.99L249.091 125.93Z" fill="#28AA3A"/>
<path d="M279.6 125.93L277.74 127.79L290.23 140.26C290.753 140.782 291.167 141.402 291.449 142.084C291.732 142.766 291.878 143.497 291.878 144.235C291.878 144.973 291.732 145.704 291.449 146.386C291.167 147.068 290.753 147.688 290.23 148.21L277.73 160.75L279.59 162.61L296.65 145.54C296.819 145.373 296.954 145.175 297.045 144.956C297.137 144.737 297.184 144.502 297.184 144.265C297.184 144.028 297.137 143.793 297.045 143.574C296.954 143.355 296.819 143.157 296.65 142.99L279.6 125.93Z" fill="#28AA3A"/>
<path d="M341.571 125.93L343.431 127.79L330.951 140.26C330.429 140.782 330.015 141.402 329.732 142.084C329.45 142.766 329.304 143.497 329.304 144.235C329.304 144.973 329.45 145.704 329.732 146.386C330.015 147.068 330.429 147.688 330.951 148.21L343.451 160.75L341.591 162.61L324.531 145.54C324.195 145.201 324.006 144.743 324.006 144.265C324.006 143.787 324.195 143.329 324.531 142.99L341.571 125.93Z" fill="#28AA3A"/>
<path d="M372.081 125.93L370.221 127.79L382.711 140.26C383.233 140.782 383.647 141.402 383.93 142.084C384.213 142.766 384.358 143.497 384.358 144.235C384.358 144.973 384.213 145.704 383.93 146.386C383.647 147.068 383.233 147.688 382.711 148.21L370.211 160.75L372.071 162.61L389.141 145.54C389.477 145.201 389.666 144.743 389.666 144.265C389.666 143.787 389.477 143.329 389.141 142.99L372.081 125.93Z" fill="#28AA3A"/>
<path d="M17.89 189.4L19.7499 191.26L7.25995 203.73C6.73777 204.252 6.32351 204.872 6.04089 205.554C5.75827 206.236 5.61285 206.967 5.61285 207.705C5.61285 208.443 5.75827 209.174 6.04089 209.856C6.32351 210.538 6.73777 211.158 7.25995 211.68L19.7499 224.18L17.89 226.04L0.829956 208.98C0.49348 208.641 0.304688 208.183 0.304688 207.705C0.304688 207.227 0.49348 206.769 0.829956 206.43L17.89 189.4Z" fill="#28AA3A"/>
<path d="M48.451 189.4L46.5911 191.26L59.0811 203.73C59.6032 204.252 60.0174 204.872 60.3 205.554C60.5827 206.236 60.7281 206.967 60.7281 207.705C60.7281 208.443 60.5827 209.174 60.3 209.856C60.0174 210.538 59.6032 211.158 59.0811 211.68L46.541 224.18L48.401 226.04L65.451 209.01C65.6201 208.843 65.7543 208.645 65.8459 208.426C65.9376 208.207 65.9846 207.972 65.9846 207.735C65.9846 207.498 65.9376 207.263 65.8459 207.044C65.7543 206.825 65.6201 206.627 65.451 206.46L48.451 189.4Z" fill="#28AA3A"/>
<path d="M110.37 189.4L112.23 191.26L99.7405 203.73C99.2183 204.252 98.804 204.872 98.5214 205.554C98.2387 206.236 98.0933 206.967 98.0933 207.705C98.0933 208.443 98.2387 209.174 98.5214 209.856C98.804 210.538 99.2183 211.158 99.7405 211.68L112.23 224.18L110.37 226.04L93.3104 208.98C92.9739 208.641 92.7852 208.183 92.7852 207.705C92.7852 207.227 92.9739 206.769 93.3104 206.43L110.37 189.4Z" fill="#28AA3A"/>
<path d="M140.882 189.4L139.021 191.26L151.512 203.73C152.034 204.252 152.448 204.872 152.731 205.554C153.013 206.236 153.159 206.967 153.159 207.705C153.159 208.443 153.013 209.174 152.731 209.856C152.448 210.538 152.034 211.158 151.512 211.68L139.021 224.18L140.882 226.04L157.942 208.98C158.111 208.813 158.245 208.615 158.336 208.396C158.428 208.177 158.475 207.942 158.475 207.705C158.475 207.468 158.428 207.233 158.336 207.014C158.245 206.795 158.111 206.597 157.942 206.43L140.882 189.4Z" fill="#28AA3A"/>
<path d="M202.851 189.4L204.711 191.26L192.231 203.73C191.708 204.251 191.292 204.871 191.009 205.553C190.726 206.235 190.58 206.966 190.58 207.705C190.58 208.444 190.726 209.175 191.009 209.857C191.292 210.539 191.708 211.159 192.231 211.68L204.711 224.18L202.851 226.04L185.791 208.98C185.454 208.641 185.266 208.183 185.266 207.705C185.266 207.227 185.454 206.769 185.791 206.43L202.851 189.4Z" fill="#28AA3A"/>
<path d="M233.36 189.4L231.5 191.26L243.99 203.73C244.512 204.252 244.926 204.872 245.209 205.554C245.492 206.236 245.637 206.967 245.637 207.705C245.637 208.443 245.492 209.174 245.209 209.856C244.926 210.538 244.512 211.158 243.99 211.68L231.5 224.18L233.36 226.04L250.45 209.01C250.619 208.843 250.753 208.645 250.845 208.426C250.936 208.207 250.984 207.972 250.984 207.735C250.984 207.498 250.936 207.263 250.845 207.044C250.753 206.825 250.619 206.627 250.45 206.46L233.36 189.4Z" fill="#28AA3A"/>
<path d="M295.331 189.4L297.191 191.26L284.711 203.73C284.188 204.251 283.773 204.871 283.489 205.553C283.206 206.235 283.06 206.966 283.06 207.705C283.06 208.444 283.206 209.175 283.489 209.857C283.773 210.539 284.188 211.159 284.711 211.68L297.191 224.18L295.331 226.04L278.271 208.98C277.935 208.641 277.746 208.183 277.746 207.705C277.746 207.227 277.935 206.769 278.271 206.43L295.331 189.4Z" fill="#28AA3A"/>
<path d="M325.84 189.4L323.98 191.26L336.45 203.73C336.973 204.252 337.387 204.872 337.669 205.554C337.952 206.236 338.098 206.967 338.098 207.705C338.098 208.443 337.952 209.174 337.669 209.856C337.387 210.538 336.973 211.158 336.45 211.68L323.98 224.18L325.84 226.04L342.9 208.98C343.069 208.813 343.204 208.615 343.295 208.396C343.387 208.177 343.434 207.942 343.434 207.705C343.434 207.468 343.387 207.233 343.295 207.014C343.204 206.795 343.069 206.597 342.9 206.43L325.84 189.4Z" fill="#28AA3A"/>
<path d="M387.812 189.4L389.672 191.26L377.192 203.73C376.67 204.252 376.256 204.872 375.973 205.554C375.69 206.236 375.545 206.967 375.545 207.705C375.545 208.443 375.69 209.174 375.973 209.856C376.256 210.538 376.67 211.158 377.192 211.68L389.672 224.18L387.812 226.04L370.752 208.98C370.415 208.641 370.227 208.183 370.227 207.705C370.227 207.227 370.415 206.769 370.752 206.43L387.812 189.4Z" fill="#28AA3A"/>
</svg>
