<svg width="297" height="193" viewBox="0 0 297 193" fill="none" xmlns="http://www.w3.org/2000/svg">
<path d="M259.24 0.36377V4.15697H284.682C286.833 4.15697 288.896 5.01107 290.418 6.53167C291.94 8.05228 292.797 10.1151 292.8 12.2669V37.7936H296.591V2.97093C296.591 2.28681 296.323 1.63006 295.843 1.14234C295.364 0.65461 294.712 0.374985 294.028 0.36377L259.24 0.36377Z" fill="#92D240"/>
<path d="M-0.00585937 37.7615H3.78585C3.78585 29.2776 3.78585 20.7936 3.78585 12.3097C3.78445 11.2438 3.9931 10.188 4.39988 9.20287C4.80665 8.21769 5.40357 7.32239 6.15649 6.56818C6.90942 5.81396 7.80358 5.21563 8.78784 4.8074C9.77209 4.39917 10.8271 4.18905 11.8926 4.18905L37.3772 4.15699V0.363792H2.60027C2.25854 0.362385 1.91989 0.428506 1.60376 0.558361C1.28763 0.688216 1.00025 0.879248 0.758104 1.12049C0.515961 1.36174 0.323826 1.64845 0.192725 1.96416C0.0616234 2.27988 -0.00586227 2.61839 -0.00585937 2.96026L-0.00585937 37.7615Z" fill="#92D240"/>
<path d="M37.3772 192.364V188.571H11.9354C10.8699 188.572 9.81454 188.363 8.82975 187.956C7.84495 187.549 6.95001 186.952 6.19609 186.199C5.44218 185.446 4.84408 184.551 4.43601 183.567C4.02794 182.582 3.81789 181.527 3.81789 180.461V154.934H-0.00585938V189.746C-0.00585937 190.435 0.267589 191.095 0.754331 191.582C1.24107 192.069 1.90124 192.342 2.58959 192.342L37.3772 192.364Z" fill="#92D240"/>
<path d="M296.632 154.955H292.84C292.84 163.439 292.84 171.923 292.84 180.407C292.84 182.56 291.987 184.625 290.467 186.149C288.947 187.674 286.885 188.533 284.733 188.539H259.217V192.332H294.004C294.346 192.333 294.685 192.267 295.001 192.137C295.317 192.007 295.604 191.816 295.847 191.575C296.089 191.334 296.281 191.047 296.412 190.731C296.543 190.416 296.611 190.077 296.611 189.735L296.632 154.955Z" fill="#92D240"/>
</svg>
