<svg width="229" height="48" viewBox="0 0 229 48" fill="none" xmlns="http://www.w3.org/2000/svg">
<path d="M0.198242 5.59768V46.0211C0.198242 46.5433 0.405714 47.0442 0.775016 47.4135C1.14432 47.7828 1.6452 47.9903 2.16747 47.9903H3.54593C3.80454 47.9903 4.06061 47.9394 4.29953 47.8404C4.53844 47.7414 4.75553 47.5964 4.93839 47.4135C5.12125 47.2307 5.2663 47.0136 5.36527 46.7747C5.46423 46.5357 5.51516 46.2797 5.51516 46.0211V7.57676C5.51516 7.05449 5.72264 6.55361 6.09194 6.18431C6.46124 5.815 6.96212 5.60753 7.4844 5.60753H26.0247C26.547 5.60753 27.0479 5.40006 27.4172 5.03076C27.7865 4.66145 27.9939 4.16057 27.9939 3.6383V2.24999C27.9939 1.72772 27.7865 1.22684 27.4172 0.857536C27.0479 0.488234 26.547 0.280762 26.0247 0.280762H2.16747C1.6452 0.280762 1.14432 0.488234 0.775016 0.857536C0.405714 1.22684 0.198242 1.72772 0.198242 2.24999L0.198242 5.59768Z" fill="white"/>
<path d="M105.217 1.96927V4.36189C105.226 4.73783 105.342 5.10341 105.552 5.41543L127.543 39.5324C127.721 39.8119 127.967 40.0421 128.257 40.2015C128.548 40.361 128.874 40.4446 129.205 40.4446C129.536 40.4446 129.862 40.361 130.153 40.2015C130.443 40.0421 130.689 39.8119 130.867 39.5324L152.878 5.44004C153.084 5.12027 153.194 4.74749 153.193 4.36681V1.96927C153.201 1.53794 153.067 1.11592 152.812 0.768073C152.556 0.420225 152.194 0.165796 151.78 0.0438861C151.366 -0.0780239 150.924 -0.0606683 150.521 0.0932854C150.118 0.247239 149.777 0.529272 149.55 0.896041L130.871 29.8536C130.694 30.1342 130.448 30.3654 130.157 30.5256C129.866 30.6857 129.54 30.7697 129.207 30.7697C128.875 30.7697 128.549 30.6857 128.258 30.5256C127.967 30.3654 127.721 30.1342 127.543 29.8536L108.836 0.91081C108.605 0.556674 108.266 0.286302 107.869 0.13969C107.473 -0.00692159 107.039 -0.0219867 106.634 0.0967235C106.228 0.215434 105.871 0.461614 105.616 0.798849C105.361 1.13608 105.221 1.54646 105.217 1.96927Z" fill="white"/>
<path d="M223.617 1.17665L195.378 44.9231C195.182 45.2214 195.07 45.5675 195.056 45.9243C195.041 46.2811 195.123 46.6353 195.294 46.9489C195.465 47.2624 195.718 47.5236 196.026 47.7045C196.334 47.8853 196.685 47.9789 197.043 47.9754H198.598C198.929 47.9765 199.255 47.8941 199.546 47.7358C199.837 47.5774 200.083 47.3483 200.262 47.0696L228.476 3.32311C228.673 3.0252 228.784 2.67958 228.799 2.32318C228.814 1.96677 228.732 1.61297 228.562 1.29956C228.392 0.98614 228.139 0.724885 227.832 0.543694C227.525 0.362503 227.174 0.268182 226.817 0.270805H225.281C224.95 0.269702 224.624 0.35213 224.333 0.510464C224.042 0.668799 223.796 0.897926 223.617 1.17665Z" fill="white"/>
<path d="M209.099 14.8973L200.238 1.17669C200.061 0.901463 199.819 0.674532 199.533 0.516385C199.246 0.358238 198.925 0.273854 198.598 0.270848H197.062C196.705 0.267324 196.354 0.360989 196.046 0.541817C195.738 0.722645 195.485 0.983827 195.314 1.2974C195.143 1.61098 195.06 1.96514 195.075 2.32198C195.09 2.67882 195.202 3.02489 195.398 3.32316L204.998 18.2155C205.176 18.4961 205.422 18.7273 205.713 18.8874C206.003 19.0476 206.33 19.1316 206.662 19.1316C206.994 19.1316 207.321 19.0476 207.612 18.8874C207.903 18.7273 208.149 18.4961 208.326 18.2155L209.094 17.0241C209.299 16.7072 209.408 16.3384 209.409 15.9614C209.409 15.5844 209.302 15.2151 209.099 14.8973Z" fill="white"/>
<path d="M215.534 30.0309L214.766 31.2223C214.558 31.5417 214.448 31.9145 214.448 32.2955C214.448 32.6765 214.558 33.0493 214.766 33.3687L223.627 47.0795C223.806 47.3582 224.052 47.5874 224.343 47.7457C224.634 47.904 224.96 47.9865 225.291 47.9854H226.832C227.189 47.9889 227.541 47.8952 227.849 47.7144C228.157 47.5336 228.41 47.2724 228.581 46.9588C228.751 46.6452 228.834 46.2911 228.819 45.9342C228.804 45.5774 228.693 45.2313 228.496 44.9331L218.862 30.0309C218.684 29.7503 218.438 29.5191 218.147 29.3589C217.857 29.1987 217.53 29.1147 217.198 29.1147C216.866 29.1147 216.539 29.1987 216.248 29.3589C215.957 29.5191 215.711 29.7503 215.534 30.0309Z" fill="white"/>
<path d="M180.988 21.4597H170.512C169.419 21.4597 168.533 22.3458 168.533 23.4388V24.8074C168.533 25.9004 169.419 26.7865 170.512 26.7865H180.988C182.081 26.7865 182.967 25.9004 182.967 24.8074V23.4388C182.967 22.3458 182.081 21.4597 180.988 21.4597Z" fill="white"/>
<path d="M21.973 21.4597H11.4967C10.4036 21.4597 9.51758 22.3458 9.51758 23.4388V24.8074C9.51758 25.9004 10.4036 26.7865 11.4967 26.7865H21.973C23.066 26.7865 23.952 25.9004 23.952 24.8074V23.4388C23.952 22.3458 23.066 21.4597 21.973 21.4597Z" fill="white"/>
<path d="M187.275 3.61861V2.24999C187.275 1.72772 187.068 1.22684 186.698 0.857536C186.329 0.488234 185.828 0.280762 185.306 0.280762H161.326C160.803 0.280762 160.303 0.488234 159.933 0.857536C159.564 1.22684 159.356 1.72772 159.356 2.24999V45.9965C159.356 46.5187 159.564 47.0196 159.933 47.3889C160.303 47.7582 160.803 47.9657 161.326 47.9657H185.306C185.828 47.9657 186.329 47.7582 186.698 47.3889C187.068 47.0196 187.275 46.5187 187.275 45.9965V44.6278C187.275 44.1056 187.068 43.6047 186.698 43.2354C186.329 42.8661 185.828 42.6586 185.306 42.6586H166.652C166.13 42.6586 165.629 42.4511 165.26 42.0818C164.891 41.7125 164.683 41.2117 164.683 40.6894V7.57676C164.683 7.05449 164.891 6.55361 165.26 6.18431C165.629 5.815 166.13 5.60753 166.652 5.60753H185.306C185.566 5.60754 185.824 5.55596 186.064 5.45577C186.304 5.35558 186.522 5.20876 186.705 5.02381C186.889 4.83886 187.033 4.61944 187.131 4.37825C187.229 4.13705 187.278 3.87886 187.275 3.61861Z" fill="white"/>
<path d="M107.196 47.9755H108.565C109.087 47.9755 109.588 47.7681 109.958 47.3988C110.327 47.0294 110.534 46.5286 110.534 46.0063V20.5146C110.535 20.1339 110.426 19.7611 110.219 19.4414L108.851 17.3146C108.624 16.9482 108.283 16.6664 107.88 16.5124C107.478 16.3584 107.036 16.3406 106.622 16.4619C106.209 16.5832 105.846 16.8367 105.591 17.1837C105.335 17.5307 105.201 17.952 105.208 18.3829V45.9964C105.206 46.2575 105.257 46.5163 105.356 46.7576C105.456 46.999 105.603 47.2181 105.788 47.4023C105.973 47.5865 106.193 47.732 106.435 47.8304C106.676 47.9288 106.935 47.9781 107.196 47.9755Z" fill="white"/>
<path d="M149.86 47.9755H151.228C151.751 47.9755 152.252 47.768 152.621 47.3987C152.99 47.0294 153.198 46.5285 153.198 46.0063V18.2893C153.206 17.858 153.072 17.436 152.817 17.0881C152.561 16.7403 152.199 16.4859 151.785 16.364C151.371 16.242 150.929 16.2594 150.526 16.4134C150.123 16.5673 149.782 16.8493 149.555 17.2161L148.186 19.333C147.979 19.6528 147.87 20.0256 147.871 20.4063V46.0063C147.871 46.2665 147.922 46.5242 148.023 46.7644C148.123 47.0046 148.27 47.2226 148.455 47.4057C148.64 47.5889 148.859 47.7335 149.1 47.8313C149.341 47.9291 149.6 47.9781 149.86 47.9755Z" fill="white"/>
<path d="M65.7096 22.5823H67.4967C67.666 22.5836 67.828 22.6514 67.9478 22.7712C68.0675 22.8909 68.1354 23.0529 68.1367 23.2223V25.0094C68.1367 25.1791 68.0692 25.3419 67.9492 25.4619C67.8292 25.5819 67.6664 25.6494 67.4967 25.6494H65.7096C65.5398 25.6494 65.3771 25.5819 65.257 25.4619C65.137 25.3419 65.0696 25.1791 65.0696 25.0094V23.2223C65.0696 23.0525 65.137 22.8898 65.257 22.7697C65.3771 22.6497 65.5398 22.5823 65.7096 22.5823Z" fill="white"/>
<path d="M62.3521 27.7957H59.8167C59.3164 27.7957 58.9109 28.2012 58.9109 28.7015V31.2369C58.9109 31.7372 59.3164 32.1427 59.8167 32.1427H62.3521C62.8524 32.1427 63.258 31.7372 63.258 31.2369V28.7015C63.258 28.2012 62.8524 27.7957 62.3521 27.7957Z" fill="white"/>
<path d="M59.738 21.9521H57.2026C56.7023 21.9521 56.2968 22.3577 56.2968 22.858V25.3934C56.2968 25.8937 56.7023 26.2992 57.2026 26.2992H59.738C60.2383 26.2992 60.6438 25.8937 60.6438 25.3934V22.858C60.6438 22.3577 60.2383 21.9521 59.738 21.9521Z" fill="white"/>
<path d="M75.9989 21.9521H73.4635C72.9632 21.9521 72.5576 22.3577 72.5576 22.858V25.3934C72.5576 25.8937 72.9632 26.2992 73.4635 26.2992H75.9989C76.4991 26.2992 76.9047 25.8937 76.9047 25.3934V22.858C76.9047 22.3577 76.4991 21.9521 75.9989 21.9521Z" fill="white"/>
<path d="M55.7109 33.7034H52.0235C51.2921 33.7034 50.6992 34.2963 50.6992 35.0277V38.7151C50.6992 39.4465 51.2921 40.0394 52.0235 40.0394H55.7109C56.4423 40.0394 57.0352 39.4465 57.0352 38.7151V35.0277C57.0352 34.2963 56.4423 33.7034 55.7109 33.7034Z" fill="white"/>
<path d="M62.3521 16.1084H59.8167C59.3164 16.1084 58.9109 16.514 58.9109 17.0142V19.5496C58.9109 20.0499 59.3164 20.4555 59.8167 20.4555H62.3521C62.8524 20.4555 63.258 20.0499 63.258 19.5496V17.0142C63.258 16.514 62.8524 16.1084 62.3521 16.1084Z" fill="white"/>
<path d="M55.706 8.21167H52.0235C51.2921 8.21167 50.6992 8.80458 50.6992 9.53598V13.2184C50.6992 13.9498 51.2921 14.5427 52.0235 14.5427H55.706C56.4374 14.5427 57.0303 13.9498 57.0303 13.2184V9.53598C57.0303 8.80458 56.4374 8.21167 55.706 8.21167Z" fill="white"/>
<path d="M51.1028 20.416H46.7853C45.9288 20.416 45.2345 21.1103 45.2345 21.9668V26.2843C45.2345 27.1408 45.9288 27.8351 46.7853 27.8351H51.1028C51.9593 27.8351 52.6536 27.1408 52.6536 26.2843V21.9668C52.6536 21.1103 51.9593 20.416 51.1028 20.416Z" fill="white"/>
<path d="M86.416 20.416H82.0985C81.242 20.416 80.5477 21.1103 80.5477 21.9668V26.2843C80.5477 27.1408 81.242 27.8351 82.0985 27.8351H86.416C87.2725 27.8351 87.9668 27.1408 87.9668 26.2843V21.9668C87.9668 21.1103 87.2725 20.416 86.416 20.416Z" fill="white"/>
<path d="M73.3404 16.1084H70.805C70.3047 16.1084 69.8992 16.514 69.8992 17.0142V19.5496C69.8992 20.0499 70.3047 20.4555 70.805 20.4555H73.3404C73.8407 20.4555 74.2462 20.0499 74.2462 19.5496V17.0142C74.2462 16.514 73.8407 16.1084 73.3404 16.1084Z" fill="white"/>
<path d="M81.1336 8.21167H77.4463C76.7149 8.21167 76.1219 8.80458 76.1219 9.53598V13.2234C76.1219 13.9548 76.7149 14.5477 77.4463 14.5477H81.1336C81.865 14.5477 82.4579 13.9548 82.4579 13.2234V9.53598C82.4579 8.80458 81.865 8.21167 81.1336 8.21167Z" fill="white"/>
<path d="M73.3404 27.7957H70.805C70.3047 27.7957 69.8992 28.2012 69.8992 28.7015V31.2369C69.8992 31.7372 70.3047 32.1427 70.805 32.1427H73.3404C73.8407 32.1427 74.2462 31.7372 74.2462 31.2369V28.7015C74.2462 28.2012 73.8407 27.7957 73.3404 27.7957Z" fill="white"/>
<path d="M81.1336 33.7083H77.4511C76.7197 33.7083 76.1268 34.3012 76.1268 35.0326V38.715C76.1268 39.4464 76.7197 40.0393 77.4511 40.0393H81.1336C81.865 40.0393 82.4579 39.4464 82.4579 38.715V35.0326C82.4579 34.3012 81.865 33.7083 81.1336 33.7083Z" fill="white"/>
<path d="M47.7946 44.933L46.4752 47.0253C46.352 47.2185 46.1884 47.3828 45.9956 47.5067C45.8028 47.6306 45.5855 47.7113 45.3585 47.7431C45.1316 47.7749 44.9004 47.7572 44.681 47.691C44.4616 47.6249 44.2591 47.512 44.0875 47.3601C44.0794 47.3618 44.071 47.3618 44.0629 47.3601C41.5521 44.8296 36.885 39.3847 35.0241 31.5471C33.6681 25.8247 33.8944 19.8412 35.6789 14.2376C37.3497 9.1781 40.2213 4.59868 44.0481 0.891128C44.2171 0.723415 44.4216 0.595904 44.6466 0.51806C44.8715 0.440216 45.1111 0.414037 45.3476 0.441467C45.5841 0.468898 45.8113 0.549232 46.0125 0.676508C46.2137 0.803784 46.3836 0.974733 46.5097 1.17667C46.9462 1.85605 47.381 2.53544 47.8143 3.21482C48.0097 3.51672 48.0966 3.8761 48.0609 4.23394C48.0251 4.59178 47.8687 4.92682 47.6173 5.18405C44.573 8.28843 42.3028 12.0664 40.9909 16.2117C40.2839 18.53 39.8898 20.9324 39.8192 23.3551C39.7624 25.8239 40.0356 28.2892 40.6315 30.6856C41.8781 35.3188 44.2898 39.5558 47.637 42.9933C47.8767 43.2522 48.0226 43.5842 48.0511 43.9359C48.0797 44.2876 47.9893 44.6387 47.7946 44.933Z" fill="white"/>
<path d="M85.4118 44.933L86.7459 47.0254C86.8691 47.2186 87.0327 47.3829 87.2255 47.5068C87.4183 47.6307 87.6356 47.7114 87.8626 47.7432C88.0895 47.775 88.3207 47.7572 88.5401 47.6911C88.7596 47.625 88.962 47.5121 89.1336 47.3601C91.5951 44.8543 96.2967 39.429 98.1576 31.5718C99.5137 25.8494 99.2873 19.8659 97.5028 14.2623C95.832 9.20279 92.9604 4.62337 89.1336 0.915819C88.9642 0.748971 88.7596 0.622227 88.5348 0.544915C88.3099 0.467604 88.0706 0.441692 87.8345 0.469088C87.5983 0.496484 87.3713 0.576489 87.1701 0.703216C86.9689 0.829943 86.7988 1.00017 86.6721 1.20136L85.4167 3.2149C85.2213 3.5168 85.1343 3.87617 85.1701 4.23402C85.2059 4.59186 85.3623 4.9269 85.6136 5.18413C88.6638 8.28363 90.9407 12.0582 92.2598 16.202C92.9668 18.5203 93.3608 20.9227 93.4315 23.3454C93.4883 25.8144 93.2135 28.2799 92.6142 30.6758C91.3711 35.3093 88.9608 39.5468 85.6136 42.9835C85.3647 43.2379 85.2093 43.5691 85.1726 43.9231C85.1359 44.2771 85.2202 44.6331 85.4118 44.933Z" fill="white"/>
</svg>
