<?xml version="1.0" encoding="UTF-8"?>
<svg xmlns="http://www.w3.org/2000/svg" version="1.1" viewBox="0 0 134 98.21">
  <defs>
    <style>
      .cls-1 {
        isolation: isolate;
      }

      .cls-2 {
        fill: #fff;
        fill-opacity: 0;
      }

      .cls-3 {
        fill: #005a83;
      }
    </style>
  </defs>
  <!-- Generator: Adobe Illustrator 28.7.1, SVG Export Plug-In . SVG Version: 1.2.0 Build 142)  -->
  <g>
    <g id="master-artboard">
      <rect id="ee-background" class="cls-2" width="134" height="98.21"/>
      <g class="cls-1">
        <path class="cls-3" d="M47.55,68.03v5.5c-.29.02-.56.05-.83.05-10.1,0-20.21.01-30.31,0-4.73,0-8.5-2.56-9.81-6.65-.3-.93-.46-1.94-.47-2.91-.05-4.89-.04-9.79-.02-14.69.03-5.47,4.22-9.52,10.1-9.56,10.3-.07,20.6-.02,30.9-.02.11,0,.22.02.4.03v5.52h-1.07c-9.8,0-19.6,0-29.39,0-.61,0-1.23.04-1.83.14-1.92.33-3.11,1.49-3.14,3.32-.08,5.08-.06,10.15-.08,15.23,0,.16.03.31.05.47.21,2.07,1.78,3.49,4.03,3.55,1.98.05,3.96.03,5.94.03,8.15,0,16.3,0,24.45,0h1.07Z"/>
        <path class="cls-3" d="M79.51,73.53v-5.45c.36-.02.72-.05,1.07-.05,9.77,0,19.54,0,29.31,0,.69,0,1.41,0,2.08-.14,1.87-.38,2.98-1.5,3.01-3.27.08-5.1.06-10.2.07-15.31,0-.08-.02-.16-.03-.23-.22-2.28-1.81-3.7-4.26-3.79-.39-.01-.78,0-1.17,0-9.63,0-19.26,0-28.89,0h-1.15v-5.51c.28-.01.55-.04.82-.04,10.05,0,20.1-.01,30.15,0,5.11,0,9.12,2.94,10.18,7.46.16.68.24,1.39.24,2.09.02,4.95.03,9.89,0,14.84-.03,5.38-4.29,9.42-10.04,9.44-10.24.04-20.49.01-30.73.01-.19,0-.38-.02-.66-.04Z"/>
        <path class="cls-3" d="M67.36,39.77h5.77v33.74h-5.77v-33.74Z"/>
        <path class="cls-3" d="M59.74,73.53h-5.83v-33.76h5.83v33.76Z"/>
        <path class="cls-3" d="M13.84,20.75c1.31,0,2.55-.14,3.74.03,1.72.25,2.58,1.38,2.53,2.97-.06,1.68-1.04,2.84-2.72,3.07-.99.13-2,.13-3,.13-.18,0-.52-.26-.52-.4-.03-1.94-.02-3.88-.02-5.81ZM15.28,26.19c1.17,0,2.32.13,2.97-.94.6-.98.71-2.07,0-3.04-.71-.97-1.84-.9-2.98-.78v4.75Z"/>
        <path class="cls-3" d="M86.75,8.21c.39.22.86.36,1.14.66,1.19,1.27,2.32,2.58,3.66,4.09,0-.69,0-1.16,0-1.63,0-.73.04-1.46,0-2.18-.05-.71.21-.97,1.02-.73v6.17c-.58.18-1,.07-1.39-.39-.96-1.15-1.97-2.26-2.96-3.38-.17-.19-.35-.38-.71-.53v4.33h-.97v-6.17c.07-.08.14-.17.21-.25Z"/>
        <path class="cls-3" d="M57.32,12.97v-4.49c.73-.26,1.05-.15,1.04.58-.03,1.84,0,3.68,0,5.49-.65.25-1.03.07-1.39-.34-1.15-1.33-2.33-2.64-3.65-4.12v4.53h-1.09c0-1.31,0-2.57,0-3.84,0-.57-.03-1.15.01-1.72.02-.24.2-.67.3-.67.32,0,.75.09.94.3,1.07,1.13,2.08,2.31,3.11,3.47.18.21.37.41.73.8Z"/>
        <path class="cls-3" d="M29.31,12.71c0-1.21.02-2.43,0-3.64-.02-.66.26-.85.97-.64v6.17c-.61.22-1.01.02-1.39-.42-1.13-1.32-2.3-2.6-3.59-4.05v4.5c-.41.02-.7.03-1.04.05v-6.22c.55-.27.96-.07,1.34.36,1.16,1.32,2.34,2.63,3.51,3.95.07-.02.14-.04.21-.05Z"/>
        <path class="cls-3" d="M80.91,8.29c2.04,0,3.52,1.35,3.51,3.21-.01,1.93-1.49,3.32-3.52,3.31-2.02,0-3.45-1.4-3.44-3.37,0-1.84,1.44-3.16,3.45-3.16ZM78.83,11.49c.08.38.12.77.24,1.13.32.95.9,1.35,1.87,1.35.96,0,1.63-.41,1.83-1.38.15-.73.16-1.55-.04-2.27-.12-.44-.67-.92-1.14-1.1-1.5-.57-2.72.49-2.76,2.27Z"/>
        <path class="cls-3" d="M42.06,27.04c-2.05,0-3.46-1.36-3.45-3.33,0-1.82,1.48-3.19,3.44-3.2,2,0,3.51,1.39,3.52,3.23,0,1.94-1.44,3.3-3.51,3.3ZM40.03,23.74c0,1.53.75,2.47,1.98,2.52,1.18.04,2.01-.84,2.11-2.24.11-1.51-.58-2.54-1.78-2.65-1.47-.13-2.32.74-2.32,2.37Z"/>
        <path class="cls-3" d="M45.52,8.3c1.13.07,2.25.03,3.33.22,1.29.23,1.66,1.76.75,2.76-.2.21-.44.39-.71.63.52.85,1.05,1.7,1.62,2.64-.49.1-.88.18-1.35.27-.38-.7-.78-1.38-1.11-2.09-.25-.53-.6-.71-1.29-.47v2.38h-1.25v-6.34ZM46.76,9.26c0,.4,0,.76,0,1.12,0,.16-.04.33.01.46.08.19.2.44.36.49.64.19,1.38-.26,1.52-.89.23-1.01-.45-1.47-1.9-1.19Z"/>
        <path class="cls-3" d="M87,20.74c.58-.21.98-.07,1.34.35.97,1.14,1.98,2.25,2.97,3.38.17.19.34.39.69.78v-4.56h.97v6.42c-.49-.21-.96-.29-1.21-.55-1.05-1.11-2.04-2.27-3.05-3.42-.19-.21-.38-.42-.74-.81v4.54c-.75.24-1.07.1-1.06-.62.03-1.64,0-3.28.01-4.92,0-.2.04-.4.07-.6Z"/>
        <path class="cls-3" d="M102.14,20.68c1.06,0,2.09-.1,3.1.02,1.44.17,1.99,1.65,1.08,2.75-.2.25-.42.48-.71.8.46.75.99,1.62,1.52,2.5q-1.27.41-1.83-.62c-.25-.46-.45-.96-.76-1.38-.15-.2-.51-.31-.8-.35-.07-.01-.27.38-.31.6-.06.3-.02.62-.02.93q0,1.12-1.28.97v-6.23ZM103.49,23.56c.76.12,1.39.07,1.68-.55.16-.34.2-.86.02-1.16-.34-.58-1.01-.53-1.7-.41v2.12Z"/>
        <path class="cls-3" d="M57.29,20.74c0,.73,0,1.48,0,2.23,0,.52-.01,1.04,0,1.56.04,1.12.62,1.75,1.58,1.74.91-.01,1.48-.62,1.51-1.72.03-1.27,0-2.54,0-3.86h1.13c0,1.51.12,3-.03,4.46-.14,1.36-1.27,1.97-3.05,1.88-1.54-.07-2.38-.76-2.46-2.12-.07-1.09-.04-2.18-.05-3.28,0-1.08.03-1.1,1.35-.89Z"/>
        <path class="cls-3" d="M52.16,24.13h1.32c0,.77.02,1.51-.02,2.25,0,.15-.23.41-.38.42-1.04.07-2.13.27-3.13.1-1.88-.32-2.87-1.79-2.67-3.57.18-1.57,1.67-2.76,3.65-2.8.72-.01,1.44.18,2.17.28-.11.74-.41.78-.96.65-2.32-.55-4.08,1.04-3.35,3.1.21.59.82,1.2,1.43,1.5,1.26.63,1.92.17,1.93-1.16,0-.23,0-.46,0-.76Z"/>
        <path class="cls-3" d="M94.32,14.56c.29-.65.58-1.28.86-1.92.58-1.29,1.14-2.59,1.74-3.87.09-.19.38-.39.59-.4.26-.02.7.09.77.26.86,1.96,1.66,3.94,2.48,5.93-1.35.26-1.43.25-1.79-.87-.2-.61-.51-.87-1.18-.76-.14.02-.28.02-.42,0-.95-.16-1.54.15-1.72,1.07-.13.68-.59.81-1.34.56ZM98.47,12.19c-.32-.87-.62-1.67-.91-2.47-.06.01-.12.02-.18.04-.29.79-.57,1.59-.88,2.44h1.97Z"/>
        <path class="cls-3" d="M66.53,14.58c-1.39.23-1.43.24-1.8-.88-.2-.61-.52-.87-1.19-.76-.16.03-.34.03-.5,0-.87-.13-1.43.14-1.59,1-.13.67-.58.88-1.37.66.13-.3.24-.6.38-.9.71-1.6,1.41-3.21,2.17-4.8.12-.25.54-.51.84-.52.23,0,.6.31.7.56.81,1.87,1.58,3.75,2.36,5.64ZM62.26,12.16h1.97c-.32-.87-.61-1.65-.89-2.44-.06,0-.12,0-.17.01-.29.77-.57,1.55-.9,2.42Z"/>
        <path class="cls-3" d="M31.51,26.9c-1.41.16-1.45.17-1.82-.94-.2-.59-.51-.89-1.19-.78-.14.02-.28.02-.42,0-.95-.14-1.55.16-1.72,1.09-.13.71-.61.84-1.36.62.48-1.08.94-2.13,1.4-3.17.37-.84.77-1.67,1.12-2.52.16-.38.36-.57.85-.57.52,0,.65.26.79.62.76,1.87,1.53,3.73,2.33,5.66ZM28.31,21.99c-.07,0-.13,0-.2,0-.29.8-.58,1.6-.89,2.46h1.96c-.32-.89-.59-1.67-.87-2.46Z"/>
        <path class="cls-3" d="M63.96,20.67h3.65c.02.2.04.41.07.69h-2.29v1.92c.6,0,1.18-.03,1.75.02.18.01.34.23.5.35-.16.12-.32.34-.49.35-.58.04-1.16.02-1.79.02v2.18c.69,0,1.36-.03,2.02.02.24.02.46.24.68.36-.22.13-.43.37-.65.37-1.14.04-2.27.02-3.46.02v-6.3Z"/>
        <path class="cls-3" d="M82.24,24.03v2.18c.69,0,1.35-.04,2,.02.25.02.48.26.72.4-.23.12-.45.33-.68.34-1.11.04-2.22.02-3.4.02v-6.33c1.13,0,2.24-.02,3.34.02.16,0,.31.33.46.5-.05.07-.09.13-.14.2h-2.25c-.04.23-.09.38-.09.53,0,1.69-.13,1.35,1.44,1.39.08,0,.18-.03.25,0,.21.11.4.24.6.36-.19.13-.37.34-.57.36-.52.05-1.05.02-1.68.02Z"/>
        <path class="cls-3" d="M42.96,9.13h-2.18v1.83h2.15q.13.77-.74.78c-.47,0-.93,0-1.44,0v2.16h2.75v.77c-1.23,0-2.42.02-3.61-.02-.18,0-.5-.32-.51-.5-.04-1.74-.02-3.49-.03-5.23,0-.45.21-.59.66-.58.81.02,1.62.02,2.43,0,.6-.02.75.22.52.8Z"/>
        <path class="cls-3" d="M74.51,91.66v-5.16c1.06,0,2.12-.11,3.15.03,1.31.18,1.99,1.08,2,2.32.01,1.42-.72,2.38-2.05,2.66-.32.07-.66.13-.99.14-.67.02-1.33,0-2.11,0ZM75.59,91.01c.39,0,.69,0,.99,0,.83-.01,1.47-.33,1.73-1.09.29-.84.45-1.79-.36-2.38-.5-.37-1.32-.38-2.01-.5-.09-.02-.33.27-.34.41-.03,1.16-.02,2.32-.02,3.56Z"/>
        <path class="cls-3" d="M112.49,24.04h-2.2v2.17c.72,0,1.44-.03,2.15.02.21.02.41.27.61.41-.2.11-.4.31-.61.32-.98.03-1.95,0-2.93.02-.48.01-.65-.16-.64-.59.01-1.72,0-3.44,0-5.15,0-.41.13-.62.62-.61.84.03,1.67.02,2.51,0,.56-.01.69.21.47.74h-2.15c-.04.19-.09.31-.09.43,0,1.81-.15,1.43,1.51,1.48.8.02.8.01.75.76Z"/>
        <path class="cls-3" d="M78.81,21.02c-.11.19-.22.39-.33.59-1.37-.4-2.65-.49-3.58.72-.6.78-.57,2.1,0,2.88.71.97,1.77,1.21,3.57.8.1.19.2.39.3.59-1.66.84-3.86.46-4.98-.83-1-1.16-.98-2.91.05-4.03,1.18-1.29,3.36-1.62,4.97-.72Z"/>
        <path class="cls-3" d="M98.35,26.94h-1.41v-5.54h-2.17v-.76c1.79,0,3.54-.01,5.3.02.18,0,.35.32.52.49-.05.07-.1.14-.15.21h-2.09v5.58Z"/>
        <path class="cls-3" d="M72.45,8.35c.28.69-.06.82-.61.8-.44-.02-.88,0-1.43,0v5.47h-1.35c0-1.2,0-2.38,0-3.57,0-.23,0-.47,0-.7-.01-1.4.1-1.19-1.3-1.21-.19,0-.41.03-.57-.05-.13-.06-.27-.26-.27-.39,0-.12.2-.34.32-.34,1.75-.02,3.5-.02,5.22-.02Z"/>
        <path class="cls-3" d="M35.55,14.64h-1.31v-5.37c-.81-.12-1.47-.21-2.13-.34-.04,0,0-.33,0-.55h5.53c.22.52.09.74-.51.77-1.57.07-1.57.08-1.57,1.57,0,1.27,0,2.54,0,3.91Z"/>
        <path class="cls-3" d="M51.24,86.67c-.51.55-.99,1.12-1.52,1.65-.31.31-.3.54,0,.86.65.71,1.26,1.45,1.89,2.18q-.92.47-1.53-.28c-.53-.66-1.07-1.31-1.78-1.92v2.47h-1.1v-5.16h1.05v2.04c.07.03.14.05.21.08.52-.59,1.06-1.16,1.55-1.76.35-.43.7-.55,1.23-.15Z"/>
        <path class="cls-3" d="M33.1,20.69h1.38v5.52c.77,0,1.45-.03,2.13.02.23.02.45.23.68.36-.21.13-.42.37-.64.38-.97.04-1.95.04-2.93,0-.22,0-.6-.25-.6-.4-.04-1.94-.03-3.89-.03-5.88Z"/>
        <path class="cls-3" d="M57.88,91.57c-.82.28-1.33.11-1.46-.66-.11-.62-.51-.79-1.13-.74-.63.06-1.38-.22-1.59.7-.12.52-.32,1.05-1.2.72.73-1.62,1.44-3.24,2.19-4.85.22-.46.97-.47,1.17-.02.7,1.61,1.35,3.23,2.02,4.85ZM55.27,87.58c-.08,0-.15,0-.23,0-.23.65-.46,1.29-.7,1.97h1.63c-.26-.73-.48-1.35-.71-1.98Z"/>
        <path class="cls-3" d="M102.47,8.44c1.24-.2,1.28-.17,1.29.86,0,1.25,0,2.49,0,3.74,0,.28.04.56.06.9h2.63c.06.07.12.15.18.22-.18.17-.36.49-.55.5-1.19.05-2.38.02-3.62.02v-6.24Z"/>
        <path class="cls-3" d="M21.89,14.62h-1.34c0-2-.07-3.94.03-5.88.04-.81.83-.19,1.31-.47v6.35Z"/>
        <path class="cls-3" d="M65.23,91.72c-1.41-.02-2.47-.48-2.99-1.64-.44-1-.37-2.01.48-2.83.95-.93,2.14-1.16,3.45-.81.2.05.34.31.5.47-.23.05-.48.17-.7.13-1.92-.35-3.27.95-2.72,2.63.34,1.03,1.41,1.56,2.66,1.35.23-.04.5.1.75.16-.21.16-.39.38-.62.46-.28.09-.6.06-.8.08Z"/>
        <path class="cls-3" d="M22.22,20.68h1.18v6.24h-1.18v-6.24Z"/>
        <path class="cls-3" d="M75.49,14.58c-1.24.21-1.29.18-1.29-.9,0-1.43,0-2.86,0-4.29,0-1.13.01-1.13,1.29-.97v6.16Z"/>
        <path class="cls-3" d="M60.36,91.64h-1.05v-5.1c.99-.22,1.05-.19,1.05.66,0,1.47,0,2.94,0,4.44Z"/>
        <path class="cls-3" d="M69.49,91.63h-.99v-5.17h.99v5.17Z"/>
        <path class="cls-3" d="M71.5,86.46h.99v5.15h-.99v-5.15Z"/>
        <path class="cls-3" d="M103.49,23.56v-2.12c.69-.12,1.36-.17,1.7.41.18.3.14.83-.02,1.16-.28.61-.92.67-1.68.55Z"/>
        <path class="cls-3" d="M98.47,12.19h-1.97c.31-.85.59-1.64.88-2.44.06-.01.12-.02.18-.04.29.8.59,1.6.91,2.47Z"/>
      </g>
    </g>
  </g>
</svg>