<?xml version="1.0" encoding="utf-8"?>
<!-- Generator: Adobe Illustrator 28.0.0, SVG Export Plug-In . SVG Version: 6.00 Build 0)  -->
<svg version="1.1" xmlns="http://www.w3.org/2000/svg" xmlns:xlink="http://www.w3.org/1999/xlink" x="0px" y="0px"
	 viewBox="0 0 1000 1000" style="enable-background:new 0 0 1000 1000;" xml:space="preserve">
<style type="text/css">
	.st0{display:none;}
	.st1{display:inline;}
	.st2{fill:#F7F9FC;}
	.st3{fill:#49A17B;}
	.st4{fill:#7631CD;}
	.st5{fill:#404041;}
	.st6{fill:#510C76;}
	.st7{fill:#15345B;}
	.st8{fill:#120F11;}
	.st9{fill:#6D809B;}
	.st10{fill:#B52025;}
	.st11{fill:#FFFFFF;}
	.st12{fill:#CF2329;}
	.st13{fill:#1D3B60;}
	.st14{opacity:0.6;}
	.st15{clip-path:url(#SVGID_00000183208700772871409280000013895529762791558826_);}
	.st16{clip-path:url(#SVGID_00000162351911577957043870000016737849391435711390_);fill:#5293C9;}
	
		.st17{clip-path:url(#SVGID_00000044863421184187297700000008069260748341201803_);fill:url(#SVGID_00000068671763897213556090000003195034619238862518_);}
	.st18{clip-path:url(#SVGID_00000150066627569577405050000016693727760494766761_);fill:#1D3B60;}
	
		.st19{clip-path:url(#SVGID_00000151517837651727979060000004907793959085821621_);fill:url(#SVGID_00000062175145189744570010000015377898790094485640_);}
	.st20{clip-path:url(#SVGID_00000162345107200591569770000016320438336207513224_);fill:#2D6683;}
	
		.st21{clip-path:url(#SVGID_00000171692278880666368430000004035423272063227054_);fill:url(#SVGID_00000055681924600098008950000002816077934034124674_);}
	.st22{clip-path:url(#SVGID_00000178194603279350510800000001527885385756140431_);fill:#7BADC5;}
	
		.st23{clip-path:url(#SVGID_00000026123256211655690500000014669674908405798847_);fill:url(#SVGID_00000117676029163777619400000014189564719986619010_);}
	.st24{opacity:0.3;}
	.st25{clip-path:url(#SVGID_00000040566147363939966620000011022483400799599006_);}
	.st26{clip-path:url(#SVGID_00000173847817685212537040000005720460325549243809_);fill:#5293C9;}
	
		.st27{clip-path:url(#SVGID_00000100372692510357307290000001903534963485317523_);fill:url(#SVGID_00000086662299557145688560000003529682544954650295_);}
	.st28{clip-path:url(#SVGID_00000070100349608915239550000011010239221499406217_);fill:#1D3B60;}
	
		.st29{clip-path:url(#SVGID_00000085233684116284341820000008813070202986969019_);fill:url(#SVGID_00000106130554759814837300000016701960543933451147_);}
	.st30{clip-path:url(#SVGID_00000116949881479905704680000014741961705276997271_);fill:#2D6683;}
	
		.st31{clip-path:url(#SVGID_00000038375577092778641500000001165525912841899684_);fill:url(#SVGID_00000013899336948390315580000006720397013518877331_);}
	.st32{clip-path:url(#SVGID_00000115482683856648743910000000659573920758250425_);fill:#7BADC5;}
	
		.st33{clip-path:url(#SVGID_00000009567211553875049090000007808552338526793373_);fill:url(#SVGID_00000060025756920384951110000006843730395361278342_);}
	.st34{opacity:0.1;}
	.st35{clip-path:url(#SVGID_00000083077537233832380590000011947534848594375574_);}
	.st36{clip-path:url(#SVGID_00000005974669615750386950000011470871881202383536_);fill:#5293C9;}
	
		.st37{clip-path:url(#SVGID_00000020394761089487865120000015178034121881844118_);fill:url(#SVGID_00000080200474781220838430000013838734707771328186_);}
	.st38{clip-path:url(#SVGID_00000010275439530558508270000002040209767046165679_);fill:#1D3B60;}
	
		.st39{clip-path:url(#SVGID_00000024001694446332400610000002396876049562810023_);fill:url(#SVGID_00000078748050083475495830000008807110539169057421_);}
	.st40{clip-path:url(#SVGID_00000182494138319213094600000007248793654926956731_);fill:#2D6683;}
	
		.st41{clip-path:url(#SVGID_00000018196383134141636480000015949728265373992119_);fill:url(#SVGID_00000051372381176874592150000013862983859641908921_);}
	.st42{clip-path:url(#SVGID_00000007420166578535786030000018002874895003850941_);fill:#7BADC5;}
	
		.st43{clip-path:url(#SVGID_00000129891383996704211650000006786891373315546795_);fill:url(#SVGID_00000164497135981373790310000002713921084848407425_);}
	.st44{fill:#5293C9;}
	.st45{fill:#2D6683;}
	.st46{fill:#7BADC5;}
	.st47{fill:#CE1D5E;}
	.st48{fill:#CE0E2D;}
	.st49{fill:#F1F1F1;}
	.st50{fill:#010101;}
	.st51{fill:#CD9967;}
	.st52{fill:#BB8D5C;}
	.st53{fill:#AE807A;}
	.st54{fill:#AC8079;}
	.st55{fill:#262626;}
	.st56{fill:#80B041;}
	.st57{fill:#1985C1;}
	.st58{fill:#293678;}
	.st59{fill:#1EBBB9;}
	.st60{fill:#333333;}
	.st61{fill:#76519B;}
	.st62{fill:#5F9E81;}
	.st63{fill:#439778;}
	.st64{fill:#304043;}
	.st65{fill:#3F8E8B;}
	.st66{fill:#808081;}
	.st67{fill:none;stroke:#808081;strokeWidth:0.3838;stroke-miterlimit:10;}
	.st68{fill:#221F20;}
	.st69{fill:#3B8569;}
	.st70{fill:#5F6163;}
	.st71{fill:#A6A8AB;}
	.st72{fill:#8B8072;}
	.st73{fill:#22516F;}
	
		.st74{clip-path:url(#SVGID_00000161601917384241959280000010169687056389511581_);fill:url(#SVGID_00000083059216583952751590000004498031852169870752_);}
	
		.st75{clip-path:url(#SVGID_00000018926864222186949250000017441327057265263039_);fill:url(#SVGID_00000007408819856104322040000017077664089132786818_);}
	.st76{fill:#76777A;}
	.st77{fill:#51B187;}
	
		.st78{clip-path:url(#SVGID_00000111162441071610868410000001102674359979846303_);fill:url(#SVGID_00000019651474415236674420000008434456018669234056_);}
	
		.st79{clip-path:url(#SVGID_00000062912527064141596240000010006119817664617142_);fill:url(#SVGID_00000158746366083051726710000008442698850141996725_);}
	
		.st80{clip-path:url(#SVGID_00000057141259796396886010000012122644084192135562_);fill:url(#SVGID_00000029735031466847208950000002571347372024365744_);}
	
		.st81{clip-path:url(#SVGID_00000051346998750180512490000006193639124323206793_);fill:url(#SVGID_00000123421088282321056110000011931848997464695226_);}
	
		.st82{clip-path:url(#SVGID_00000160886616482398062680000005514677880091131030_);fill:url(#SVGID_00000181056984191284831210000012526342671636317109_);}
	
		.st83{clip-path:url(#SVGID_00000072254101712956179100000006889400317300995501_);fill:url(#SVGID_00000000219713596862147270000011917296422001451709_);}
	
		.st84{clip-path:url(#SVGID_00000157989177502060636820000006621062921867078299_);fill:url(#SVGID_00000057859158197024309740000004661006526428599449_);}
	
		.st85{clip-path:url(#SVGID_00000008845510661154838530000006157744167783719586_);fill:url(#SVGID_00000017477754629087083800000013990371637559690906_);}
	
		.st86{clip-path:url(#SVGID_00000151521297641842213230000012018052307333036471_);fill:url(#SVGID_00000013891063316439244300000000398299156599147703_);}
	
		.st87{clip-path:url(#SVGID_00000091718734738153161560000000375518084412361353_);fill:url(#SVGID_00000013177543517724220410000005996902322985377673_);}
	
		.st88{clip-path:url(#SVGID_00000090278346676668954450000008018109893986514822_);fill:url(#SVGID_00000039829910596001930830000014155554289112269241_);}
	
		.st89{clip-path:url(#SVGID_00000017490755679581027590000004671844790849816501_);fill:url(#SVGID_00000094593152600756981790000004230860914883699611_);}
	
		.st90{clip-path:url(#SVGID_00000155851837187645213320000009094265141707142843_);fill:url(#SVGID_00000153697590608965263800000003613984239517392513_);}
	
		.st91{clip-path:url(#SVGID_00000052812082283417799370000003556770268299579810_);fill:url(#SVGID_00000137814248714552469450000011269201501430067094_);}
	
		.st92{clip-path:url(#SVGID_00000049903172401181194710000011069348337287803536_);fill:url(#SVGID_00000049938139765587276360000010433433345706241187_);}
	
		.st93{clip-path:url(#SVGID_00000131355660354634391760000005324021667793591223_);fill:url(#SVGID_00000088832081090946039280000003058783796191564419_);}
	
		.st94{clip-path:url(#SVGID_00000094612639857907134490000016417644384869619130_);fill:url(#SVGID_00000064354900609214039670000002160961402279561390_);}
	
		.st95{clip-path:url(#SVGID_00000137099309525455950110000009176174913007555982_);fill:url(#SVGID_00000019644686861750014840000000613637925653984403_);}
	
		.st96{clip-path:url(#SVGID_00000029005369248533123650000002448277243910222223_);fill:url(#SVGID_00000138543249392478105110000002256213180509995912_);}
	
		.st97{clip-path:url(#SVGID_00000099649534199540854720000006902318294671212458_);fill:url(#SVGID_00000086688641844989334760000018156876997439567510_);}
	
		.st98{clip-path:url(#SVGID_00000134945705827775732620000015713216641173523333_);fill:url(#SVGID_00000100340429853162075070000010841119403836211871_);}
	
		.st99{clip-path:url(#SVGID_00000083057424123029604630000017584181311642645690_);fill:url(#SVGID_00000005969456723224976350000010514689065366664375_);}
	
		.st100{clip-path:url(#SVGID_00000117645229890597011070000005996682808030041259_);fill:url(#SVGID_00000165221276981954268240000015384543540149521338_);}
	
		.st101{clip-path:url(#SVGID_00000116223137194680862540000004088732757139430298_);fill:url(#SVGID_00000030457838362273295850000003258027193695163580_);}
	
		.st102{clip-path:url(#SVGID_00000137822922612660636000000016855303229780563117_);fill:url(#SVGID_00000042711872653604648240000016166965549992557223_);}
	
		.st103{clip-path:url(#SVGID_00000031206329642768026220000016216065552301915797_);fill:url(#SVGID_00000151511647877278447490000014766540399776956852_);}
	
		.st104{clip-path:url(#SVGID_00000009585839005122023560000000924136771697838732_);fill:url(#SVGID_00000169555344099131619290000013697288291529019036_);}
	
		.st105{clip-path:url(#SVGID_00000128467105903694015480000016752528184118946490_);fill:url(#SVGID_00000062173691151940357560000007545861851519010704_);}
	
		.st106{clip-path:url(#SVGID_00000077308834753274726760000006335901472693656488_);fill:url(#SVGID_00000118374824140833959070000011610628176138977166_);}
	
		.st107{clip-path:url(#SVGID_00000037691201801248499810000007423417110161577904_);fill:url(#SVGID_00000054267539895485307970000003967314268047230085_);}
	
		.st108{clip-path:url(#SVGID_00000015329673414867002090000013542432619615405982_);fill:url(#SVGID_00000007400739820980841590000009030437901709635244_);}
	
		.st109{clip-path:url(#SVGID_00000157277259848230792730000001283939574453437065_);fill:url(#SVGID_00000055696986523853482370000001114445961973182892_);}
	
		.st110{clip-path:url(#SVGID_00000081622508772843771670000018414474337184689841_);fill:url(#SVGID_00000171711241675149284700000017464429409969658275_);}
	
		.st111{clip-path:url(#SVGID_00000003819131596559505020000001383687074618241674_);fill:url(#SVGID_00000110471014895333926590000001196108603777430938_);}
	
		.st112{clip-path:url(#SVGID_00000183931018675099843400000009681707031630786745_);fill:url(#SVGID_00000147213793596003131590000003290579314368635016_);}
	
		.st113{clip-path:url(#SVGID_00000160149277380133063540000014463270221600009902_);fill:url(#SVGID_00000023992788438909043190000018040407960011973011_);}
	
		.st114{clip-path:url(#SVGID_00000178899109382778686410000001828341473117024642_);fill:url(#SVGID_00000011024475319005790460000013106233146432550277_);}
	
		.st115{clip-path:url(#SVGID_00000053505446054202675720000015553751151404341683_);fill:url(#SVGID_00000179610673945327113570000002668546672926322330_);}
	
		.st116{clip-path:url(#SVGID_00000136393849140804217970000003584333967356513454_);fill:url(#SVGID_00000132053223495730896100000005774475755030814863_);}
	
		.st117{clip-path:url(#SVGID_00000006677008804687774670000003277380195152906630_);fill:url(#SVGID_00000125585751832540355080000003976150056504486545_);}
	
		.st118{clip-path:url(#SVGID_00000056397463427384553880000018060887642916154263_);fill:url(#SVGID_00000014626572667514599160000012988317904032805530_);}
	
		.st119{clip-path:url(#SVGID_00000091007522041439762850000015233355320917453237_);fill:url(#SVGID_00000088117979477103464120000013458083368783137942_);}
	
		.st120{clip-path:url(#SVGID_00000154390297676082104970000000510265841500528272_);fill:url(#SVGID_00000083089316820301015400000015265775737559183510_);}
	
		.st121{clip-path:url(#SVGID_00000002353424499639229570000005790055162710486697_);fill:url(#SVGID_00000070087178445652423180000017600944311447046794_);}
	
		.st122{clip-path:url(#SVGID_00000167378047845116698060000001214075248304519340_);fill:url(#SVGID_00000157285312186029502630000000161917434327666850_);}
	
		.st123{clip-path:url(#SVGID_00000016038528248037212100000004543459478837016709_);fill:url(#SVGID_00000122719423523869134870000004557517017632582026_);}
	
		.st124{clip-path:url(#SVGID_00000003814639371811701850000000071283563364014257_);fill:url(#SVGID_00000166659626716978868570000016660807563064479658_);}
	
		.st125{clip-path:url(#SVGID_00000058560239346659162150000005513805756712771725_);fill:url(#SVGID_00000049907117778609306120000003101615452006046855_);}
	
		.st126{clip-path:url(#SVGID_00000167370077078779573100000015688543215525008296_);fill:url(#SVGID_00000125577953295685876450000010136596435395319201_);}
	
		.st127{clip-path:url(#SVGID_00000106837003541571209800000000787346451070451118_);fill:url(#SVGID_00000038387345359642814540000006134177134251856057_);}
	
		.st128{clip-path:url(#SVGID_00000147181977313607786270000002616046191803581622_);fill:url(#SVGID_00000031925667062152192420000000203139941053484929_);}
	
		.st129{clip-path:url(#SVGID_00000126284216496423532300000003816350254311298219_);fill:url(#SVGID_00000111180516667052119090000018171573723016538252_);}
	
		.st130{clip-path:url(#SVGID_00000070837483205208015310000008757479535914254214_);fill:url(#SVGID_00000098190165323370866690000010201897031034628013_);}
	
		.st131{clip-path:url(#SVGID_00000165206783560737677010000002004867835505062809_);fill:url(#SVGID_00000113327434136828995540000015895570027519509383_);}
	.st132{fill:#1B685C;}
	.st133{fill:#646B70;}
	
		.st134{clip-path:url(#SVGID_00000003107446421569172540000016106663158642200976_);fill:url(#SVGID_00000173860064131239992890000014875911772559412904_);}
	
		.st135{clip-path:url(#SVGID_00000113344191641930610770000008167290365817069714_);fill:url(#SVGID_00000173147467820827693030000013753892940118353320_);}
	
		.st136{clip-path:url(#SVGID_00000149377272806585641670000000105877927373038243_);fill:url(#SVGID_00000058551846509848263650000010005531185259727549_);}
	
		.st137{clip-path:url(#SVGID_00000178174631317592579820000017697493271767031170_);fill:url(#SVGID_00000082353744940886246800000015683599598583819405_);}
	
		.st138{clip-path:url(#SVGID_00000147188459827883690320000016286320924603341465_);fill:url(#SVGID_00000165202019991884271350000015338902536755441295_);}
	
		.st139{clip-path:url(#SVGID_00000064325517856423654160000005334815323403245980_);fill:url(#SVGID_00000070812455204069546670000002676372298059357613_);}
	
		.st140{clip-path:url(#SVGID_00000167385488532133547650000001138524243112822156_);fill:url(#SVGID_00000004545299821029128320000014210741012262550167_);}
	
		.st141{clip-path:url(#SVGID_00000150802332216816258690000014037890482921251509_);fill:url(#SVGID_00000037682180607480924090000004277148767003384741_);}
	
		.st142{clip-path:url(#SVGID_00000068655851890196564410000017508752338932833920_);fill:url(#SVGID_00000083776404308308218690000003411835173194777242_);}
	
		.st143{clip-path:url(#SVGID_00000174591429670291128680000012221076315632202134_);fill:url(#SVGID_00000083775914754724513500000017428319392036494224_);}
	
		.st144{clip-path:url(#SVGID_00000140008768684523820150000004216176254444216246_);fill:url(#SVGID_00000005987250092494939520000006460239785331945376_);}
	
		.st145{clip-path:url(#SVGID_00000153706959557598040000000005414890832710966949_);fill:url(#SVGID_00000026130445392468364730000004724709272529652103_);}
	
		.st146{clip-path:url(#SVGID_00000095306057140719814230000006357035786971579801_);fill:url(#SVGID_00000097470023461430987430000010232597332597019559_);}
	
		.st147{clip-path:url(#SVGID_00000168830252454992329480000000436603693345856926_);fill:url(#SVGID_00000097483250618755566350000011570006816063545245_);}
	
		.st148{clip-path:url(#SVGID_00000134225412256184030310000004750339519410111394_);fill:url(#SVGID_00000005261345860380977820000015142891731925931150_);}
	
		.st149{clip-path:url(#SVGID_00000172420321260161294450000000699410754448712325_);fill:url(#SVGID_00000085972011849223883330000009880553083640458412_);}
	
		.st150{clip-path:url(#SVGID_00000139993455970342736220000014309295355945625226_);fill:url(#SVGID_00000057128801875881828730000003105422462749895315_);}
	
		.st151{clip-path:url(#SVGID_00000021810547660307550480000011832602250376826243_);fill:url(#SVGID_00000048501640570073104770000004930198963805077891_);}
	
		.st152{clip-path:url(#SVGID_00000163768776134453602630000010541850647304231078_);fill:url(#SVGID_00000080905803031680670360000000037134614797577661_);}
	
		.st153{clip-path:url(#SVGID_00000150077941202539210490000001499030023630213513_);fill:url(#SVGID_00000101074747995671340090000004074961562322004904_);}
	
		.st154{clip-path:url(#SVGID_00000180325571649860922180000014468024095506707386_);fill:url(#SVGID_00000156553956897532706220000012455349092676256903_);}
	
		.st155{clip-path:url(#SVGID_00000152971589195105797220000000111346706079326342_);fill:url(#SVGID_00000161624550112599415060000001368775688984367777_);}
	
		.st156{clip-path:url(#SVGID_00000124849858017708928600000002014675912225359773_);fill:url(#SVGID_00000024001613411103839040000004496677003014362280_);}
	
		.st157{clip-path:url(#SVGID_00000052806520742455075700000016630833487489339270_);fill:url(#SVGID_00000000190526145748399610000005367930888352063651_);}
	
		.st158{clip-path:url(#SVGID_00000177473800527228409550000008094586315719727805_);fill:url(#SVGID_00000036209937035215038090000012309926962390618805_);}
	
		.st159{clip-path:url(#SVGID_00000126302454052894947500000009977322656333366956_);fill:url(#SVGID_00000077316674916600836630000008242336241282830513_);}
	
		.st160{clip-path:url(#SVGID_00000020366891971748182770000002587433351575060105_);fill:url(#SVGID_00000016054349662256185490000004511559816465995174_);}
	
		.st161{clip-path:url(#SVGID_00000002380575535676363970000004589213795130106259_);fill:url(#SVGID_00000068639981046093231260000007622844050960766851_);}
	
		.st162{clip-path:url(#SVGID_00000183946549319551084000000002108649561956688006_);fill:url(#SVGID_00000145031607521843270640000009779596525652973965_);}
	
		.st163{clip-path:url(#SVGID_00000003811631015052608140000015309099088788987547_);fill:url(#SVGID_00000144299713994855899780000003021863421698667183_);}
	
		.st164{clip-path:url(#SVGID_00000100376211771116663810000000858900060707785919_);fill:url(#SVGID_00000067945310595521915160000010271456576134494355_);}
	
		.st165{clip-path:url(#SVGID_00000036231295465064315030000006594269275038787470_);fill:url(#SVGID_00000065040425960116799350000012783805317186306990_);}
	
		.st166{clip-path:url(#SVGID_00000150077451340740200850000005915771367367166624_);fill:url(#SVGID_00000064331894231304248470000009953383328006666380_);}
	
		.st167{clip-path:url(#SVGID_00000059300662443706657330000007749972648469396912_);fill:url(#SVGID_00000127044784006266935940000012898266852130495377_);}
	
		.st168{clip-path:url(#SVGID_00000134964284497583391750000006548820217110320261_);fill:url(#SVGID_00000035506450918458439570000015303851189693707704_);}
	
		.st169{clip-path:url(#SVGID_00000091736345881998167820000010544337641819459739_);fill:url(#SVGID_00000035518199643929778400000014421376964105851054_);}
	
		.st170{clip-path:url(#SVGID_00000110458329119283192300000013865402476548430498_);fill:url(#SVGID_00000052820273623179958510000004398923217727473843_);}
	
		.st171{clip-path:url(#SVGID_00000173873612427803162980000008467174274078217659_);fill:url(#SVGID_00000091729236250556593940000000812371309764197013_);}
	
		.st172{clip-path:url(#SVGID_00000130637467143053549170000016843653680022599297_);fill:url(#SVGID_00000031909556084509560460000004350759176946387596_);}
	
		.st173{clip-path:url(#SVGID_00000178899678361128003470000013305429016183536555_);fill:url(#SVGID_00000163753957305511090720000004272365668071860664_);}
	
		.st174{clip-path:url(#SVGID_00000147184511759328078940000008019407288895223698_);fill:url(#SVGID_00000116198818919309559180000004503829070162020736_);}
	
		.st175{clip-path:url(#SVGID_00000137128936691703706590000004314854989878157732_);fill:url(#SVGID_00000022539593946435535930000014245791076662551952_);}
	
		.st176{clip-path:url(#SVGID_00000090282476250068921930000002779849569993680768_);fill:url(#SVGID_00000181049765071535790900000008058306088817656494_);}
	
		.st177{clip-path:url(#SVGID_00000039823808602690779550000002081897612225389709_);fill:url(#SVGID_00000164503130888384098120000010858939155127029634_);}
	
		.st178{clip-path:url(#SVGID_00000096754674839753616760000009347833121079387054_);fill:url(#SVGID_00000070081630831479416270000007060637856597971133_);}
	
		.st179{clip-path:url(#SVGID_00000116226437394420670110000016431554960577218450_);fill:url(#SVGID_00000009585492534087642300000016898360012048537764_);}
	
		.st180{clip-path:url(#SVGID_00000054951639113037614370000001709235885013319603_);fill:url(#SVGID_00000152944431363876234310000007453688145919506822_);}
	
		.st181{clip-path:url(#SVGID_00000014634714252357765390000007101642969681838476_);fill:url(#SVGID_00000008857138200096256550000002307344573182869160_);}
	
		.st182{clip-path:url(#SVGID_00000121969666505276578580000009538182242606072990_);fill:url(#SVGID_00000174597187670636934570000018065947340877196679_);}
	
		.st183{clip-path:url(#SVGID_00000043436782018623846370000010566032164243880627_);fill:url(#SVGID_00000154408141668511481300000017745929320271446436_);}
	
		.st184{clip-path:url(#SVGID_00000085966092273362000120000013019787674232633504_);fill:url(#SVGID_00000059300609568293204760000003105856554702853811_);}
	
		.st185{clip-path:url(#SVGID_00000160157419949109646010000007966900468500788364_);fill:url(#SVGID_00000155125708513236629010000015427933765876893577_);}
	
		.st186{clip-path:url(#SVGID_00000103962106170432785060000000089737125197362568_);fill:url(#SVGID_00000029750986881552099240000009672218269230333084_);}
	
		.st187{clip-path:url(#SVGID_00000034795134547630311950000016299145078085374378_);fill:url(#SVGID_00000176749774954231904160000004820102228591006597_);}
	.st188{fill:#556273;}
	.st189{fill:#4DA656;}
	.st190{fill:#6EBB9C;}
	.st191{fill:#469694;}
	.st192{fill:#95C46E;}
	.st193{fill:#8FA3D0;}
	.st194{fill:#6163A6;}
	.st195{fill:#005C82;}
	.st196{fill:#1FAC80;}
	.st197{fill:#2C2E6C;}
	.st198{clip-path:url(#SVGID_00000066480165946374983840000012946536221607089817_);}
	.st199{clip-path:url(#SVGID_00000063598647248168118700000013416821955134620806_);}
	.st200{clip-path:url(#SVGID_00000052085234831015931620000005121288107607494064_);}
	.st201{clip-path:url(#SVGID_00000090269196819713402830000003590371299976878765_);}
	.st202{clip-path:url(#SVGID_00000014631868952211418710000014996863867226795450_);}
	.st203{clip-path:url(#SVGID_00000044857535758835444260000005161928061404628630_);}
	.st204{clip-path:url(#SVGID_00000041266694830331159830000014861849133938910597_);}
	.st205{clip-path:url(#SVGID_00000012470199555652037300000012193712155577593502_);}
	.st206{fill:#383838;}
	.st207{clip-path:url(#SVGID_00000098936912236602875050000011311383719270874814_);fill:#383838;}
	.st208{clip-path:url(#SVGID_00000056407219549979513060000003546893946944565431_);}
	.st209{fill:#231F20;}
	.st210{fill:#BABDBB;}
	.st211{fill:#6EB0DE;}
	.st212{fill:#77807C;}
	.st213{fill:#4D4E4E;}
	.st214{fill:#53AB73;}
	.st215{fill:#408FA6;}
	.st216{fill:#3D8AA8;}
	.st217{fill:#3C83AA;}
	.st218{fill:#3A81AB;}
	.st219{fill:#387FAC;}
	.st220{fill:#387EAE;}
	.st221{fill:#416689;}
	.st222{fill:#58B3AC;}
	.st223{fill:#A42F35;}
	.st224{fill:#4E5052;}
	.st225{fill:#8ABD57;}
	.st226{fill:#1E1E1E;}
	.st227{fill:#494949;}
	.st228{fill:url(#SVGID_00000059269833935435243160000013101285204093593273_);}
	.st229{fill:#1D1D1B;}
	.st230{fill:#49A057;}
	.st231{fill:#D74A57;}
	.st232{fill:#3A7CBB;}
	.st233{fill:#F2BA56;}
	.st234{fill:#480986;}
	.st235{fill:#EB4B62;}
	.st236{fill:url(#SVGID_00000130604976682583671070000005108718041469074618_);}
	.st237{fill:url(#SVGID_00000073720639780574027050000009140294570596294308_);}
	.st238{fill:url(#SVGID_00000020369713793321074910000002020465257245725631_);}
	.st239{fill:url(#SVGID_00000029014397515510117140000009659456048219754155_);}
	.st240{fill:url(#SVGID_00000013154575207379744520000008800857633554817182_);}
	.st241{fill:url(#SVGID_00000050630980817498147960000005515494954643225758_);}
	.st242{fill:url(#SVGID_00000076566832761272338160000018420494652818028420_);}
	.st243{fill:#2E2566;}
	.st244{fill:url(#SVGID_00000037685635988416986790000013959682593383448201_);}
	.st245{fill:url(#SVGID_00000022530368996781508070000009697917993796486818_);}
	.st246{fill:url(#SVGID_00000101095049388970875340000011764406952648503987_);}
	.st247{fill:url(#SVGID_00000033346959619752160010000009134882970881870008_);}
	.st248{opacity:0.7;fill:url(#SVGID_00000134222634369503863660000014480625581249569719_);enable-background:new    ;}
	.st249{fill:url(#SVGID_00000090260549249276411740000001347021628133385363_);}
	.st250{fill:url(#SVGID_00000114047325574468453680000003262801125509287100_);}
	.st251{opacity:0.3;fill:url(#SVGID_00000006701096534629386560000004212959074594939816_);enable-background:new    ;}
	.st252{fill:url(#SVGID_00000020377864563672543390000007970300906716956307_);}
	.st253{fill:url(#SVGID_00000175303792793701893110000003296302556230186658_);}
	.st254{fill:url(#SVGID_00000041977434370266477860000004789173094087983782_);}
	.st255{fill:#808080;}
	.st256{fill:url(#SVGID_00000077326160536052677470000000613214148702874805_);}
	.st257{fill:url(#SVGID_00000161617600837847499070000005432204906901508744_);}
	.st258{fill:url(#SVGID_00000043420248731193639940000008582742045845052550_);}
	.st259{fill:url(#SVGID_00000065774924845733189940000013775711754719199658_);}
	.st260{fill:url(#SVGID_00000112631625024114771680000013081707743319201707_);}
	.st261{fill:url(#SVGID_00000142878167468042520960000001057979801970159272_);}
	.st262{fill:url(#SVGID_00000182524174393399661080000012685612519170772150_);}
	.st263{fill:#101460;}
	.st264{fill:#480985;}
	.st265{fill:#EA4B62;}
	.st266{fill:#234899;}
	.st267{fill:#224E9C;}
	.st268{fill:#2355A1;}
	.st269{fill:#2860A9;}
	.st270{fill:#808184;}
	.st271{fill:#224F9D;}
	.st272{fill:#243974;}
	.st273{fill:#215183;}
	.st274{fill:#9F9067;}
	.st275{fill:#09653D;}
	.st276{opacity:0.77;}
	.st277{opacity:0.51;fill:#9F9067;}
	.st278{opacity:0.83;fill:#9F9067;}
	.st279{opacity:0.77;fill:#9F9067;}
	.st280{opacity:0.67;fill:#9F9067;}
	.st281{fill:url(#SVGID_00000095320197034000663610000016026365613114807702_);}
	.st282{fill:#686868;}
	.st283{clip-path:url(#SVGID_00000011724926743554354520000006038650798727565497_);}
	.st284{fill:#C43C4B;}
	.st285{fill:#2E4DBC;}
	.st286{fill:#445275;}
	.st287{fill:#A66B9D;}
	.st288{fill:#BE4933;}
	.st289{fill:#5D4D87;}
	.st290{fill:#D97060;}
	.st291{fill:#D1A742;}
	.st292{fill:#3B857E;}
	.st293{fill:#6CE7AE;}
	.st294{fillRule:evenodd;clipRule:evenodd;}
	.st295{fill:#BA271A;}
	.st296{fill:#3A8364;}
	.st297{fill:#8A7830;}
	.st298{fill:url(#Path_70_00000113324765738895374300000000309697459636974265_);}
	.st299{fill:url(#Path_71_00000044885240257834687200000015947859149134735488_);}
	.st300{fill:url(#Path_72_00000009564953370781644820000003356819173904872360_);}
	.st301{fill:url(#Path_73_00000018936151434885565650000017921145709796732558_);}
	.st302{fill:url(#Path_74_00000117644067051736146010000011005836835339793538_);}
	.st303{fill:url(#Path_75_00000025444197087658879590000004597444816144083639_);}
	.st304{fill:url(#Path_76_00000107587817838290607080000000198001061436543925_);}
	.st305{fill:url(#Path_77_00000049935185163507482880000009552934263419473296_);}
	.st306{fill:url(#Path_78_00000000919161734590233100000006759874222292088481_);}
	.st307{fill:url(#Path_79_00000119096217051467347020000006499568001142449561_);}
	.st308{fill:url(#Path_80_00000004511911645028683740000016430994182136523680_);}
	.st309{fill:url(#Path_81_00000153684463907348098220000003188494985862372286_);}
	.st310{fill:url(#Path_82_00000023983622258885628680000001664324052540924842_);}
	.st311{fill:url(#Path_83_00000082355923239561730720000005271394699676960900_);}
	.st312{fill:url(#Path_84_00000110468964237521015140000003672016188886910853_);}
	.st313{fill:url(#Path_85_00000129176092313620639010000010098489176249824447_);}
	.st314{fill:url(#Path_86_00000026161008241600204830000004509431434782997636_);}
	.st315{fill:url(#Path_87_00000000938689341826399570000005854343713580855213_);}
	.st316{fill:url(#Path_88_00000074440903338964646450000000658597549063584939_);}
	.st317{fill:url(#Path_89_00000013186843887989408420000010698722814924312479_);}
	.st318{fill:url(#Path_90_00000111178928213151014220000003770434443157127047_);}
	.st319{fill:url(#Path_91_00000103250848067638409660000007049010869347396762_);}
	.st320{fill:url(#Path_92_00000079479281519875385700000014248009761470681230_);}
	.st321{fill:url(#Path_93_00000033370548953768263740000004375906050583027903_);}
	.st322{fill:url(#Path_94_00000023268963990010629800000010806886660979133864_);}
	.st323{fill:url(#Path_95_00000095325225251879433820000016883156199795611576_);}
	.st324{fill:url(#Path_96_00000110447946530878744630000013305075677040144042_);}
	.st325{fill:url(#Path_97_00000124146209926099780540000003930855675817130172_);}
	.st326{fill:url(#Path_98_00000067224530309026931870000011658831220634827691_);}
	.st327{fill:url(#Path_99_00000083784251492115533100000003448575816615214231_);}
	.st328{fill:url(#Path_100_00000112619607136023003820000010392484892403650723_);}
	.st329{fill:#808082;}
	.st330{fill:#53A46F;}
	.st331{fill:#C6834D;}
	.st332{fill:#20507E;}
	.st333{fill:#E4963F;}
	.st334{fill:#1C474C;}
	.st335{fill:#D3B286;}
	.st336{fill:#131E87;}
	.st337{fill:#357AB4;}
	.st338{fill:#0F1F88;}
	.st339{fill:#2F2C6B;}
	.st340{fill:#5DB2BC;}
	.st341{fill:#26245D;}
	.st342{fill:#DA9061;}
	.st343{fill:#232750;}
	.st344{fill:url(#Path_429_00000077321821651733041080000012442878636766316731_);}
	.st345{filter:url(#Adobe_OpacityMaskFilter);}
	.st346{fillRule:evenodd;clipRule:evenodd;fill:#FFFFFF;}
	.st347{mask:url(#mask-2_00000181778887308529790200000000831507762023491979_);fillRule:evenodd;clipRule:evenodd;fill:#245870;}
	.st348{filter:url(#Adobe_OpacityMaskFilter_00000065061438615417776760000017920571618131280821_);}
	.st349{mask:url(#mask-2_00000000207326656208497480000003303022884949798805_);fillRule:evenodd;clipRule:evenodd;fill:#245870;}
	.st350{filter:url(#Adobe_OpacityMaskFilter_00000114074133367194852080000000117562414690282172_);}
	.st351{mask:url(#mask-2_00000065785558703536194710000007734681589678738564_);fillRule:evenodd;clipRule:evenodd;fill:#245870;}
	.st352{filter:url(#Adobe_OpacityMaskFilter_00000180334350908422391630000004646075482290374036_);}
	.st353{mask:url(#mask-2_00000088815109359673616440000012657192332974893215_);fillRule:evenodd;clipRule:evenodd;fill:#245870;}
	.st354{filter:url(#Adobe_OpacityMaskFilter_00000106137710265017700710000005467798635094910635_);}
	.st355{mask:url(#mask-2_00000041975301509416525360000006506499995822959531_);fillRule:evenodd;clipRule:evenodd;fill:#245870;}
	.st356{filter:url(#Adobe_OpacityMaskFilter_00000031886344621099484210000018007521702133545863_);}
	.st357{mask:url(#mask-2_00000158750128845762389130000005294071396432734107_);fillRule:evenodd;clipRule:evenodd;fill:#245870;}
	.st358{fillRule:evenodd;clipRule:evenodd;fill:#245870;}
	.st359{fillRule:evenodd;clipRule:evenodd;fill:url(#path-4_00000177478745280113909530000002692582091807615119_);}
</style>
<g id="Layer_1" class="st0">
	<g class="st1">
		<g>
			<path class="st2" d="M141,141v718h718V141H141z M753,753H247V247h506V753z"/>
		</g>
	</g>
</g>
<g id="Layer_2">
	<g>
		<g>
			<g>
				<g>
					<path class="st294" d="M252.08,398.8c-1.25-0.62-2.35-1.88-1.09-3.59c0.87-1.19,2.19-0.94,2.19-0.94h33.58
						c0,0,6.56,0.33,10.31,2.82c3.75,2.5,5.78,5.32,6.88,8.61c1.09,3.28,0.77,8.43,0.77,8.43L300.99,459l-5.47,60.36
						c0,0-0.59,6.08,1.71,10.17c2.03,3.6,5.8,5.62,8.44,6.57c2.65,0.92,9.68,2.33,9.68,2.33s1.88,0.64,1.88,1.89
						c0,1.26-0.31,1.88-1.56,2.66c-1.25,0.78-2.49,0.78-2.49,0.78h-35.15c0,0-5.69,0.22-11.09-5c-4.69-4.53-4.69-11.57-4.69-11.57
						l0.16-6.88l9.52-101.48c0,0,0.06-6.02-1.4-9.07c-1.72-3.6-2.97-5.01-7.04-6.88C260.26,401.37,252.08,398.8,252.08,398.8
						 M389.45,398.59c-1.25-0.62-2.35-1.87-1.08-3.6c0.87-1.19,2.19-0.93,2.19-0.93h33.59c0,0,6.55,0.32,10.3,2.82
						c3.76,2.49,5.78,5.31,6.87,8.59c1.09,3.29,0.79,8.45,0.79,8.45l-3.75,44.88l-5.47,60.35c0,0-0.58,6.08,1.71,10.16
						c2.04,3.6,5.43,5.68,8.09,6.63c2.65,0.93,10.04,2.29,10.04,2.29s1.76,0.75,1.76,2c0,1.26-0.23,1.95-1.48,2.74
						c-1.26,0.78-2.46,0.58-2.46,0.58h-35.16c0,0-5.68,0.22-11.08-5.01c-4.69-4.54-4.69-11.57-4.69-11.57l0.15-6.88l9.53-101.49
						c0,0-0.3-5.34-1.77-8.39c-1.71-3.6-3.9-5.95-6.68-7.56C397.76,400.87,389.45,398.59,389.45,398.59 M459.08,354.55
						c-1.08-0.94-1.55-1.73-1.08-3.13c0.62-1.88,3.12-1.72,3.12-1.72l33.9-0.16c0,0,9.22,0.16,14.22,4.53
						c5,4.38,5.78,7.98,5.95,11.27c0.16,3.28-2.82,39.4-2.82,39.4s-0.32,2.19,0.32,2.19c0.62,0,5.31-2.5,9.37-4.22
						c4.06-1.73,14.22-4.69,23.13-4.07c8.89,0.62,20.77,1.71,34.19,11.25c13.44,9.54,17.97,20.17,21.58,30.97
						c3.59,10.79,3.43,24.24,3.43,24.24s0.32,13.91-3.75,28.3c-4.07,14.39-10.78,22.98-10.78,22.98s-4.53,7.51-14.37,15.64
						c-9.86,8.14-21.73,12.04-21.73,12.04s-12.03,4.06-25.15,3.91c-13.12-0.15-23.08-2.9-32.49-7.19
						c-10.63-4.85-17.34-14.39-17.34-14.39s-6.89-9.23-7.82-12.82c-0.94-3.6-0.62-5.17,0.17-5.95c0.76-0.78,1.87-0.3,2.32,0.16
						c0.48,0.47,5.33,5.16,7.81,7.04c2.52,1.88,6.43,5.32,13.6,7.98c7.19,2.66,13.91,4.52,21.41,5.16
						c7.49,0.62,18.43-1.09,26.09-5.16c7.66-4.07,15.62-11.89,18.43-16.1c2.82-4.23,7.65-10.64,10.94-25.33
						c3.27-14.7,2.18-22.98,2.18-22.98s-0.16-11.89-6.41-26.12c-7.11-16.19-22.49-19.39-22.49-19.39s-6.83-1.71-14.06-0.62
						c-6.25,0.94-13.59,5.63-16.4,9.54c-2.81,3.9-3.13,6.87-3.91,13.13c-0.35,2.86-4.69,45.81-4.69,45.81s-0.46,9.23,0.16,12.51
						c0.63,3.29,2.5,8.6,4.69,10.63c2.2,2.04,4.06,2.35,3.9,3.6c-0.15,1.26-1.7,2.97-4.06,3.44c-2.35,0.47-7.19,0.62-13.44-0.94
						c-6.25-1.56-12.81-4.84-17.96-12.19c-5.16-7.35-6.87-13.45-7.65-21.27c-0.77-7.82,4.06-55.51,4.06-55.51l4.85-49.26
						c0,0-0.16-5.94-4.69-10.32c-4.53-4.38-11.73-5.64-11.73-5.64S460.19,355.48,459.08,354.55 M710,406.47c0,0,7.34-1.41,13.43-1.1
						c6.1,0.32,12.2,1.56,15.47,2.97c3.28,1.41,6.1,2.35,7.18,2.81c1.1,0.47,3.13,0.47,3.44-1.25c0.31-1.72-1.25-3.12-3.76-5.01
						c-2.49-1.87-13.12-8.59-22.18-10.79c-9.06-2.19-16.25-2.66-25.47-2.19c-9.21,0.47-26.53,5.03-37.33,10.95
						c-13.96,7.64-24.53,19.16-28.44,26.11c-4.22,7.51-9.71,16.4-11.09,34.57c-1.08,14.38,0.62,28.3,6.1,38.93
						c6.41,12.5,16.56,24.71,27.5,30.96c10.94,6.25,26.55,12.35,43.11,12.03c16.57-0.31,33.44-6.87,41.72-13.59
						c8.28-6.73,8.51-7.7,8.9-9.39c0.62-2.65-0.94-3.29-2.18-3.29c-1.26,0-2.19,0.79-5.94,2.66c-3.76,1.88-11.26,4.23-16.73,5.01
						c-5.46,0.78-15,1.57-26.56-2.35c-11.56-3.9-21.4-12.98-21.4-12.98s-9.22-9.07-13.13-19.7c-3.91-10.63-3.59-25.33-3.59-25.33
						s0.32-17.99,8.59-30.18c8.28-12.2,14.06-16.95,23.44-22.52C700.3,408.34,710,406.47,710,406.47 M321.1,398.61
						c-1.26-0.62-2.35-1.88-1.11-3.6c0.87-1.19,2.2-0.93,2.2-0.93h33.59c0,0,6.55,0.31,10.3,2.81c3.76,2.5,5.79,5.32,6.88,8.6
						c1.1,3.29,0.78,8.44,0.78,8.44l-3.75,44.88l-5.47,60.35c0,0-0.58,6.09,1.72,10.17c2.03,3.6,5.78,5.64,8.43,6.58
						c2.65,0.93,9.69,2.35,9.69,2.35s1.87,0.61,1.87,1.87c0,1.25-0.3,1.88-1.55,2.66c-1.25,0.78-2.5,0.78-2.5,0.78h-35.15
						c0,0-5.69,0.22-11.1-5.01c-4.68-4.52-4.68-11.56-4.68-11.56l0.16-6.88l9.53-101.48c0,0,0.04-6.02-1.41-9.08
						c-1.72-3.58-2.97-4.99-7.04-6.87C329.25,401.18,321.1,398.6,321.1,398.61"/>
					<path class="st294" d="M389.21,398.61c-1.26-0.62-2.34-1.88-1.1-3.6c0.87-1.19,2.18-0.93,2.18-0.93h33.59
						c0,0,6.57,0.31,10.31,2.81c3.76,2.5,5.78,5.32,6.87,8.6c1.09,3.29,0.79,8.44,0.79,8.44l-3.75,44.88l-5.47,60.35
						c0,0-0.58,6.09,1.72,10.17c2.02,3.6,5.78,5.64,8.43,6.58c2.64,0.93,9.69,2.35,9.69,2.35s1.87,0.61,1.87,1.87
						c0,1.25-0.31,1.88-1.56,2.66c-1.25,0.78-2.49,0.78-2.49,0.78h-35.16c0,0-5.69,0.22-11.08-5.01
						c-4.69-4.52-4.69-11.56-4.69-11.56l0.15-6.88l9.54-101.48c0,0,0.05-6.02-1.41-9.08c-1.71-3.58-2.96-4.99-7.03-6.87
						C397.37,401.18,389.2,398.6,389.21,398.61 M167,568h666c0,0-183.79,15.13-339.01,15.13C342.85,583.13,167,568,167,568
						 M304.08,635.96h11.01l-5.48-15.02C309.62,620.94,304.08,635.96,304.08,635.96z M329.38,650.11h-9.19l-2.64-7.34h-15.86
						l-2.71,7.34h-9.19l16.36-41.45h6.86C313.02,608.65,329.38,650.11,329.38,650.11z M374.43,608.31c4.19,0,7.78,1.09,10.76,3.29
						c2.98,2.2,4.87,5.46,5.67,9.81h-8.88c-0.46-1.7-1.29-3.11-2.48-4.22c-1.2-1.11-2.89-1.66-5.07-1.66c-1.22,0-2.3,0.19-3.24,0.58
						c-0.94,0.39-1.73,0.91-2.36,1.57c-0.42,0.43-0.77,0.91-1.04,1.46c-0.27,0.54-0.49,1.24-0.66,2.1
						c-0.17,0.85-0.29,1.93-0.38,3.23c-0.08,1.3-0.12,2.94-0.12,4.92c0,1.98,0.04,3.62,0.12,4.92c0.09,1.3,0.21,2.38,0.38,3.23
						s0.39,1.55,0.66,2.1c0.27,0.54,0.62,1.03,1.04,1.45c0.63,0.66,1.42,1.19,2.36,1.57c0.94,0.39,2.02,0.58,3.24,0.58
						c2.18,0,3.87-0.55,5.07-1.66c1.19-1.11,2.02-2.51,2.48-4.22h8.87c-0.8,4.34-2.68,7.61-5.67,9.81
						c-2.98,2.19-6.56,3.29-10.76,3.29c-2.6,0-4.86-0.38-6.79-1.13c-1.93-0.76-3.67-1.84-5.23-3.23c-1.13-1.05-2-2.13-2.61-3.26
						c-0.61-1.12-1.05-2.36-1.32-3.7c-0.28-1.34-0.44-2.8-0.51-4.39c-0.06-1.59-0.1-3.38-0.1-5.36c0-1.98,0.04-3.76,0.1-5.36
						c0.06-1.59,0.23-3.05,0.5-4.39c0.27-1.34,0.72-2.57,1.32-3.7c0.61-1.12,1.48-2.21,2.61-3.25c1.55-1.41,3.29-2.48,5.22-3.24
						C369.57,608.68,371.83,608.31,374.43,608.31 M432.26,635.96h11.01l-5.47-15.02C437.79,620.94,432.26,635.96,432.26,635.96z
						 M457.55,650.11h-9.18l-2.65-7.34h-15.86l-2.71,7.34h-9.18l16.36-41.45h6.86L457.55,650.11z M496.95,615.87v27.01h6.67
						c2.89,0,5.07-0.85,6.54-2.56c0.42-0.47,0.74-0.98,0.97-1.54c0.23-0.56,0.41-1.27,0.54-2.13c0.13-0.85,0.21-1.87,0.25-3.06
						c0.04-1.18,0.06-2.59,0.06-4.22c0-1.63-0.02-3.04-0.06-4.23c-0.04-1.19-0.12-2.2-0.25-3.03c-0.13-0.83-0.31-1.54-0.54-2.13
						c-0.23-0.58-0.55-1.1-0.98-1.57c-1.47-1.71-3.65-2.56-6.54-2.56C503.61,615.87,496.95,615.87,496.95,615.87z M504.37,608.65
						c3.06,0,5.69,0.52,7.89,1.55c2.2,1.03,4.08,2.53,5.64,4.51c0.67,0.89,1.2,1.84,1.61,2.82c0.4,0.99,0.68,2.08,0.84,3.26
						c0.17,1.19,0.28,2.49,0.32,3.9c0.04,1.42,0.07,2.98,0.07,4.69c0,1.71-0.02,3.27-0.07,4.69c-0.04,1.41-0.14,2.72-0.32,3.9
						c-0.16,1.19-0.45,2.27-0.84,3.26c-0.4,0.99-0.94,1.93-1.61,2.82c-1.55,1.98-3.43,3.49-5.64,4.51c-2.2,1.03-4.83,1.55-7.89,1.55
						H488.2v-41.45C488.2,608.65,504.37,608.65,504.37,608.65z M584.35,615.87h-20.76v9.72h17.74v7.22h-17.74v10.07h20.76v7.22
						h-29.51v-41.45h29.51V615.87 M658.66,650.11h-8.75V626l-8.56,14.73h-5.92L626.82,626v24.1h-8.75v-41.45h8.62l11.7,21.48
						l11.64-21.48h8.62V650.11 M711.39,633.17v16.94h-8.75v-16.94l-13.4-24.51h9.5l8.37,16.71l8.24-16.71h9.5L711.39,633.17"/>
				</g>
			</g>
		</g>
	</g>
</g>
</svg>
